<?xml version="1.0" encoding="utf-8" standalone="no"?>
<!DOCTYPE svg PUBLIC "-//W3C//DTD SVG 1.1//EN"
  "http://www.w3.org/Graphics/SVG/1.1/DTD/svg11.dtd">
<!-- Created with matplotlib (http://matplotlib.org/) -->
<svg height="442pt" version="1.1" viewBox="0 0 586 442" width="586pt" xmlns="http://www.w3.org/2000/svg" xmlns:xlink="http://www.w3.org/1999/xlink">
 <defs>
  <style type="text/css">
*{stroke-linecap:butt;stroke-linejoin:round;}
  </style>
 </defs>
 <g id="figure_1">
  <g id="patch_1">
   <path d="
M0 442.8
L586.8 442.8
L586.8 0
L0 0
z
" style="fill:#ffffff;"/>
  </g>
  <g id="axes_1">
   <g id="patch_2">
    <path d="
M88.02 398.52
L528.12 398.52
L528.12 44.28
L88.02 44.28
z
" style="fill:#ffffff;"/>
   </g>
   <g id="line2d_1">
    <path clip-path="url(#p646b2a54c1)" d="
M88.196 398.52
L88.3545 398.385
L88.5995 398.268
L88.8224 398.003
L88.9794 397.822
L89.2039 397.564
L89.421 397.337
L89.644 397.075
L89.7995 396.894
L89.9535 396.862
L90.0841 396.735
L90.266 396.526
L90.4948 396.26
L91.2811 395.339
L91.5232 395.222
L91.7594 394.939
L91.9164 394.758
L92.1393 394.503
L92.3198 394.294
L92.4298 394.166
L92.6645 393.887
L93.0885 393.561
L93.3129 393.291
L93.4699 393.111
L93.6914 392.849
L93.8499 392.668
L94.0714 392.409
L94.4851 392.087
L94.7066 391.825
L94.865 391.644
L95.0865 391.386
L95.2435 391.205
L95.465 390.943
L95.622 390.762
L96.1868 390.248
L96.3452 390.068
L96.5785 389.792
L96.7354 389.611
L96.8455 389.48
L97.067 389.225
L97.5071 388.931
L97.7418 388.651
L97.9223 388.442
L98.1438 388.187
L98.3007 388.006
L98.5237 387.744
L98.9756 387.404
L100.089 386.104
L100.331 385.987
L100.441 385.856
L100.651 385.622
L100.809 385.441
L101.043 385.165
L101.201 384.984
L101.423 384.729
L101.873 384.389
L102.059 384.17
L102.216 384.042
L102.375 383.862
L102.596 383.603
L102.755 383.422
L102.914 383.231
L103.228 383.096
L103.454 382.827
L103.646 382.611
L103.856 382.36
L103.99 382.225
L104.224 381.945
L104.406 381.736
L104.491 381.64
L104.822 381.527
L105.043 381.265
L105.202 381.084
L105.312 380.95
L105.47 380.769
L105.691 380.51
L105.848 380.33
L105.958 380.206
L106.337 380.092
L106.567 379.823
L107.425 378.824
L107.744 378.711
L107.979 378.431
L108.146 378.247
L108.382 377.963
L108.539 377.783
L108.76 377.521
L109.136 377.251
L109.36 376.982
L109.542 376.791
L109.652 376.663
L109.884 376.391
L110.486 375.831
L110.619 375.707
L110.841 375.445
L110.999 375.264
L111.109 375.133
L111.268 374.952
L111.489 374.694
L111.646 374.513
L111.828 374.304
L112.06 374.187
L112.284 373.925
L112.466 373.716
L112.688 373.454
L112.845 373.273
L113.068 373.011
L113.26 372.795
L113.288 372.76
L113.569 372.643
L113.751 372.434
L113.983 372.157
L114.141 371.977
L114.364 371.718
L114.545 371.509
L114.755 371.265
L114.986 371.148
L115.145 370.967
L115.366 370.709
L115.559 370.493
L115.669 370.361
L116.34 369.699
L116.475 369.568
L116.7 369.302
L116.88 369.093
L117.115 368.813
L117.273 368.633
L117.495 368.378
L117.675 368.169
L117.69 368.147
L117.979 368.031
L118.204 367.761
L118.36 367.581
L118.583 367.322
L118.765 367.113
L118.988 366.851
L119.424 366.518
L119.61 366.351
L119.769 366.171
L119.879 366.036
L120.037 365.856
L120.26 365.593
L120.441 365.384
L120.626 365.172
L120.894 365.055
L121.052 364.874
L121.275 364.612
L121.456 364.403
L121.666 364.184
L121.848 363.975
L122.069 363.712
L122.531 363.408
L122.725 363.181
L122.998 363.064
L123.219 362.806
L123.4 362.597
L123.561 362.405
L123.765 362.288
L123.989 362.023
L124.146 361.842
L124.368 361.58
L124.526 361.399
L124.755 361.134
L125.147 360.797
L125.285 360.673
L125.505 360.414
L125.662 360.234
L125.885 359.972
L126.043 359.791
L126.24 359.589
L126.397 359.408
L126.496 359.288
L126.712 359.171
L126.94 358.902
L127.18 358.629
L127.415 358.349
L127.573 358.169
L127.807 357.892
L128.185 357.588
L128.418 357.311
L128.6 357.102
L128.71 356.971
L128.932 356.713
L129.089 356.532
L129.74 355.916
L129.92 355.707
L130.142 355.448
L130.3 355.267
L130.534 354.991
L131.229 354.594
L131.451 354.339
L131.608 354.159
L131.83 353.896
L132.011 353.687
L132.234 353.425
L132.806 353.078
L133.029 352.816
L133.186 352.635
L133.296 352.504
L133.518 352.246
L133.676 352.065
L133.831 351.888
L134.076 351.771
L134.301 351.505
L134.456 351.325
L134.679 351.066
L134.836 350.885
L135.059 350.623
L135.216 350.443
L135.293 350.35
L135.508 350.234
L135.733 349.968
L135.915 349.759
L136.148 349.483
L136.305 349.302
L136.526 349.043
L136.685 348.863
L136.76 348.774
L136.988 348.657
L137.213 348.388
L137.37 348.207
L137.48 348.076
L137.701 347.821
L137.882 347.612
L138.07 347.442
L138.469 347.127
L138.579 346.992
L138.803 346.734
L138.984 346.525
L139.205 346.263
L139.364 346.082
L139.585 345.82
L139.914 345.568
L140.135 345.31
L140.292 345.129
L140.515 344.867
L140.7 344.654
L141.59 343.988
L141.7 343.857
L141.857 343.677
L142.08 343.418
L142.261 343.209
L142.484 342.947
L143.128 342.515
L143.352 342.249
L143.534 342.04
L143.767 341.764
L143.926 341.583
L144.099 341.381
L144.315 341.264
L144.539 340.999
L144.72 340.79
L144.931 340.556
L145.111 340.347
L145.221 340.219
L145.859 339.617
L146.015 339.436
L147.033 338.25
L147.275 338.133
L147.498 337.867
L147.656 337.686
L147.89 337.41
L148.048 337.229
L148.158 337.095
L148.325 336.911
L148.501 336.702
L148.71 336.585
L148.892 336.376
L149.002 336.248
L150.073 335.104
L150.234 334.987
L150.458 334.721
L150.617 334.541
L150.727 334.41
L150.907 334.218
L151.132 333.953
L151.413 333.836
L151.776 333.538
L152 333.269
L152.159 333.088
L152.392 332.812
L152.586 332.596
L152.696 332.468
L152.904 332.224
L153.281 332.1
L153.517 331.817
L153.684 331.632
L153.921 331.349
L154.079 331.168
L154.189 331.034
L154.347 330.853
L154.465 330.821
L154.592 330.694
L154.751 330.513
L154.972 330.254
L155.129 330.074
L155.352 329.812
L155.533 329.603
L155.756 329.344
L156.121 329.046
L156.343 328.788
L156.498 328.607
L156.721 328.349
L156.878 328.168
L157.101 327.906
L157.281 327.697
L157.4 327.661
L157.529 327.534
L157.711 327.325
L157.896 327.165
L158.078 326.956
L158.295 326.705
L158.443 326.581
L158.666 326.315
L159.005 326.06
L159.241 325.777
L159.423 325.568
L159.646 325.306
L159.805 325.125
L159.976 324.983
L160.133 324.803
L160.235 324.682
L160.45 324.565
L160.686 324.282
L160.843 324.101
L161.065 323.843
L161.223 323.662
L161.42 323.428
L161.815 323.311
L162.032 323.074
L162.189 322.893
L162.412 322.635
L162.567 322.454
L162.79 322.192
L162.947 322.011
L163.138 321.823
L163.546 321.703
L163.748 321.466
L163.952 321.338
L164.132 321.129
L164.355 320.867
L164.572 320.662
L164.735 320.555
L164.942 320.332
L165.109 320.212
L165.256 320.052
L165.481 319.787
L165.638 319.606
L165.862 319.347
L166.286 319.021
L166.507 318.759
L166.638 318.628
L166.816 318.479
L166.986 318.292
L167.193 318.069
L167.303 317.937
L167.46 317.757
L167.571 317.629
L167.828 317.512
L168.048 317.254
L168.206 317.073
L168.428 316.811
L168.586 316.63
L168.696 316.503
L168.918 316.244
L169.268 315.954
L169.493 315.688
L169.697 315.468
L169.921 315.206
L170.102 314.997
L170.212 314.87
L170.446 314.59
L170.76 314.345
L170.985 314.08
L171.167 313.871
L171.388 313.609
L171.547 313.428
L171.655 313.304
L172.108 313.187
L172.331 312.929
L172.512 312.72
L172.735 312.457
L172.917 312.248
L173.113 312.061
L173.272 311.88
L173.442 311.682
L173.807 311.558
L174.043 311.274
L174.225 311.065
L174.448 310.807
L174.629 310.598
L174.85 310.335
L175.179 310.084
L175.4 309.825
L175.559 309.645
L175.788 309.379
L176.496 308.688
L176.624 308.561
L176.781 308.38
L177.004 308.118
L177.184 307.909
L177.407 307.65
L177.588 307.441
L177.811 307.179
L178.261 306.839
L178.483 306.581
L178.642 306.4
L178.751 306.269
L178.896 306.102
L179.119 305.84
L179.275 305.66
L179.408 305.61
L179.545 305.479
L179.768 305.213
L179.925 305.033
L180.148 304.77
L180.33 304.561
L180.44 304.434
L180.597 304.253
L180.771 304.048
L180.975 303.931
L181.211 303.647
L181.466 303.403
L181.688 303.144
L181.87 302.935
L181.97 302.815
L182.339 302.698
L182.556 302.461
L182.738 302.252
L182.96 301.993
L183.117 301.812
L183.34 301.55
L183.52 301.341
L183.707 301.125
L184.095 301.001
L184.318 300.739
L184.499 300.53
L184.72 300.268
L184.89 300.08
L185 299.946
L185.174 299.744
L185.389 299.627
L185.614 299.358
L185.772 299.177
L185.882 299.042
L186.126 298.826
L186.236 298.695
L186.457 298.433
L186.616 298.252
L186.748 298.206
L186.883 298.082
L187.082 297.88
L187.263 297.671
L187.486 297.409
L187.666 297.2
L187.89 296.938
L188.435 296.552
L188.665 296.283
L188.914 296.116
L189.136 295.858
L189.303 295.674
L189.528 295.404
L190.026 295.085
L190.249 294.82
L190.42 294.632
L190.53 294.501
L190.688 294.32
L190.898 294.094
L191.275 293.789
L191.486 293.559
L191.668 293.35
L191.888 293.091
L192.046 292.91
L192.13 292.879
L192.463 292.765
L193.06 292.407
L193.17 292.28
L193.392 292.018
L193.538 291.851
L193.76 291.593
L195.104 291.058
L195.36 290.92
L195.444 290.87
L195.999 290.75
L196.242 290.509
L196.65 290.169
L196.829 290.045
L196.914 289.97
L197.168 289.853
L197.392 289.591
L198.011 289.262
L198.223 289.028
L198.541 288.893
L198.696 288.787
L198.858 288.663
L199.239 288.277
L199.544 288.164
L199.712 287.979
L199.864 287.88
L200.166 287.763
L200.389 287.501
L200.571 287.292
L200.681 287.161
L200.85 286.977
L200.96 286.849
L201.024 286.768
L201.302 286.651
L201.315 286.637
L201.633 286.52
L201.858 286.258
L202.038 286.049
L202.26 285.797
L202.417 285.617
L202.782 285.241
L203.149 285.128
L203.373 284.866
L203.625 284.621
L203.838 284.384
L204.045 284.161
L204.242 283.93
L204.654 283.81
L205.207 283.314
L205.587 283.084
L206.552 282.496
L206.694 282.333
L206.844 282.212
L207.066 281.95
L207.626 281.607
L207.849 281.344
L208.251 281.065
L208.472 280.806
L208.629 280.625
L208.644 280.608
L208.995 280.494
L209.219 280.229
L209.401 280.02
L209.596 279.793
L209.843 279.676
L210.025 279.467
L210.111 279.425
L210.327 279.308
L210.553 279.045
L210.735 278.836
L210.845 278.705
L211.003 278.525
L211.225 278.27
L212.018 277.763
L212.24 277.505
L212.422 277.296
L212.643 277.04
L212.8 276.86
L213.022 276.601
L213.654 276.229
L213.878 275.967
L214.035 275.786
L214.257 275.528
L214.415 275.347
L214.515 275.23
L214.827 275.113
L214.964 275.011
L215.394 274.897
L215.552 274.717
L215.774 274.458
L215.932 274.277
L215.982 274.217
L216.259 274.1
L216.431 273.952
L217.299 273.604
L217.449 273.427
L217.69 273.31
L217.914 273.045
L218.106 272.829
L218.331 272.566
L218.54 272.343
L218.598 272.326
L219.456 272.202
L221.278 271.915
L221.827 271.706
L222.314 271.585
L222.525 271.351
L222.911 271.079
L223.135 270.813
L223.305 270.625
L223.318 270.607
L223.584 270.491
L223.782 270.299
L224.04 270.182
L224.197 270.002
L224.787 269.336
L225.251 269.219
L225.46 268.989
L226.195 268.51
L226.254 268.457
L226.656 268.344
L226.877 268.085
L227.059 267.876
L227.281 267.618
L228.011 267.207
L228.121 267.076
L228.344 266.817
L228.504 266.636
L228.614 266.505
L228.807 266.289
L229.03 266.027
L229.588 265.684
L229.813 265.418
L230.005 265.202
L230.228 264.94
L230.386 264.759
L230.57 264.543
L231.082 264.38
L231.303 264.121
L231.465 263.937
L231.647 263.728
L231.868 263.47
L232.027 263.289
L232.122 263.183
L232.489 263.069
L232.577 262.963
L232.831 262.846
L232.97 262.772
L233.25 262.63
L233.42 262.464
L233.75 262.304
L233.912 262.201
L234.79 261.656
L235.012 261.397
L235.706 260.94
L235.929 260.678
L236.112 260.469
L236.136 260.437
L236.426 260.32
L236.514 260.211
L236.857 260.097
L237.019 259.913
L237.259 259.64
L237.481 259.378
L237.639 259.197
L237.861 258.939
L237.884 258.91
L238.511 258.797
L238.753 258.524
L238.863 258.393
L239.021 258.213
L239.241 257.954
L239.388 257.788
L239.451 257.713
L240.035 257.596
L240.258 257.334
L240.44 257.125
L240.661 256.867
L240.817 256.735
L240.918 256.611
L241.244 256.498
L241.442 256.289
L241.712 256.151
L241.933 255.892
L242.09 255.712
L242.385 255.372
L242.687 255.255
L242.9 255.017
L243.067 254.886
L243.254 254.713
L243.507 254.596
L243.73 254.337
L244.326 253.979
L244.55 253.714
L244.707 253.533
L244.93 253.278
L245.661 252.803
L245.884 252.541
L246.151 252.29
L246.372 252.035
L246.531 251.854
L246.641 251.726
L246.789 251.61
L247.154 251.486
L247.264 251.358
L247.486 251.103
L247.668 250.894
L247.889 250.639
L248.046 250.458
L248.196 250.313
L248.912 250.125
L249.136 249.863
L249.295 249.683
L249.515 249.424
L249.673 249.243
L249.724 249.183
L249.964 249.066
L250.188 248.804
L250.346 248.623
L250.446 248.506
L250.685 248.39
L250.91 248.124
L251.068 247.943
L251.178 247.819
L251.191 247.805
L251.461 247.688
L251.642 247.479
L251.86 247.231
L252.022 247.097
L252.227 246.863
L252.474 246.746
L252.639 246.572
L252.889 246.455
L253.112 246.193
L253.294 245.984
L253.514 245.729
L253.682 245.556
L253.907 245.29
L254.089 245.081
L254.211 245.035
L254.346 244.911
L254.567 244.652
L254.734 244.468
L254.959 244.202
L255.141 243.993
L255.362 243.735
L255.529 243.551
L255.592 243.473
L255.936 243.359
L256.156 243.101
L256.303 242.934
L256.524 242.676
L256.681 242.495
L256.904 242.243
L257.548 241.811
L257.771 241.549
L257.991 241.344
L258.211 241.085
L258.37 240.904
L258.526 240.724
L259.091 240.603
L259.25 240.423
L259.336 240.32
L260.337 240.104
L260.56 239.842
L260.742 239.633
L260.963 239.374
L261.13 239.19
L261.356 238.924
L261.905 238.538
L262.126 238.28
L262.32 238.063
L262.493 237.918
L262.65 237.738
L262.872 237.479
L263.262 237.203
L263.372 237.072
L263.593 236.817
L263.752 236.636
L263.973 236.377
L264.155 236.168
L264.377 235.913
L264.764 235.64
L264.989 235.375
L265.171 235.166
L265.392 234.907
L265.559 234.723
L265.784 234.457
L266.137 234.163
L266.359 233.905
L266.552 233.689
L266.774 233.43
L266.932 233.249
L267.152 232.991
L267.311 232.81
L267.428 232.778
L267.565 232.651
L267.789 232.385
L267.948 232.204
L268.168 231.946
L268.326 231.765
L268.474 231.591
L268.633 231.471
L268.743 231.344
L268.793 231.283
L269.008 231.166
L269.196 231
L269.353 230.819
L269.574 230.561
L269.742 230.376
L269.966 230.111
L270.125 229.93
L270.235 229.803
L270.625 229.526
L270.735 229.402
L270.956 229.14
L271.115 228.959
L271.336 228.701
L271.493 228.52
L271.716 228.265
L272.115 227.95
L272.338 227.684
L272.497 227.504
L272.718 227.245
L272.937 227.04
L273.158 226.781
L273.487 226.529
L274.052 225.881
L274.281 225.764
L274.391 225.633
L274.614 225.371
L275.111 225.052
L275.335 224.787
L275.494 224.606
L275.715 224.347
L276.411 223.89
L276.485 223.802
L276.641 223.681
L276.864 223.419
L277.022 223.239
L277.244 222.98
L277.448 222.838
L277.597 222.661
L277.842 222.544
L278.001 222.364
L278.222 222.105
L278.404 221.896
L278.626 221.641
L278.783 221.46
L279.004 221.202
L279.626 220.833
L279.848 220.578
L280.006 220.398
L280.216 220.153
L280.375 220.026
L280.703 219.774
L280.925 219.519
L281.083 219.338
L281.305 219.08
L281.486 218.871
L281.708 218.612
L281.875 218.428
L281.998 218.283
L282.22 218.166
L282.442 217.907
L282.6 217.727
L282.821 217.471
L283.052 217.238
L283.273 216.979
L283.432 216.798
L283.465 216.763
L283.7 216.646
L283.922 216.384
L284.089 216.2
L284.105 216.175
L284.346 216.058
L284.57 215.792
L284.727 215.612
L284.932 215.378
L285.18 215.261
L285.402 215.002
L285.559 214.822
L285.78 214.563
L286.135 214.326
L286.245 214.198
L286.394 214.028
L286.622 213.911
L286.845 213.646
L287.014 213.461
L287.124 213.33
L287.347 213.072
L287.506 212.891
L287.654 212.718
L288.018 212.597
L288.241 212.335
L288.422 212.126
L288.644 211.871
L288.802 211.69
L288.912 211.559
L289.071 211.379
L289.292 211.12
L289.925 210.691
L290.148 210.429
L290.306 210.249
L290.528 209.99
L290.695 209.806
L290.796 209.682
L291.031 209.565
L291.266 209.133
L291.506 209.016
L291.729 208.754
L291.876 208.587
L292.378 208.13
L292.512 208.006
L292.622 207.879
L292.844 207.624
L293.001 207.443
L293.051 207.383
L293.305 207.266
L293.529 207
L293.711 206.791
L293.734 206.766
L293.943 206.649
L294.164 206.394
L294.323 206.214
L294.433 206.086
L294.654 205.828
L295.053 205.512
L295.201 205.342
L295.408 205.222
L295.633 204.956
L295.79 204.776
L296.011 204.517
L296.178 204.333
L296.403 204.067
L296.56 203.886
L296.575 203.869
L296.913 203.748
L297.136 203.486
L297.304 203.302
L297.528 203.036
L297.687 202.856
L297.797 202.724
L297.955 202.544
L298.135 202.338
L298.479 202.214
L298.589 202.083
L298.813 201.821
L298.995 201.612
L299.218 201.354
L299.485 201.102
L299.605 200.967
L299.827 200.851
L299.937 200.719
L300.048 200.588
L300.277 200.472
L300.502 200.206
L300.669 200.022
L300.893 199.756
L301.307 199.434
L301.529 199.175
L301.69 198.991
L301.931 198.718
L302.152 198.456
L302.311 198.275
L302.532 198.017
L302.749 197.9
L302.972 197.638
L303.131 197.457
L303.241 197.326
L303.409 197.142
L303.519 197.011
L303.742 196.752
L303.901 196.571
L304.001 196.454
L304.228 196.338
L304.452 196.072
L304.609 195.891
L304.831 195.636
L304.992 195.452
L305.221 195.186
L305.443 194.928
L305.793 194.669
L306.018 194.407
L306.176 194.226
L306.398 193.968
L306.58 193.759
L306.801 193.504
L307.385 193.1
L307.608 192.841
L307.766 192.661
L307.988 192.405
L308.146 192.225
L308.328 192.016
L308.71 191.895
L308.868 191.715
L308.978 191.587
L309.2 191.332
L309.381 191.123
L309.603 190.865
L309.785 190.656
L309.873 190.553
L310.137 190.436
L310.361 190.174
L310.543 189.965
L310.765 189.706
L310.947 189.497
L311.168 189.239
L311.338 189.051
L311.441 189.03
L311.572 188.902
L311.729 188.721
L311.95 188.466
L312.169 188.261
L312.392 188.002
L313.293 187.446
L313.517 187.18
L313.711 186.964
L313.934 186.702
L314.092 186.522
L314.202 186.39
L314.569 186.125
L314.79 185.87
L314.972 185.661
L315.194 185.402
L315.352 185.221
L315.572 184.963
L315.742 184.775
L315.867 184.754
L316.049 184.545
L316.159 184.417
L316.317 184.237
L316.539 183.978
L316.929 183.702
L317.039 183.574
L317.209 183.379
L317.431 183.263
L317.652 183.004
L317.809 182.823
L318.031 182.568
L318.189 182.388
L318.299 182.26
L318.37 182.182
L318.616 182.065
L318.676 181.994
L318.923 181.877
L319.144 181.619
L319.312 181.435
L319.536 181.169
L319.718 180.96
L319.939 180.701
L320.121 180.492
L320.133 180.478
L320.473 180.361
L320.698 180.099
L320.88 179.89
L321.101 179.632
L321.258 179.451
L321.443 179.288
L321.602 179.107
L321.722 179.09
L321.855 178.959
L321.885 178.92
L322.137 178.803
L322.36 178.537
L322.518 178.356
L322.74 178.101
L322.898 177.921
L323.008 177.79
L323.375 177.524
L323.485 177.396
L323.644 177.212
L323.89 177.099
L324.072 176.89
L324.238 176.716
L324.367 176.589
L324.524 176.408
L324.64 176.376
L324.779 176.249
L325.004 175.986
L325.185 175.777
L325.37 175.561
L325.881 175.441
L326.006 175.292
L326.209 175.175
L326.434 174.913
L326.616 174.704
L326.752 174.651
L327.2 174.442
L327.264 174.36
L327.814 174.236
L328.036 173.978
L328.23 173.762
L328.452 173.5
L328.614 173.315
L328.794 173.106
L328.942 172.933
L329.319 172.812
L329.541 172.554
L329.699 172.373
L329.809 172.246
L330.032 171.991
L330.213 171.782
L330.411 171.555
L330.65 171.438
L330.817 171.293
L331.56 171.016
L331.742 170.807
L331.878 170.652
L332.105 170.535
L332.293 170.354
L332.452 170.173
L332.562 170.042
L333.025 169.738
L333.247 169.479
L333.577 169.228
L333.75 169.096
L333.932 168.887
L334.042 168.756
L334.2 168.576
L334.31 168.452
L334.447 168.292
L334.712 168.175
L334.813 168.055
L335.031 167.938
L335.141 167.807
L335.315 167.672
L335.472 167.492
L335.694 167.237
L335.852 167.056
L336.074 166.797
L336.232 166.617
L336.255 166.588
L336.696 166.475
L336.917 166.22
L337.076 166.039
L337.186 165.912
L337.394 165.667
L338.723 165.405
L338.9 165.264
L339.126 165.111
L339.166 165.062
L340.046 164.938
L340.169 164.877
L340.637 164.7
L340.755 164.651
L341.18 164.484
L341.462 164.311
L341.893 164.119
L342.065 163.96
L342.377 163.829
L342.546 163.705
L343.03 163.443
L343.12 163.411
L343.899 163.248
L344.321 162.904
L344.532 162.766
L345.42 162.476
L345.577 162.352
L346.306 162.221
L346.414 162.171
L347.045 162.026
L348.012 161.314
L348.156 161.25
L348.31 161.123
L348.48 160.981
L348.753 160.864
L348.904 160.758
L349.929 160.481
L350.149 160.233
L350.565 159.911
L350.785 159.66
L351.225 159.365
L351.446 159.107
L351.628 158.898
L351.85 158.643
L352.263 158.32
L352.42 158.143
L352.667 158.026
L352.888 157.764
L353.056 157.58
L353.218 157.474
L353.396 157.428
L354.162 157.215
L355.624 156.592
L355.884 156.475
L356.044 156.372
L356.402 156.202
L356.752 156.021
L356.779 156.004
L357.17 155.89
L357.948 155.547
L358.953 155.214
L359.101 155.139
L359.345 154.991
L359.579 154.707
L362.012 153.411
L362.185 153.269
L362.513 152.989
L362.679 152.872
L363.135 152.752
L363.298 152.617
L363.489 152.472
L363.678 152.291
L363.797 152.157
L363.992 151.944
L364.346 151.767
L364.532 151.576
L366.112 151.193
L366.332 150.938
L366.762 150.821
L366.866 150.811
L367.66 150.595
L367.883 150.332
L368.041 150.152
L368.226 149.982
L369.115 149.507
L369.339 149.245
L370.356 148.752
L370.486 148.625
L370.74 148.405
L371.17 148.044
L371.33 147.916
L372.047 147.509
L372.272 147.243
L372.602 146.992
L372.823 146.74
L373.434 146.244
L373.472 146.198
L373.724 146.081
L373.949 145.816
L374.154 145.614
L374.377 145.352
L375.024 144.973
L375.234 144.728
L375.486 144.611
L375.894 144.137
L376.184 144.02
L376.409 143.754
L376.591 143.545
L376.811 143.294
L376.957 143.127
L376.996 143.081
L377.248 142.964
L377.364 142.939
L377.901 142.826
L378.083 142.617
L378.193 142.489
L378.414 142.234
L378.596 142.025
L378.741 141.859
L379.23 141.746
L379.453 141.483
L379.62 141.299
L379.846 141.034
L380.026 140.825
L380.249 140.566
L380.981 140.091
L381.203 139.833
L381.385 139.624
L381.608 139.365
L382.008 139.05
L382.23 138.791
L382.632 138.511
L382.849 138.267
L382.985 138.118
L383.208 137.86
L383.559 137.601
L383.783 137.335
L383.94 137.155
L384.049 137.034
L384.369 136.917
L384.59 136.659
L384.941 136.4
L385.165 136.134
L385.322 135.954
L385.544 135.699
L385.702 135.518
L385.814 135.387
L386.078 135.27
L386.166 135.167
L386.582 135.054
L386.802 134.799
L386.949 134.632
L387.172 134.374
L387.331 134.193
L387.552 133.935
L388.246 133.478
L388.469 133.215
L388.626 133.035
L388.847 132.776
L389.016 132.592
L389.101 132.493
L389.579 132.376
L389.801 132.114
L389.959 131.933
L390.181 131.675
L390.348 131.49
L390.559 131.239
L390.815 131.122
L390.925 130.991
L391.148 130.732
L391.586 130.399
L391.808 130.141
L391.99 129.932
L392.028 129.886
L392.268 129.769
L392.493 129.503
L392.687 129.287
L392.797 129.156
L392.908 129.025
L393.174 128.908
L393.398 128.642
L393.797 128.327
L393.972 128.178
L394.13 127.998
L394.352 127.739
L394.498 127.619
L394.657 127.438
L394.657 127.434
L394.911 127.317
L394.963 127.25
L395.292 127.133
L395.513 126.875
L395.67 126.694
L396.432 125.815
L397.004 125.695
L397.815 125.433
L398.144 125.334
L398.591 125.217
L398.726 125.164
L398.873 125.033
L399.084 124.799
L399.975 124.53
L400.475 124.413
L400.698 124.147
L401.073 123.878
L401.296 123.612
L401.455 123.431
L401.676 123.173
L402.067 122.896
L402.29 122.641
L402.692 122.362
L402.913 122.103
L403.07 121.922
L403.525 121.398
L403.765 121.281
L403.77 121.271
L404.07 121.154
L404.271 120.916
L404.403 120.792
L404.613 120.566
L404.77 120.385
L404.993 120.126
L405.175 119.917
L405.237 119.843
L405.724 119.726
L405.834 119.599
L406.058 119.336
L406.24 119.127
L406.462 118.869
L406.654 118.653
L406.705 118.592
L406.946 118.476
L407.374 118.125
L407.511 117.976
L407.732 117.714
L407.891 117.533
L408.112 117.278
L408.515 116.998
L408.626 116.867
L408.784 116.687
L409.005 116.428
L409.258 116.311
L409.482 116.049
L409.87 115.776
L410.094 115.511
L410.276 115.302
L410.497 115.047
L410.654 114.866
L410.775 114.731
L411.021 114.614
L411.106 114.515
L411.339 114.398
L411.561 114.143
L411.728 113.959
L411.953 113.693
L412.111 113.513
L412.333 113.254
L412.525 113.038
L412.539 113.017
L412.928 112.896
L413.153 112.634
L413.333 112.425
L413.555 112.167
L413.713 111.986
L413.935 111.731
L414.703 111.238
L414.925 110.98
L415.092 110.796
L415.317 110.53
L415.498 110.321
L415.509 110.314
L415.742 110.197
L415.965 109.938
L416.389 109.612
L416.615 109.347
L416.797 109.138
L416.97 108.936
L417.209 108.819
L417.433 108.557
L417.592 108.376
L417.702 108.249
L417.834 108.1
L418.079 107.983
L418.302 107.721
L418.839 107.388
L419.06 107.129
L419.219 106.949
L419.436 106.704
L419.767 106.488
L419.904 106.325
L420.206 106.208
L420.43 105.946
L420.612 105.737
L420.722 105.61
L420.944 105.355
L421.102 105.174
L421.212 105.043
L421.771 104.699
L421.996 104.433
L422.163 104.249
L422.387 103.984
L422.569 103.775
L422.791 103.516
L423.447 103.077
L423.671 102.811
L423.828 102.63
L424.051 102.372
L424.243 102.156
L424.308 102.078
L424.61 101.961
L424.72 101.848
L424.943 101.585
L425.101 101.405
L425.211 101.277
L425.433 101.022
L425.615 100.813
L425.725 100.689
L425.775 100.625
L426.105 100.512
L426.263 100.331
L426.46 100.101
L426.885 99.9842
L427.108 99.7221
L427.545 99.3891
L427.768 99.127
L427.927 98.9463
L428.037 98.8223
L428.258 98.5637
L428.696 98.2308
L428.71 98.2095
L428.999 98.0926
L429.224 97.8269
L429.394 97.6392
L429.579 97.4727
L429.761 97.2637
L429.982 97.0051
L430.141 96.8244
L430.165 96.7925
L430.553 96.6792
L430.752 96.4702
L430.911 96.2895
L431.134 96.0309
L431.316 95.8219
L431.537 95.5669
L432.231 95.1099
L432.455 94.8442
L432.637 94.6352
L432.859 94.3802
L433.016 94.1995
L433.114 94.0861
L433.386 93.9692
L433.578 93.7532
L433.663 93.6575
L433.908 93.5406
L434.132 93.282
L434.313 93.073
L434.534 92.8144
L434.936 92.5346
L435.158 92.2795
L435.316 92.0989
L435.425 92.0032
L435.671 91.8863
L435.893 91.6277
L436.306 91.3054
L436.528 91.0503
L436.686 90.8696
L436.908 90.611
L437.09 90.402
L437.188 90.2851
L437.43 90.1682
L437.517 90.0691
L437.75 89.9522
L437.971 89.6971
L438.153 89.4881
L438.375 89.2295
L438.542 89.0453
L438.766 88.7796
L438.948 88.5706
L438.95 88.5671
L439.328 88.4537
L439.487 88.2731
L439.708 88.018
L439.89 87.809
L440.112 87.5504
L440.27 87.3698
L440.451 87.1643
L440.844 87.0439
L441.065 86.7923
L441.224 86.6117
L441.445 86.3531
L441.627 86.1441
L441.849 85.8855
L442.261 85.5631
L442.46 85.3293
L442.688 85.2124
L443.377 84.4544
L443.696 84.341
L443.878 84.132
L444.099 83.8734
L444.526 83.544
L444.747 83.2854
L445.149 83.0055
L445.371 82.7469
L445.538 82.5627
L445.764 82.297
L445.946 82.088
L445.959 82.0703
L446.2 81.9534
L446.314 81.8153
L446.567 81.6984
L446.791 81.4362
L446.949 81.2556
L447.059 81.128
L447.279 80.8694
L447.438 80.6888
L447.659 80.4302
L448.279 80.0618
L448.503 79.7996
L448.661 79.619
L448.883 79.3604
L449.075 79.1443
L449.25 78.9388
L449.625 78.8184
L449.848 78.5563
L450.007 78.3756
L450.228 78.1205
L450.41 77.9115
L450.632 77.653
L451.034 77.3731
L451.255 77.118
L451.414 76.9374
L451.524 76.8099
L451.745 76.5513
L451.927 76.3423
L452.148 76.0837
L452.587 75.7507
L452.809 75.4956
L452.967 75.315
L453.189 75.0564
L453.381 74.8403
L453.605 74.5781
L454.188 74.1743
L454.411 73.9122
L454.578 73.728
L454.802 73.4623
L454.961 73.2816
L455.121 73.0939
L455.414 72.9805
L455.608 72.7644
L455.718 72.6334
L455.939 72.3748
L456.136 72.1764
L456.318 71.9674
L456.539 71.7123
L456.929 71.436
L457.039 71.3085
L457.262 71.0499
L457.444 70.8409
L457.666 70.5859
L457.848 70.3769
L458.056 70.136
L458.301 70.0191
L458.458 69.8384
L458.68 69.5798
L458.85 69.3921
L458.96 69.2645
L459.183 69.0024
L459.365 68.7934
L459.522 68.6127
L459.78 68.4958
L460.003 68.2408
L460.183 68.0318
L460.405 67.7732
L460.566 67.589
L460.748 67.38
L460.97 67.1285
L461.407 66.7955
L461.63 66.5334
L461.788 66.3527
L462.01 66.0976
L462.192 65.8886
L462.302 65.7611
L462.457 65.584
L462.717 65.4671
L462.827 65.336
L463.048 65.081
L463.207 64.9003
L463.428 64.6417
L463.61 64.4327
L463.832 64.1741
L464.355 63.7986
L464.578 63.5365
L464.76 63.3275
L464.98 63.0689
L465.136 62.8989
L465.36 62.6332
L465.786 62.3427
L466.009 62.0806
L466.176 61.8964
L466.4 61.6307
L466.582 61.4217
L466.804 61.1631
L467.191 60.8903
L467.416 60.6282
L467.597 60.4192
L467.819 60.1606
L467.977 59.9799
L468.087 59.8559
L468.307 59.6009
L468.698 59.3246
L468.919 59.0624
L469.078 58.8818
L469.299 58.6267
L470.116 58.1095
L470.226 57.982
L470.449 57.7199
L470.641 57.5038
L470.864 57.2416
L471.046 57.0326
L471.215 56.8414
L471.667 56.728
L471.891 56.4659
L472.05 56.2852
L472.271 56.0266
L472.453 55.8176
L472.675 55.5625
L473.492 55.0454
L473.715 54.7868
L473.895 54.5778
L474.117 54.3227
L474.506 54.0499
L474.616 53.9224
L474.84 53.6567
L475.45 53.2387
L475.66 52.9943
L475.978 52.8809
L476.16 52.6719
L476.382 52.4134
L476.564 52.2043
L476.787 51.9493
L476.967 51.7403
L477.129 51.5561
L477.381 51.4392
L477.605 51.1735
L477.797 50.9574
L478.02 50.6953
L478.179 50.5146
L478.4 50.256
L478.582 50.047
L478.597 50.0293
L478.838 49.9124
L479.061 49.6503
L479.242 49.4413
L479.464 49.1827
L479.646 48.9737
L479.867 48.7186
L480.024 48.538
L480.063 48.4955
L480.344 48.3786
L480.503 48.1979
L480.613 48.0704
L480.784 47.8685
L480.919 47.7445
L481.078 47.5638
L481.299 47.3088
L481.481 47.0998
L481.53 47.0431
L481.799 46.9262
L481.961 46.742
L482.153 46.5259
L482.376 46.2637
L482.534 46.0831
L482.754 45.8245
L482.913 45.6438
L482.998 45.5517
L483.513 45.4313
L483.67 45.2506
L484.464 44.3402
L484.695 44.2835
L484.695 44.2835" style="fill:none;stroke:#ff0000;stroke-linecap:square;stroke-width:2;"/>
   </g>
   <g id="line2d_2">
    <path clip-path="url(#p646b2a54c1)" d="
M88.0391 398.52
L88.1491 397.075
L88.177 396.72
L88.287 395.272
L88.3163 394.914
L88.4264 393.447
L88.4542 393.093
L88.5643 391.704
L88.5936 391.347
L88.7036 389.94
L88.733 389.583
L88.843 388.176
L88.8723 387.818
L88.9824 386.409
L89.0088 386.058
L89.1188 384.634
L89.1452 384.283
L89.2552 382.933
L89.2846 382.576
L89.3946 381.116
L89.4225 380.762
L89.5325 379.313
L89.5589 378.962
L89.6689 377.496
L89.6968 377.142
L89.8068 375.71
L89.8347 375.356
L89.9447 373.918
L89.974 373.56
L90.0841 372.118
L90.1134 371.761
L90.2234 370.305
L90.2513 369.951
L90.3613 368.7
L90.3995 368.321
L90.5095 366.932
L90.5374 366.578
L90.6474 365.112
L90.6797 364.747
L90.7897 363.298
L90.8176 362.944
L90.9276 361.495
L90.9555 361.141
L91.0655 359.685
L91.0934 359.33
L91.2034 357.889
L91.2313 357.534
L91.3413 356.093
L91.3706 355.735
L91.4807 354.293
L91.5115 353.932
L91.6215 352.522
L91.6494 352.168
L91.7594 350.751
L91.7887 350.393
L91.8987 349.054
L91.934 348.682
L92.044 347.29
L92.0733 346.932
L92.1833 345.522
L92.2142 345.161
L92.3242 343.726
L92.3521 343.372
L92.4621 341.93
L92.4899 341.576
L92.6 340.134
L92.6278 339.78
L92.7379 338.324
L92.7657 337.97
L92.8758 336.539
L92.9051 336.181
L93.0151 334.728
L93.043 334.374
L93.153 332.957
L93.1809 332.603
L93.2909 331.193
L93.3188 330.839
L93.4288 329.397
L93.4567 329.043
L93.5667 327.591
L93.5961 327.233
L93.7061 325.844
L93.734 325.49
L93.844 324.023
L93.8719 323.669
L93.9819 322.185
L94.0098 321.831
L94.1198 320.364
L94.1477 320.01
L94.2577 318.582
L94.2856 318.228
L94.3956 316.779
L94.422 316.428
L94.532 315.004
L94.5599 314.65
L94.6699 313.212
L94.6993 312.854
L94.8093 311.455
L94.8386 311.097
L94.9486 309.634
L94.9765 309.28
L95.0865 307.835
L95.1159 307.477
L95.2259 306.07
L95.2538 305.716
L95.3638 304.25
L95.3902 303.899
L95.5002 302.471
L95.5281 302.117
L95.6381 300.668
L95.666 300.314
L95.776 298.883
L95.8039 298.529
L95.9139 297.083
L95.9418 296.729
L96.0518 295.309
L96.0812 294.951
L96.1912 293.566
L96.222 293.204
L96.332 291.823
L96.3599 291.469
L96.4699 290.03
L96.4963 289.68
L96.6064 288.298
L96.6357 287.94
L96.7457 286.481
L96.7736 286.127
L96.8836 284.681
L96.9115 284.327
L97.0215 282.903
L97.0494 282.549
L97.1594 281.111
L97.1873 280.756
L97.2973 279.347
L97.3266 278.989
L97.4367 277.636
L97.4645 277.281
L97.5746 275.85
L97.6039 275.492
L97.7139 274.093
L97.7433 273.735
L97.8533 272.29
L97.8812 271.936
L97.9912 270.473
L98.0235 270.108
L98.1335 268.709
L98.1614 268.355
L98.2714 266.899
L98.3007 266.541
L98.4108 265.124
L98.4386 264.77
L98.5487 263.296
L98.5765 262.942
L98.6866 261.514
L98.7144 261.16
L98.8245 259.722
L98.8538 259.364
L98.9638 257.986
L98.9917 257.632
L99.1017 256.211
L99.1296 255.857
L99.2396 254.415
L99.2675 254.061
L99.3775 252.623
L99.4054 252.268
L99.5154 250.855
L99.5462 250.494
L99.6562 249.07
L99.6841 248.715
L99.7941 247.274
L99.822 246.919
L99.932 245.446
L99.9599 245.092
L100.07 243.671
L100.098 243.317
L100.208 241.868
L100.239 241.507
L100.349 240.061
L100.377 239.707
L100.487 238.258
L100.514 237.904
L100.624 236.498
L100.652 236.143
L100.762 234.705
L100.79 234.351
L100.9 232.884
L100.93 232.527
L101.04 231.145
L101.067 230.791
L101.178 229.339
L101.205 228.984
L101.315 227.557
L101.343 227.202
L101.453 225.739
L101.48 225.389
L101.59 223.94
L101.618 223.586
L101.728 222.144
L101.757 221.786
L101.867 220.362
L101.895 220.008
L102.005 218.57
L102.034 218.212
L102.144 216.806
L102.174 216.448
L102.284 214.995
L102.312 214.641
L102.422 213.228
L102.449 212.873
L102.559 211.481
L102.587 211.127
L102.697 209.689
L102.725 209.335
L102.835 207.889
L102.863 207.535
L102.973 206.083
L103 205.732
L103.11 204.304
L103.137 203.95
L103.247 202.54
L103.275 202.186
L103.385 200.734
L103.413 200.379
L103.523 198.962
L103.553 198.605
L103.663 197.17
L103.69 196.816
L103.801 195.374
L103.828 195.02
L103.938 193.628
L103.966 193.273
L104.076 191.817
L104.104 191.463
L104.214 190.018
L104.242 189.664
L104.352 188.229
L104.38 187.875
L104.49 186.44
L104.519 186.082
L104.629 184.623
L104.657 184.269
L104.767 182.834
L104.795 182.48
L104.905 181.066
L104.935 180.708
L105.045 179.27
L105.074 178.912
L105.184 177.453
L105.212 177.099
L105.322 175.625
L105.354 175.26
L105.464 173.847
L105.492 173.493
L105.602 172.04
L105.63 171.686
L105.74 170.237
L105.768 169.883
L105.878 168.448
L105.906 168.094
L106.016 166.709
L106.044 166.355
L106.154 164.927
L106.183 164.569
L106.293 163.138
L106.321 162.784
L106.431 161.349
L106.46 160.991
L106.57 159.56
L106.6 159.203
L106.71 157.768
L106.737 157.414
L106.847 156.007
L106.878 155.646
L106.988 154.204
L107.016 153.85
L107.126 152.419
L107.154 152.065
L107.264 150.605
L107.292 150.251
L107.402 148.809
L107.43 148.455
L107.54 147.006
L107.568 146.652
L107.678 145.235
L107.706 144.881
L107.816 143.485
L107.844 143.131
L107.954 141.707
L107.984 141.345
L108.094 139.886
L108.124 139.528
L108.234 138.061
L108.262 137.707
L108.372 136.315
L108.4 135.961
L108.51 134.519
L108.537 134.165
L108.647 132.702
L108.675 132.348
L108.785 130.934
L108.813 130.58
L108.923 129.131
L108.951 128.777
L109.061 127.339
L109.089 126.984
L109.199 125.571
L109.228 125.213
L109.338 123.768
L109.366 123.414
L109.476 122
L109.504 121.646
L109.614 120.197
L109.642 119.843
L109.752 118.433
L109.78 118.079
L109.89 116.669
L109.918 116.315
L110.028 114.866
L110.054 114.515
L110.164 113.066
L110.192 112.712
L110.302 111.267
L110.329 110.916
L110.439 109.503
L110.465 109.152
L110.575 107.71
L110.603 107.356
L110.713 105.971
L110.741 105.617
L110.851 104.193
L110.88 103.835
L110.99 102.467
L111.018 102.113
L111.128 100.657
L111.156 100.303
L111.266 98.8613
L111.295 98.5035
L111.405 97.044
L111.432 96.6934
L111.542 95.2481
L111.57 94.8938
L111.68 93.4591
L111.708 93.1049
L111.818 91.6631
L111.846 91.3089
L111.956 89.8601
L111.983 89.5058
L112.093 88.0499
L112.121 87.6957
L112.231 86.2645
L112.259 85.9103
L112.369 84.5004
L112.397 84.1462
L112.507 82.7115
L112.535 82.3573
L112.645 80.9084
L112.699 80.4904
L112.809 79.0593
L112.837 78.705
L112.947 77.2739
L112.975 76.9197
L113.085 75.4708
L113.113 75.1166
L113.223 73.6784
L113.251 73.3241
L113.361 71.8753
L113.389 71.5211
L113.499 70.0687
L113.527 69.7144
L113.637 68.3046
L113.665 67.9503
L113.775 66.5156
L113.803 66.1614
L113.913 64.7586
L113.94 64.4044
L114.05 62.9945
L114.078 62.6403
L114.188 61.4996
L114.219 61.1383
L114.329 59.6894
L114.357 59.3352
L114.467 57.8828
L114.495 57.5286
L114.605 56.0904
L114.633 55.7361
L114.743 54.2873
L114.774 53.926
L114.884 52.5444
L114.912 52.1902
L115.022 50.7378
L115.051 50.38
L115.161 48.9312
L115.189 48.5769
L115.299 47.1529
L115.327 46.7986
L115.437 45.3392
L115.465 44.9849
L115.52 44.2835
L115.52 44.2835" style="fill:none;stroke:#0000ff;stroke-linecap:square;stroke-width:2;"/>
   </g>
   <g id="matplotlib.axis_1">
    <g id="xtick_1">
     <g id="line2d_3">
      <defs>
       <path d="
M0 0
L0 -4" id="m93b0483c22" style="stroke:#000000;stroke-width:0.5;"/>
      </defs>
      <g>
       <use style="stroke:#000000;stroke-width:0.5;" x="88.02" xlink:href="#m93b0483c22" y="398.52"/>
      </g>
     </g>
     <g id="line2d_4">
      <defs>
       <path d="
M0 0
L0 4" id="m741efc42ff" style="stroke:#000000;stroke-width:0.5;"/>
      </defs>
      <g>
       <use style="stroke:#000000;stroke-width:0.5;" x="88.02" xlink:href="#m741efc42ff" y="44.28"/>
      </g>
     </g>
     <g id="text_1">
      <!-- 0 -->
      <defs>
       <path d="
M31.7812 66.4062
Q24.1719 66.4062 20.3281 58.9062
Q16.5 51.4219 16.5 36.375
Q16.5 21.3906 20.3281 13.8906
Q24.1719 6.39062 31.7812 6.39062
Q39.4531 6.39062 43.2812 13.8906
Q47.125 21.3906 47.125 36.375
Q47.125 51.4219 43.2812 58.9062
Q39.4531 66.4062 31.7812 66.4062
M31.7812 74.2188
Q44.0469 74.2188 50.5156 64.5156
Q56.9844 54.8281 56.9844 36.375
Q56.9844 17.9688 50.5156 8.26562
Q44.0469 -1.42188 31.7812 -1.42188
Q19.5312 -1.42188 13.0625 8.26562
Q6.59375 17.9688 6.59375 36.375
Q6.59375 54.8281 13.0625 64.5156
Q19.5312 74.2188 31.7812 74.2188" id="BitstreamVeraSans-Roman-30"/>
      </defs>
      <g transform="translate(84.9965625 411.638125)scale(0.12 -0.12)">
       <use xlink:href="#BitstreamVeraSans-Roman-30"/>
      </g>
     </g>
    </g>
    <g id="xtick_2">
     <g id="line2d_5">
      <g>
       <use style="stroke:#000000;stroke-width:0.5;" x="161.37" xlink:href="#m93b0483c22" y="398.52"/>
      </g>
     </g>
     <g id="line2d_6">
      <g>
       <use style="stroke:#000000;stroke-width:0.5;" x="161.37" xlink:href="#m741efc42ff" y="44.28"/>
      </g>
     </g>
     <g id="text_2">
      <!-- 50 -->
      <defs>
       <path d="
M10.7969 72.9062
L49.5156 72.9062
L49.5156 64.5938
L19.8281 64.5938
L19.8281 46.7344
Q21.9688 47.4688 24.1094 47.8281
Q26.2656 48.1875 28.4219 48.1875
Q40.625 48.1875 47.75 41.5
Q54.8906 34.8125 54.8906 23.3906
Q54.8906 11.625 47.5625 5.09375
Q40.2344 -1.42188 26.9062 -1.42188
Q22.3125 -1.42188 17.5469 -0.640625
Q12.7969 0.140625 7.71875 1.70312
L7.71875 11.625
Q12.1094 9.23438 16.7969 8.0625
Q21.4844 6.89062 26.7031 6.89062
Q35.1562 6.89062 40.0781 11.3281
Q45.0156 15.7656 45.0156 23.3906
Q45.0156 31 40.0781 35.4375
Q35.1562 39.8906 26.7031 39.8906
Q22.75 39.8906 18.8125 39.0156
Q14.8906 38.1406 10.7969 36.2812
z
" id="BitstreamVeraSans-Roman-35"/>
      </defs>
      <g transform="translate(154.5965625 411.638125)scale(0.12 -0.12)">
       <use xlink:href="#BitstreamVeraSans-Roman-35"/>
       <use x="63.623046875" xlink:href="#BitstreamVeraSans-Roman-30"/>
      </g>
     </g>
    </g>
    <g id="xtick_3">
     <g id="line2d_7">
      <g>
       <use style="stroke:#000000;stroke-width:0.5;" x="234.72" xlink:href="#m93b0483c22" y="398.52"/>
      </g>
     </g>
     <g id="line2d_8">
      <g>
       <use style="stroke:#000000;stroke-width:0.5;" x="234.72" xlink:href="#m741efc42ff" y="44.28"/>
      </g>
     </g>
     <g id="text_3">
      <!-- 100 -->
      <defs>
       <path d="
M12.4062 8.29688
L28.5156 8.29688
L28.5156 63.9219
L10.9844 60.4062
L10.9844 69.3906
L28.4219 72.9062
L38.2812 72.9062
L38.2812 8.29688
L54.3906 8.29688
L54.3906 0
L12.4062 0
z
" id="BitstreamVeraSans-Roman-31"/>
      </defs>
      <g transform="translate(224.325 411.638125)scale(0.12 -0.12)">
       <use xlink:href="#BitstreamVeraSans-Roman-31"/>
       <use x="63.623046875" xlink:href="#BitstreamVeraSans-Roman-30"/>
       <use x="127.24609375" xlink:href="#BitstreamVeraSans-Roman-30"/>
      </g>
     </g>
    </g>
    <g id="xtick_4">
     <g id="line2d_9">
      <g>
       <use style="stroke:#000000;stroke-width:0.5;" x="308.07" xlink:href="#m93b0483c22" y="398.52"/>
      </g>
     </g>
     <g id="line2d_10">
      <g>
       <use style="stroke:#000000;stroke-width:0.5;" x="308.07" xlink:href="#m741efc42ff" y="44.28"/>
      </g>
     </g>
     <g id="text_4">
      <!-- 150 -->
      <g transform="translate(297.675 411.638125)scale(0.12 -0.12)">
       <use xlink:href="#BitstreamVeraSans-Roman-31"/>
       <use x="63.623046875" xlink:href="#BitstreamVeraSans-Roman-35"/>
       <use x="127.24609375" xlink:href="#BitstreamVeraSans-Roman-30"/>
      </g>
     </g>
    </g>
    <g id="xtick_5">
     <g id="line2d_11">
      <g>
       <use style="stroke:#000000;stroke-width:0.5;" x="381.42" xlink:href="#m93b0483c22" y="398.52"/>
      </g>
     </g>
     <g id="line2d_12">
      <g>
       <use style="stroke:#000000;stroke-width:0.5;" x="381.42" xlink:href="#m741efc42ff" y="44.28"/>
      </g>
     </g>
     <g id="text_5">
      <!-- 200 -->
      <defs>
       <path d="
M19.1875 8.29688
L53.6094 8.29688
L53.6094 0
L7.32812 0
L7.32812 8.29688
Q12.9375 14.1094 22.625 23.8906
Q32.3281 33.6875 34.8125 36.5312
Q39.5469 41.8438 41.4219 45.5312
Q43.3125 49.2188 43.3125 52.7812
Q43.3125 58.5938 39.2344 62.25
Q35.1562 65.9219 28.6094 65.9219
Q23.9688 65.9219 18.8125 64.3125
Q13.6719 62.7031 7.8125 59.4219
L7.8125 69.3906
Q13.7656 71.7812 18.9375 73
Q24.125 74.2188 28.4219 74.2188
Q39.75 74.2188 46.4844 68.5469
Q53.2188 62.8906 53.2188 53.4219
Q53.2188 48.9219 51.5312 44.8906
Q49.8594 40.875 45.4062 35.4062
Q44.1875 33.9844 37.6406 27.2188
Q31.1094 20.4531 19.1875 8.29688" id="BitstreamVeraSans-Roman-32"/>
      </defs>
      <g transform="translate(370.805625 411.638125)scale(0.12 -0.12)">
       <use xlink:href="#BitstreamVeraSans-Roman-32"/>
       <use x="63.623046875" xlink:href="#BitstreamVeraSans-Roman-30"/>
       <use x="127.24609375" xlink:href="#BitstreamVeraSans-Roman-30"/>
      </g>
     </g>
    </g>
    <g id="xtick_6">
     <g id="line2d_13">
      <g>
       <use style="stroke:#000000;stroke-width:0.5;" x="454.77" xlink:href="#m93b0483c22" y="398.52"/>
      </g>
     </g>
     <g id="line2d_14">
      <g>
       <use style="stroke:#000000;stroke-width:0.5;" x="454.77" xlink:href="#m741efc42ff" y="44.28"/>
      </g>
     </g>
     <g id="text_6">
      <!-- 250 -->
      <g transform="translate(444.155625 411.638125)scale(0.12 -0.12)">
       <use xlink:href="#BitstreamVeraSans-Roman-32"/>
       <use x="63.623046875" xlink:href="#BitstreamVeraSans-Roman-35"/>
       <use x="127.24609375" xlink:href="#BitstreamVeraSans-Roman-30"/>
      </g>
     </g>
    </g>
    <g id="xtick_7">
     <g id="line2d_15">
      <g>
       <use style="stroke:#000000;stroke-width:0.5;" x="528.12" xlink:href="#m93b0483c22" y="398.52"/>
      </g>
     </g>
     <g id="line2d_16">
      <g>
       <use style="stroke:#000000;stroke-width:0.5;" x="528.12" xlink:href="#m741efc42ff" y="44.28"/>
      </g>
     </g>
     <g id="text_7">
      <!-- 300 -->
      <defs>
       <path d="
M40.5781 39.3125
Q47.6562 37.7969 51.625 33
Q55.6094 28.2188 55.6094 21.1875
Q55.6094 10.4062 48.1875 4.48438
Q40.7656 -1.42188 27.0938 -1.42188
Q22.5156 -1.42188 17.6562 -0.515625
Q12.7969 0.390625 7.625 2.20312
L7.625 11.7188
Q11.7188 9.32812 16.5938 8.10938
Q21.4844 6.89062 26.8125 6.89062
Q36.0781 6.89062 40.9375 10.5469
Q45.7969 14.2031 45.7969 21.1875
Q45.7969 27.6406 41.2812 31.2656
Q36.7656 34.9062 28.7188 34.9062
L20.2188 34.9062
L20.2188 43.0156
L29.1094 43.0156
Q36.375 43.0156 40.2344 45.9219
Q44.0938 48.8281 44.0938 54.2969
Q44.0938 59.9062 40.1094 62.9062
Q36.1406 65.9219 28.7188 65.9219
Q24.6562 65.9219 20.0156 65.0312
Q15.375 64.1562 9.8125 62.3125
L9.8125 71.0938
Q15.4375 72.6562 20.3438 73.4375
Q25.25 74.2188 29.5938 74.2188
Q40.8281 74.2188 47.3594 69.1094
Q53.9062 64.0156 53.9062 55.3281
Q53.9062 49.2656 50.4375 45.0938
Q46.9688 40.9219 40.5781 39.3125" id="BitstreamVeraSans-Roman-33"/>
      </defs>
      <g transform="translate(517.5234375 411.638125)scale(0.12 -0.12)">
       <use xlink:href="#BitstreamVeraSans-Roman-33"/>
       <use x="63.623046875" xlink:href="#BitstreamVeraSans-Roman-30"/>
       <use x="127.24609375" xlink:href="#BitstreamVeraSans-Roman-30"/>
      </g>
     </g>
    </g>
    <g id="text_8">
     <!-- time (s) -->
     <defs>
      <path d="
M31.8906 -15.5781
Q20.0156 -10.25 13.9531 1.29688
Q7.90625 12.8438 7.90625 30.1719
Q7.90625 47.5625 13.9531 59.1094
Q20.0156 70.6562 31.8906 75.9844
L31.8906 71.1875
Q24.3594 66.0156 21.0938 56.6094
Q17.8281 47.2188 17.8281 30.1719
Q17.8281 13.1875 21.0938 3.78125
Q24.3594 -5.60938 31.8906 -10.7969
z
" id="BitstreamVeraSerif-Roman-28"/>
      <path d="
M54.2031 25
L15.4844 25
L15.4844 24.6094
Q15.4844 14.1094 19.4375 8.76562
Q23.3906 3.42188 31.1094 3.42188
Q37.0156 3.42188 40.7969 6.51562
Q44.5781 9.625 46.0938 15.7188
L53.3281 15.7188
Q51.1719 7.17188 45.375 2.875
Q39.5938 -1.42188 30.1719 -1.42188
Q18.7969 -1.42188 11.8906 6.07812
Q4.98438 13.5781 4.98438 25.9844
Q4.98438 38.2812 11.7656 45.7969
Q18.5625 53.3281 29.5938 53.3281
Q41.3594 53.3281 47.6562 46.0625
Q53.9531 38.8125 54.2031 25
M43.6094 30.1719
Q43.3125 39.2656 39.7656 43.875
Q36.2344 48.4844 29.5938 48.4844
Q23.3906 48.4844 19.8281 43.8438
Q16.2656 39.2031 15.4844 30.1719
z
" id="BitstreamVeraSerif-Roman-65"/>
      <path d="
M10.7969 46.6875
L2.875 46.6875
L2.875 51.9062
L10.7969 51.9062
L10.7969 68.0156
L19.8281 68.0156
L19.8281 51.9062
L36.7188 51.9062
L36.7188 46.6875
L19.8281 46.6875
L19.8281 13.7188
Q19.8281 7.125 21.0938 5.26562
Q22.3594 3.42188 25.7812 3.42188
Q29.2969 3.42188 30.9062 5.48438
Q32.5156 7.5625 32.625 12.2031
L39.4062 12.2031
Q39.0156 5.125 35.5469 1.84375
Q32.0781 -1.42188 25 -1.42188
Q17.2344 -1.42188 14.0156 2.01562
Q10.7969 5.46875 10.7969 13.7188
z
" id="BitstreamVeraSerif-Roman-74"/>
      <path d="
M5.60938 2.875
L5.60938 14.9844
L10.7969 14.9844
Q10.9844 9.1875 14.4219 6.29688
Q17.875 3.42188 24.6094 3.42188
Q30.6719 3.42188 33.8438 5.6875
Q37.0156 7.95312 37.0156 12.3125
Q37.0156 15.7188 34.6875 17.8125
Q32.375 19.9219 24.9062 22.3125
L18.4062 24.5156
Q11.7188 26.6562 8.71875 29.875
Q5.71875 33.1094 5.71875 38.0938
Q5.71875 45.2188 10.9375 49.2656
Q16.1562 53.3281 25.3906 53.3281
Q29.5 53.3281 34.0312 52.25
Q38.5781 51.1719 43.4062 49.125
L43.4062 37.7969
L38.2344 37.7969
Q38.0312 42.8281 34.7031 45.6562
Q31.3906 48.4844 25.6875 48.4844
Q20.0156 48.4844 17.1094 46.4844
Q14.2031 44.4844 14.2031 40.4844
Q14.2031 37.2031 16.4062 35.2188
Q18.6094 33.25 25.2031 31.2031
L32.3281 29
Q39.7031 26.7031 42.9375 23.2656
Q46.1875 19.8281 46.1875 14.4062
Q46.1875 7.03125 40.5469 2.79688
Q34.9062 -1.42188 25 -1.42188
Q19.9688 -1.42188 15.1875 -0.34375
Q10.4062 0.734375 5.60938 2.875" id="BitstreamVeraSerif-Roman-73"/>
      <path d="
M7.07812 -15.5781
L7.07812 -10.7969
Q14.5938 -5.60938 17.8906 3.78125
Q21.1875 13.1875 21.1875 30.1719
Q21.1875 47.2188 17.8906 56.6094
Q14.5938 66.0156 7.07812 71.1875
L7.07812 75.9844
Q19 70.6562 25.0469 59.1094
Q31.1094 47.5625 31.1094 30.1719
Q31.1094 12.8438 25.0469 1.29688
Q19 -10.25 7.07812 -15.5781" id="BitstreamVeraSerif-Roman-29"/>
      <path id="BitstreamVeraSerif-Roman-20"/>
      <path d="
M9.71875 68.0156
Q9.71875 70.2656 11.3438 71.9219
Q12.9844 73.5781 15.2812 73.5781
Q17.5312 73.5781 19.1562 71.9219
Q20.7969 70.2656 20.7969 68.0156
Q20.7969 65.7188 19.1875 64.1094
Q17.5781 62.5 15.2812 62.5
Q12.9844 62.5 11.3438 64.1094
Q9.71875 65.7188 9.71875 68.0156
M21.1875 5.17188
L29.6875 5.17188
L29.6875 0
L3.60938 0
L3.60938 5.17188
L12.2031 5.17188
L12.2031 46.6875
L3.60938 46.6875
L3.60938 51.9062
L21.1875 51.9062
z
" id="BitstreamVeraSerif-Roman-69"/>
      <path d="
M51.8125 41.7969
Q54.3906 47.5156 58.4219 50.4219
Q62.4531 53.3281 67.8281 53.3281
Q75.9844 53.3281 79.9844 48.2656
Q83.9844 43.2188 83.9844 33.0156
L83.9844 5.17188
L92.0938 5.17188
L92.0938 0
L67.1875 0
L67.1875 5.17188
L75 5.17188
L75 31.9844
Q75 39.9375 72.6562 43.3125
Q70.3125 46.6875 64.8906 46.6875
Q58.8906 46.6875 55.7344 42.1406
Q52.5938 37.5938 52.5938 28.9062
L52.5938 5.17188
L60.4062 5.17188
L60.4062 0
L35.7969 0
L35.7969 5.17188
L43.6094 5.17188
L43.6094 32.3281
Q43.6094 40.0938 41.2656 43.3906
Q38.9219 46.6875 33.5 46.6875
Q27.4844 46.6875 24.3281 42.1406
Q21.1875 37.5938 21.1875 28.9062
L21.1875 5.17188
L29 5.17188
L29 0
L4.10938 0
L4.10938 5.17188
L12.2031 5.17188
L12.2031 46.7812
L3.60938 46.7812
L3.60938 51.9062
L21.1875 51.9062
L21.1875 42.6719
Q23.6875 47.8594 27.5312 50.5938
Q31.3906 53.3281 36.2812 53.3281
Q42.3281 53.3281 46.375 50.3125
Q50.4375 47.3125 51.8125 41.7969" id="BitstreamVeraSerif-Roman-6d"/>
     </defs>
     <g style="fill:#8b0000;" transform="translate(277.7175 431.29125)scale(0.16 -0.16)">
      <use xlink:href="#BitstreamVeraSerif-Roman-74"/>
      <use x="40.185546875" xlink:href="#BitstreamVeraSerif-Roman-69"/>
      <use x="72.16796875" xlink:href="#BitstreamVeraSerif-Roman-6d"/>
      <use x="166.9921875" xlink:href="#BitstreamVeraSerif-Roman-65"/>
      <use x="226.171875" xlink:href="#BitstreamVeraSerif-Roman-20"/>
      <use x="257.958984375" xlink:href="#BitstreamVeraSerif-Roman-28"/>
      <use x="296.97265625" xlink:href="#BitstreamVeraSerif-Roman-73"/>
      <use x="348.291015625" xlink:href="#BitstreamVeraSerif-Roman-29"/>
     </g>
    </g>
   </g>
   <g id="matplotlib.axis_2">
    <g id="ytick_1">
     <g id="line2d_17">
      <defs>
       <path d="
M0 0
L4 0" id="m728421d6d4" style="stroke:#000000;stroke-width:0.5;"/>
      </defs>
      <g>
       <use style="stroke:#000000;stroke-width:0.5;" x="88.02" xlink:href="#m728421d6d4" y="398.52"/>
      </g>
     </g>
     <g id="line2d_18">
      <defs>
       <path d="
M0 0
L-4 0" id="mcb0005524f" style="stroke:#000000;stroke-width:0.5;"/>
      </defs>
      <g>
       <use style="stroke:#000000;stroke-width:0.5;" x="528.12" xlink:href="#mcb0005524f" y="398.52"/>
      </g>
     </g>
     <g id="text_9">
      <!-- 0 -->
      <g transform="translate(77.973125 401.83125)scale(0.12 -0.12)">
       <use xlink:href="#BitstreamVeraSans-Roman-30"/>
      </g>
     </g>
    </g>
    <g id="ytick_2">
     <g id="line2d_19">
      <g>
       <use style="stroke:#000000;stroke-width:0.5;" x="88.02" xlink:href="#m728421d6d4" y="327.672"/>
      </g>
     </g>
     <g id="line2d_20">
      <g>
       <use style="stroke:#000000;stroke-width:0.5;" x="528.12" xlink:href="#mcb0005524f" y="327.672"/>
      </g>
     </g>
     <g id="text_10">
      <!-- 20000 -->
      <g transform="translate(47.52125 330.98325)scale(0.12 -0.12)">
       <use xlink:href="#BitstreamVeraSans-Roman-32"/>
       <use x="63.623046875" xlink:href="#BitstreamVeraSans-Roman-30"/>
       <use x="127.24609375" xlink:href="#BitstreamVeraSans-Roman-30"/>
       <use x="190.869140625" xlink:href="#BitstreamVeraSans-Roman-30"/>
       <use x="254.4921875" xlink:href="#BitstreamVeraSans-Roman-30"/>
      </g>
     </g>
    </g>
    <g id="ytick_3">
     <g id="line2d_21">
      <g>
       <use style="stroke:#000000;stroke-width:0.5;" x="88.02" xlink:href="#m728421d6d4" y="256.824"/>
      </g>
     </g>
     <g id="line2d_22">
      <g>
       <use style="stroke:#000000;stroke-width:0.5;" x="528.12" xlink:href="#mcb0005524f" y="256.824"/>
      </g>
     </g>
     <g id="text_11">
      <!-- 40000 -->
      <defs>
       <path d="
M37.7969 64.3125
L12.8906 25.3906
L37.7969 25.3906
z

M35.2031 72.9062
L47.6094 72.9062
L47.6094 25.3906
L58.0156 25.3906
L58.0156 17.1875
L47.6094 17.1875
L47.6094 0
L37.7969 0
L37.7969 17.1875
L4.89062 17.1875
L4.89062 26.7031
z
" id="BitstreamVeraSans-Roman-34"/>
      </defs>
      <g transform="translate(47.22875 260.13525)scale(0.12 -0.12)">
       <use xlink:href="#BitstreamVeraSans-Roman-34"/>
       <use x="63.623046875" xlink:href="#BitstreamVeraSans-Roman-30"/>
       <use x="127.24609375" xlink:href="#BitstreamVeraSans-Roman-30"/>
       <use x="190.869140625" xlink:href="#BitstreamVeraSans-Roman-30"/>
       <use x="254.4921875" xlink:href="#BitstreamVeraSans-Roman-30"/>
      </g>
     </g>
    </g>
    <g id="ytick_4">
     <g id="line2d_23">
      <g>
       <use style="stroke:#000000;stroke-width:0.5;" x="88.02" xlink:href="#m728421d6d4" y="185.976"/>
      </g>
     </g>
     <g id="line2d_24">
      <g>
       <use style="stroke:#000000;stroke-width:0.5;" x="528.12" xlink:href="#mcb0005524f" y="185.976"/>
      </g>
     </g>
     <g id="text_12">
      <!-- 60000 -->
      <defs>
       <path d="
M33.0156 40.375
Q26.375 40.375 22.4844 35.8281
Q18.6094 31.2969 18.6094 23.3906
Q18.6094 15.5312 22.4844 10.9531
Q26.375 6.39062 33.0156 6.39062
Q39.6562 6.39062 43.5312 10.9531
Q47.4062 15.5312 47.4062 23.3906
Q47.4062 31.2969 43.5312 35.8281
Q39.6562 40.375 33.0156 40.375
M52.5938 71.2969
L52.5938 62.3125
Q48.875 64.0625 45.0938 64.9844
Q41.3125 65.9219 37.5938 65.9219
Q27.8281 65.9219 22.6719 59.3281
Q17.5312 52.7344 16.7969 39.4062
Q19.6719 43.6562 24.0156 45.9219
Q28.375 48.1875 33.5938 48.1875
Q44.5781 48.1875 50.9531 41.5156
Q57.3281 34.8594 57.3281 23.3906
Q57.3281 12.1562 50.6875 5.35938
Q44.0469 -1.42188 33.0156 -1.42188
Q20.3594 -1.42188 13.6719 8.26562
Q6.98438 17.9688 6.98438 36.375
Q6.98438 53.6562 15.1875 63.9375
Q23.3906 74.2188 37.2031 74.2188
Q40.9219 74.2188 44.7031 73.4844
Q48.4844 72.75 52.5938 71.2969" id="BitstreamVeraSans-Roman-36"/>
      </defs>
      <g transform="translate(47.48 189.28725)scale(0.12 -0.12)">
       <use xlink:href="#BitstreamVeraSans-Roman-36"/>
       <use x="63.623046875" xlink:href="#BitstreamVeraSans-Roman-30"/>
       <use x="127.24609375" xlink:href="#BitstreamVeraSans-Roman-30"/>
       <use x="190.869140625" xlink:href="#BitstreamVeraSans-Roman-30"/>
       <use x="254.4921875" xlink:href="#BitstreamVeraSans-Roman-30"/>
      </g>
     </g>
    </g>
    <g id="ytick_5">
     <g id="line2d_25">
      <g>
       <use style="stroke:#000000;stroke-width:0.5;" x="88.02" xlink:href="#m728421d6d4" y="115.128"/>
      </g>
     </g>
     <g id="line2d_26">
      <g>
       <use style="stroke:#000000;stroke-width:0.5;" x="528.12" xlink:href="#mcb0005524f" y="115.128"/>
      </g>
     </g>
     <g id="text_13">
      <!-- 80000 -->
      <defs>
       <path d="
M31.7812 34.625
Q24.75 34.625 20.7188 30.8594
Q16.7031 27.0938 16.7031 20.5156
Q16.7031 13.9219 20.7188 10.1562
Q24.75 6.39062 31.7812 6.39062
Q38.8125 6.39062 42.8594 10.1719
Q46.9219 13.9688 46.9219 20.5156
Q46.9219 27.0938 42.8906 30.8594
Q38.875 34.625 31.7812 34.625
M21.9219 38.8125
Q15.5781 40.375 12.0312 44.7188
Q8.5 49.0781 8.5 55.3281
Q8.5 64.0625 14.7188 69.1406
Q20.9531 74.2188 31.7812 74.2188
Q42.6719 74.2188 48.875 69.1406
Q55.0781 64.0625 55.0781 55.3281
Q55.0781 49.0781 51.5312 44.7188
Q48 40.375 41.7031 38.8125
Q48.8281 37.1562 52.7969 32.3125
Q56.7812 27.4844 56.7812 20.5156
Q56.7812 9.90625 50.3125 4.23438
Q43.8438 -1.42188 31.7812 -1.42188
Q19.7344 -1.42188 13.25 4.23438
Q6.78125 9.90625 6.78125 20.5156
Q6.78125 27.4844 10.7812 32.3125
Q14.7969 37.1562 21.9219 38.8125
M18.3125 54.3906
Q18.3125 48.7344 21.8438 45.5625
Q25.3906 42.3906 31.7812 42.3906
Q38.1406 42.3906 41.7188 45.5625
Q45.3125 48.7344 45.3125 54.3906
Q45.3125 60.0625 41.7188 63.2344
Q38.1406 66.4062 31.7812 66.4062
Q25.3906 66.4062 21.8438 63.2344
Q18.3125 60.0625 18.3125 54.3906" id="BitstreamVeraSans-Roman-38"/>
      </defs>
      <g transform="translate(47.455625 118.43925)scale(0.12 -0.12)">
       <use xlink:href="#BitstreamVeraSans-Roman-38"/>
       <use x="63.623046875" xlink:href="#BitstreamVeraSans-Roman-30"/>
       <use x="127.24609375" xlink:href="#BitstreamVeraSans-Roman-30"/>
       <use x="190.869140625" xlink:href="#BitstreamVeraSans-Roman-30"/>
       <use x="254.4921875" xlink:href="#BitstreamVeraSans-Roman-30"/>
      </g>
     </g>
    </g>
    <g id="ytick_6">
     <g id="line2d_27">
      <g>
       <use style="stroke:#000000;stroke-width:0.5;" x="88.02" xlink:href="#m728421d6d4" y="44.28"/>
      </g>
     </g>
     <g id="line2d_28">
      <g>
       <use style="stroke:#000000;stroke-width:0.5;" x="528.12" xlink:href="#mcb0005524f" y="44.28"/>
      </g>
     </g>
     <g id="text_14">
      <!-- 100000 -->
      <g transform="translate(40.325 47.59125)scale(0.12 -0.12)">
       <use xlink:href="#BitstreamVeraSans-Roman-31"/>
       <use x="63.623046875" xlink:href="#BitstreamVeraSans-Roman-30"/>
       <use x="127.24609375" xlink:href="#BitstreamVeraSans-Roman-30"/>
       <use x="190.869140625" xlink:href="#BitstreamVeraSans-Roman-30"/>
       <use x="254.4921875" xlink:href="#BitstreamVeraSans-Roman-30"/>
       <use x="318.115234375" xlink:href="#BitstreamVeraSans-Roman-30"/>
      </g>
     </g>
    </g>
    <g id="text_15">
     <!-- index -->
     <defs>
      <path d="
M52.4844 5.17188
L61.0781 5.17188
L61.0781 0
L43.5 0
L43.5 8.10938
Q40.875 3.21875 36.7969 0.890625
Q32.7188 -1.42188 26.7031 -1.42188
Q17.1406 -1.42188 11.0625 6.17188
Q4.98438 13.7656 4.98438 25.9844
Q4.98438 38.1875 11.0312 45.75
Q17.0938 53.3281 26.7031 53.3281
Q32.7188 53.3281 36.7969 51
Q40.875 48.6875 43.5 43.7969
L43.5 70.7969
L35.0156 70.7969
L35.0156 75.9844
L52.4844 75.9844
z

M43.5 23.3906
L43.5 28.5156
Q43.5 37.8438 39.9062 42.7656
Q36.3281 47.7031 29.5 47.7031
Q22.5625 47.7031 19.0156 42.2344
Q15.4844 36.7656 15.4844 25.9844
Q15.4844 15.2344 19.0156 9.71875
Q22.5625 4.20312 29.5 4.20312
Q36.3281 4.20312 39.9062 9.10938
Q43.5 14.0156 43.5 23.3906" id="BitstreamVeraSerif-Roman-64"/>
      <path d="
M4.10938 0
L4.10938 5.17188
L12.2031 5.17188
L12.2031 46.6875
L3.60938 46.6875
L3.60938 51.9062
L21.1875 51.9062
L21.1875 42.6719
Q23.6875 47.9531 27.6562 50.6406
Q31.6406 53.3281 36.9219 53.3281
Q45.5156 53.3281 49.5625 48.3906
Q53.6094 43.4531 53.6094 33.0156
L53.6094 5.17188
L61.625 5.17188
L61.625 0
L36.8125 0
L36.8125 5.17188
L44.5781 5.17188
L44.5781 30.1719
Q44.5781 39.7031 42.2344 43.2344
Q39.8906 46.7812 33.9844 46.7812
Q27.7344 46.7812 24.4531 42.2031
Q21.1875 37.6406 21.1875 28.9062
L21.1875 5.17188
L29 5.17188
L29 0
z
" id="BitstreamVeraSerif-Roman-6e"/>
      <path d="
M29.1094 31.6875
L39.9844 46.6875
L33.0156 46.6875
L33.0156 51.9062
L52.9844 51.9062
L52.9844 46.6875
L46.0938 46.6875
L32.1719 27.4844
L48.3906 5.17188
L55.1719 5.17188
L55.1719 0
L31.2031 0
L31.2031 5.17188
L37.7969 5.17188
L26.5156 20.7031
L15.1875 5.17188
L21.9219 5.17188
L21.9219 0
L2.20312 0
L2.20312 5.17188
L9.07812 5.17188
L23.3906 24.9062
L7.625 46.6875
L1.21875 46.6875
L1.21875 51.9062
L24.4219 51.9062
L24.4219 46.6875
L18.2188 46.6875
z
" id="BitstreamVeraSerif-Roman-78"/>
     </defs>
     <g style="fill:#8b0000;" transform="translate(31.9975 243.0925)rotate(-90.0)scale(0.16 -0.16)">
      <use xlink:href="#BitstreamVeraSerif-Roman-69"/>
      <use x="31.982421875" xlink:href="#BitstreamVeraSerif-Roman-6e"/>
      <use x="96.38671875" xlink:href="#BitstreamVeraSerif-Roman-64"/>
      <use x="160.400390625" xlink:href="#BitstreamVeraSerif-Roman-65"/>
      <use x="219.580078125" xlink:href="#BitstreamVeraSerif-Roman-78"/>
     </g>
    </g>
   </g>
   <g id="patch_3">
    <path d="
M88.02 44.28
L528.12 44.28" style="fill:none;stroke:#000000;"/>
   </g>
   <g id="patch_4">
    <path d="
M528.12 398.52
L528.12 44.28" style="fill:none;stroke:#000000;"/>
   </g>
   <g id="patch_5">
    <path d="
M88.02 398.52
L528.12 398.52" style="fill:none;stroke:#000000;"/>
   </g>
   <g id="patch_6">
    <path d="
M88.02 398.52
L88.02 44.28" style="fill:none;stroke:#000000;"/>
   </g>
   <g id="text_16">
    <!-- Insertion benchmark between InnoDB and MyISAM for 100000 values -->
    <defs>
     <path d="
M48 51.9062
L61.2812 11.375
L73 46.6875
L65.4844 46.6875
L65.4844 51.9062
L84.2812 51.9062
L84.2812 46.6875
L78.5156 46.6875
L63.0938 0
L55.6094 0
L42.8281 38.8125
L29.9844 0
L22.7969 0
L7.42188 46.6875
L1.60938 46.6875
L1.60938 51.9062
L25.0938 51.9062
L25.0938 46.6875
L16.7031 46.6875
L28.3281 11.375
L41.7031 51.9062
z
" id="BitstreamVeraSerif-Roman-77"/>
     <path d="
M24.7031 0
L5.60938 46.6875
L-0.296875 46.6875
L-0.296875 51.9062
L23.5781 51.9062
L23.5781 46.6875
L15.2812 46.6875
L29.8906 10.9844
L44.4844 46.6875
L36.7188 46.6875
L36.7188 51.9062
L56.2031 51.9062
L56.2031 46.6875
L50.3906 46.6875
L31.2969 0
z
" id="BitstreamVeraSerif-Roman-76"/>
     <path d="
M43.0156 63.7188
L38.2812 63.7188
Q38.2344 67.3906 36.2031 69.2812
Q34.1875 71.1875 30.3281 71.1875
Q25.2969 71.1875 23.2344 68.4219
Q21.1875 65.6719 21.1875 58.5938
L21.1875 51.9062
L35.6875 51.9062
L35.6875 46.6875
L21.1875 46.6875
L21.1875 5.17188
L32.7188 5.17188
L32.7188 0
L3.60938 0
L3.60938 5.17188
L12.2031 5.17188
L12.2031 46.6875
L3.60938 46.6875
L3.60938 51.9062
L12.2031 51.9062
L12.2031 58.4062
Q12.2031 67.0938 16.7188 71.5312
Q21.2344 75.9844 29.9844 75.9844
Q33.25 75.9844 36.5156 75.3906
Q39.7969 74.8125 43.0156 73.5781
z
" id="BitstreamVeraSerif-Roman-66"/>
     <path d="
M47.7969 52
L47.7969 39.0156
L42.625 39.0156
Q42.3906 42.875 40.4844 44.7812
Q38.5781 46.6875 34.9062 46.6875
Q28.2656 46.6875 24.7188 42.0938
Q21.1875 37.5 21.1875 28.9062
L21.1875 5.17188
L31.5938 5.17188
L31.5938 0
L4.10938 0
L4.10938 5.17188
L12.2031 5.17188
L12.2031 46.7812
L3.60938 46.7812
L3.60938 51.9062
L21.1875 51.9062
L21.1875 42.6719
Q23.8281 48.0938 27.9688 50.7031
Q32.125 53.3281 38.0938 53.3281
Q40.2812 53.3281 42.7031 52.9844
Q45.125 52.6406 47.7969 52" id="BitstreamVeraSerif-Roman-72"/>
     <path d="
M11.5312 5.17188
L11.5312 70.7969
L2.875 70.7969
L2.875 75.9844
L20.5156 75.9844
L20.5156 43.7969
Q23.1406 48.6875 27.2188 51
Q31.2969 53.3281 37.3125 53.3281
Q46.875 53.3281 52.9219 45.75
Q58.9844 38.1875 58.9844 25.9844
Q58.9844 13.7656 52.9219 6.17188
Q46.875 -1.42188 37.3125 -1.42188
Q31.2969 -1.42188 27.2188 0.890625
Q23.1406 3.21875 20.5156 8.10938
L20.5156 0
L2.875 0
L2.875 5.17188
z

M20.5156 23.3906
Q20.5156 14.0156 24.0938 9.10938
Q27.6875 4.20312 34.5156 4.20312
Q41.4062 4.20312 44.9375 9.71875
Q48.4844 15.2344 48.4844 25.9844
Q48.4844 36.7656 44.9375 42.2344
Q41.4062 47.7031 34.5156 47.7031
Q27.6875 47.7031 24.0938 42.7656
Q20.5156 37.8438 20.5156 28.5156
z
" id="BitstreamVeraSerif-Roman-62"/>
     <path d="
M51.4219 15.5781
Q49.5156 7.28125 44.0938 2.92188
Q38.6719 -1.42188 30.0781 -1.42188
Q18.75 -1.42188 11.8594 6.07812
Q4.98438 13.5781 4.98438 25.9844
Q4.98438 38.4219 11.8594 45.875
Q18.75 53.3281 30.0781 53.3281
Q35.0156 53.3281 39.8906 52.1719
Q44.7812 51.0312 49.7031 48.6875
L49.7031 35.4062
L44.4844 35.4062
Q43.4531 42.2344 40.0156 45.3594
Q36.5781 48.4844 30.1719 48.4844
Q22.9062 48.4844 19.1875 42.8438
Q15.4844 37.2031 15.4844 25.9844
Q15.4844 14.75 19.1719 9.07812
Q22.8594 3.42188 30.1719 3.42188
Q35.9844 3.42188 39.4531 6.4375
Q42.9219 9.46875 44.1875 15.5781
z
" id="BitstreamVeraSerif-Roman-63"/>
     <path d="
M5.51562 0
L5.51562 5.17188
L14.7969 5.17188
L14.7969 67.6719
L4.98438 67.6719
L4.98438 72.9062
L26.2188 72.9062
L51.8125 21
L77.3906 72.9062
L97.3125 72.9062
L97.3125 67.6719
L87.5938 67.6719
L87.5938 5.17188
L96.9219 5.17188
L96.9219 0
L68.4062 0
L68.4062 5.17188
L77.6875 5.17188
L77.6875 61.5312
L52.6875 10.6875
L45.7969 10.6875
L20.7969 61.5312
L20.7969 5.17188
L30.0781 5.17188
L30.0781 0
z
" id="BitstreamVeraSerif-Roman-4d"/>
     <path d="
M31.7812 3.42188
Q39.2656 3.42188 42.9688 11.625
Q46.6875 19.8281 46.6875 36.375
Q46.6875 52.9844 42.9688 61.1875
Q39.2656 69.3906 31.7812 69.3906
Q24.3125 69.3906 20.5938 61.1875
Q16.8906 52.9844 16.8906 36.375
Q16.8906 19.8281 20.5938 11.625
Q24.3125 3.42188 31.7812 3.42188
M31.7812 -1.42188
Q19.9219 -1.42188 13.25 8.53125
Q6.59375 18.5 6.59375 36.375
Q6.59375 54.2969 13.25 64.25
Q19.9219 74.2188 31.7812 74.2188
Q43.7031 74.2188 50.3438 64.25
Q56.9844 54.2969 56.9844 36.375
Q56.9844 18.5 50.3438 8.53125
Q43.7031 -1.42188 31.7812 -1.42188" id="BitstreamVeraSerif-Roman-30"/>
     <path d="
M4.10938 0
L4.10938 5.17188
L12.2031 5.17188
L12.2031 70.7969
L3.60938 70.7969
L3.60938 75.9844
L21.1875 75.9844
L21.1875 42.6719
Q23.6875 47.9531 27.6562 50.6406
Q31.6406 53.3281 36.9219 53.3281
Q45.5156 53.3281 49.5625 48.3906
Q53.6094 43.4531 53.6094 33.0156
L53.6094 5.17188
L61.625 5.17188
L61.625 0
L36.8125 0
L36.8125 5.17188
L44.5781 5.17188
L44.5781 30.1719
Q44.5781 39.7031 42.25 43.1875
Q39.9375 46.6875 33.9844 46.6875
Q27.7344 46.6875 24.4531 42.1406
Q21.1875 37.5938 21.1875 28.9062
L21.1875 5.17188
L29 5.17188
L29 0
z
" id="BitstreamVeraSerif-Roman-68"/>
     <path d="
M35.4062 51.9062
L52.2031 51.9062
L52.2031 5.17188
L60.6875 5.17188
L60.6875 0
L43.2188 0
L43.2188 9.1875
Q40.7188 4 36.7656 1.28125
Q32.8125 -1.42188 27.5938 -1.42188
Q18.9531 -1.42188 14.875 3.48438
Q10.7969 8.40625 10.7969 18.8906
L10.7969 46.6875
L2.6875 46.6875
L2.6875 51.9062
L19.8281 51.9062
L19.8281 21.6875
Q19.8281 12.2031 22.1406 8.6875
Q24.4688 5.17188 30.4219 5.17188
Q36.6719 5.17188 39.9375 9.76562
Q43.2188 14.3594 43.2188 23.0938
L43.2188 46.6875
L35.4062 46.6875
z
" id="BitstreamVeraSerif-Roman-75"/>
     <path d="
M21.5781 -9.51562
L25 -0.875
L5.60938 46.6875
L-0.296875 46.6875
L-0.296875 51.9062
L23.5781 51.9062
L23.5781 46.6875
L15.2812 46.6875
L29.8906 10.9844
L44.4844 46.6875
L36.7188 46.6875
L36.7188 51.9062
L56.2031 51.9062
L56.2031 46.6875
L50.3906 46.6875
L26.6094 -11.7188
Q24.1719 -17.7812 21.1875 -20
Q18.2188 -22.2188 12.7969 -22.2188
Q10.5 -22.2188 8.07812 -21.8281
Q5.67188 -21.4375 3.21875 -20.7031
L3.21875 -10.7969
L7.8125 -10.7969
Q8.10938 -14.1094 9.5 -15.5469
Q10.8906 -17 13.8125 -17
Q16.5 -17 18.1406 -15.5
Q19.7812 -14.0156 21.5781 -9.51562" id="BitstreamVeraSerif-Roman-79"/>
     <path d="
M30.0781 3.42188
Q37.3125 3.42188 40.9844 9.125
Q44.6719 14.8438 44.6719 25.9844
Q44.6719 37.1094 40.9844 42.7969
Q37.3125 48.4844 30.0781 48.4844
Q22.8594 48.4844 19.1719 42.7969
Q15.4844 37.1094 15.4844 25.9844
Q15.4844 14.8438 19.1875 9.125
Q22.9062 3.42188 30.0781 3.42188
M30.0781 -1.42188
Q18.75 -1.42188 11.8594 6.07812
Q4.98438 13.5781 4.98438 25.9844
Q4.98438 38.375 11.8438 45.8438
Q18.7031 53.3281 30.0781 53.3281
Q41.4531 53.3281 48.3125 45.8438
Q55.1719 38.375 55.1719 25.9844
Q55.1719 13.5781 48.3125 6.07812
Q41.4531 -1.42188 30.0781 -1.42188" id="BitstreamVeraSerif-Roman-6f"/>
     <path d="
M14.2031 0
L14.2031 5.17188
L26.9062 5.17188
L26.9062 65.8281
L12.2031 56.2969
L12.2031 62.7031
L29.9844 74.2188
L36.7188 74.2188
L36.7188 5.17188
L49.4219 5.17188
L49.4219 0
z
" id="BitstreamVeraSerif-Roman-31"/>
     <path d="
M20.5156 5.17188
L29 5.17188
L29 0
L2.875 0
L2.875 5.17188
L11.5312 5.17188
L11.5312 70.7969
L2.875 70.7969
L2.875 75.9844
L20.5156 75.9844
z
" id="BitstreamVeraSerif-Roman-6c"/>
     <path d="
M28.6094 0
L3.42188 0
L3.42188 5.17188
L11.5312 5.17188
L11.5312 70.7969
L2.875 70.7969
L2.875 75.9844
L20.5156 75.9844
L20.5156 26.5156
L42.3906 46.6875
L34.9062 46.6875
L34.9062 51.9062
L58.4062 51.9062
L58.4062 46.6875
L49.5156 46.6875
L34.0781 32.4219
L53.8125 5.17188
L61.2812 5.17188
L61.2812 0
L35.6875 0
L35.6875 5.17188
L43.1094 5.17188
L27.5938 26.5156
L20.5156 19.9219
L20.5156 5.17188
L28.6094 5.17188
z
" id="BitstreamVeraSerif-Roman-6b"/>
     <path d="
M24.7031 5.17188
L33.9844 5.17188
L33.9844 0
L5.51562 0
L5.51562 5.17188
L14.7969 5.17188
L14.7969 67.6719
L5.51562 67.6719
L5.51562 72.9062
L33.9844 72.9062
L33.9844 67.6719
L24.7031 67.6719
z
" id="BitstreamVeraSerif-Roman-49"/>
     <path d="
M24.7031 5.17188
L33.7969 5.17188
Q48 5.17188 55.5938 13.2812
Q63.1875 21.3906 63.1875 36.5312
Q63.1875 51.6562 55.6094 59.6562
Q48.0469 67.6719 33.7969 67.6719
L24.7031 67.6719
z

M5.51562 0
L5.51562 5.17188
L14.7969 5.17188
L14.7969 67.6719
L5.51562 67.6719
L5.51562 72.9062
L34.5156 72.9062
Q53.375 72.9062 63.8906 63.2812
Q74.4219 53.6562 74.4219 36.5312
Q74.4219 19.3438 63.875 9.67188
Q53.3281 0 34.5156 0
z
" id="BitstreamVeraSerif-Roman-44"/>
     <path d="
M20.0156 26.4219
L46.7812 26.4219
L33.4062 61.0781
z

M-0.59375 0
L-0.59375 5.17188
L5.8125 5.17188
L31.7812 72.9062
L39.9844 72.9062
L66.0156 5.17188
L73.1875 5.17188
L73.1875 0
L46.6875 0
L46.6875 5.17188
L54.7812 5.17188
L48.6875 21.1875
L18.0156 21.1875
L11.9219 5.17188
L19.9219 5.17188
L19.9219 0
z
" id="BitstreamVeraSerif-Roman-41"/>
     <path d="
M24.7031 5.17188
L39.3125 5.17188
Q48.0938 5.17188 52.1406 8.98438
Q56.2031 12.7969 56.2031 21.0938
Q56.2031 29.3438 52.1719 33.125
Q48.1406 36.9219 39.3125 36.9219
L24.7031 36.9219
z

M24.7031 42.0938
L37.1094 42.0938
Q45.125 42.0938 48.7969 45.1719
Q52.4844 48.25 52.4844 54.8906
Q52.4844 61.5781 48.7969 64.625
Q45.125 67.6719 37.1094 67.6719
L24.7031 67.6719
z

M5.51562 0
L5.51562 5.17188
L14.7969 5.17188
L14.7969 67.6719
L5.51562 67.6719
L5.51562 72.9062
L41.5 72.9062
Q52.5469 72.9062 58.125 68.3906
Q63.7188 63.875 63.7188 54.8906
Q63.7188 48.3906 59.8281 44.5312
Q55.9531 40.6719 48.4844 39.7969
Q57.7656 38.625 62.5781 33.8594
Q67.3906 29.1094 67.3906 21.0938
Q67.3906 10.25 60.5469 5.125
Q53.7188 0 39.2031 0
z
" id="BitstreamVeraSerif-Roman-42"/>
     <path d="
M9.28125 3.51562
L9.28125 20.125
L14.8906 20.0625
Q15.1406 11.7656 19.7031 7.78125
Q24.2656 3.8125 33.5938 3.8125
Q42.2812 3.8125 46.8438 7.25
Q51.4219 10.6875 51.4219 17.2812
Q51.4219 22.5625 48.6562 25.3906
Q45.9062 28.2188 37.0156 30.9062
L27.3906 33.7969
Q16.9375 36.9688 12.6719 41.7031
Q8.40625 46.4375 8.40625 54.6875
Q8.40625 63.9688 14.9844 69.0938
Q21.5781 74.2188 33.5 74.2188
Q38.5781 74.2188 44.625 73.1094
Q50.6875 72.0156 57.5156 69.9219
L57.5156 54.3906
L52 54.3906
Q51.1719 62.1094 46.8438 65.5469
Q42.5312 69 33.6875 69
Q25.9844 69 21.9531 65.8438
Q17.9219 62.7031 17.9219 56.6875
Q17.9219 51.4688 20.9375 48.4844
Q23.9688 45.5156 33.7969 42.5781
L42.8281 39.8906
Q52.7344 36.9219 56.9531 32.2969
Q61.1875 27.6875 61.1875 19.9219
Q61.1875 9.32812 54.3906 3.95312
Q47.6094 -1.42188 34.1875 -1.42188
Q28.1719 -1.42188 21.9375 -0.1875
Q15.7188 1.03125 9.28125 3.51562" id="BitstreamVeraSerif-Roman-53"/>
     <path d="
M39.7969 16.3125
L39.7969 27.2969
L28.2188 27.2969
Q21.5312 27.2969 18.25 24.4062
Q14.9844 21.5312 14.9844 15.5781
Q14.9844 10.1562 18.2969 6.98438
Q21.625 3.8125 27.2969 3.8125
Q32.9062 3.8125 36.3438 7.28125
Q39.7969 10.75 39.7969 16.3125
M48.7812 32.4219
L48.7812 5.17188
L56.7812 5.17188
L56.7812 0
L39.7969 0
L39.7969 5.60938
Q36.8125 2 32.9062 0.28125
Q29 -1.42188 23.7812 -1.42188
Q15.1406 -1.42188 10.0625 3.17188
Q4.98438 7.76562 4.98438 15.5781
Q4.98438 23.6406 10.7969 28.0781
Q16.6094 32.5156 27.2031 32.5156
L39.7969 32.5156
L39.7969 36.0781
Q39.7969 42 36.2031 45.2344
Q32.625 48.4844 26.125 48.4844
Q20.75 48.4844 17.5781 46.0469
Q14.4062 43.6094 13.625 38.8125
L8.98438 38.8125
L8.98438 49.3125
Q13.6719 51.3125 18.0938 52.3125
Q22.5156 53.3281 26.7031 53.3281
Q37.5 53.3281 43.1406 47.9688
Q48.7812 42.625 48.7812 32.4219" id="BitstreamVeraSerif-Roman-61"/>
    </defs>
    <g style="fill:#8b0000;" transform="translate(22.29125 39.28)scale(0.16 -0.16)">
     <use xlink:href="#BitstreamVeraSerif-Roman-49"/>
     <use x="39.501953125" xlink:href="#BitstreamVeraSerif-Roman-6e"/>
     <use x="103.90625" xlink:href="#BitstreamVeraSerif-Roman-73"/>
     <use x="155.224609375" xlink:href="#BitstreamVeraSerif-Roman-65"/>
     <use x="214.404296875" xlink:href="#BitstreamVeraSerif-Roman-72"/>
     <use x="262.20703125" xlink:href="#BitstreamVeraSerif-Roman-74"/>
     <use x="302.392578125" xlink:href="#BitstreamVeraSerif-Roman-69"/>
     <use x="334.375" xlink:href="#BitstreamVeraSerif-Roman-6f"/>
     <use x="394.580078125" xlink:href="#BitstreamVeraSerif-Roman-6e"/>
     <use x="458.984375" xlink:href="#BitstreamVeraSerif-Roman-20"/>
     <use x="490.771484375" xlink:href="#BitstreamVeraSerif-Roman-62"/>
     <use x="554.78515625" xlink:href="#BitstreamVeraSerif-Roman-65"/>
     <use x="613.96484375" xlink:href="#BitstreamVeraSerif-Roman-6e"/>
     <use x="678.369140625" xlink:href="#BitstreamVeraSerif-Roman-63"/>
     <use x="734.375" xlink:href="#BitstreamVeraSerif-Roman-68"/>
     <use x="798.779296875" xlink:href="#BitstreamVeraSerif-Roman-6d"/>
     <use x="893.603515625" xlink:href="#BitstreamVeraSerif-Roman-61"/>
     <use x="953.22265625" xlink:href="#BitstreamVeraSerif-Roman-72"/>
     <use x="1001.02539062" xlink:href="#BitstreamVeraSerif-Roman-6b"/>
     <use x="1061.62109375" xlink:href="#BitstreamVeraSerif-Roman-20"/>
     <use x="1093.40820312" xlink:href="#BitstreamVeraSerif-Roman-62"/>
     <use x="1157.421875" xlink:href="#BitstreamVeraSerif-Roman-65"/>
     <use x="1216.6015625" xlink:href="#BitstreamVeraSerif-Roman-74"/>
     <use x="1256.78710938" xlink:href="#BitstreamVeraSerif-Roman-77"/>
     <use x="1342.3828125" xlink:href="#BitstreamVeraSerif-Roman-65"/>
     <use x="1401.5625" xlink:href="#BitstreamVeraSerif-Roman-65"/>
     <use x="1460.7421875" xlink:href="#BitstreamVeraSerif-Roman-6e"/>
     <use x="1525.14648438" xlink:href="#BitstreamVeraSerif-Roman-20"/>
     <use x="1556.93359375" xlink:href="#BitstreamVeraSerif-Roman-49"/>
     <use x="1596.43554688" xlink:href="#BitstreamVeraSerif-Roman-6e"/>
     <use x="1660.83984375" xlink:href="#BitstreamVeraSerif-Roman-6e"/>
     <use x="1725.24414062" xlink:href="#BitstreamVeraSerif-Roman-6f"/>
     <use x="1785.44921875" xlink:href="#BitstreamVeraSerif-Roman-44"/>
     <use x="1865.625" xlink:href="#BitstreamVeraSerif-Roman-42"/>
     <use x="1939.11132812" xlink:href="#BitstreamVeraSerif-Roman-20"/>
     <use x="1970.8984375" xlink:href="#BitstreamVeraSerif-Roman-61"/>
     <use x="2030.51757812" xlink:href="#BitstreamVeraSerif-Roman-6e"/>
     <use x="2094.921875" xlink:href="#BitstreamVeraSerif-Roman-64"/>
     <use x="2158.93554688" xlink:href="#BitstreamVeraSerif-Roman-20"/>
     <use x="2190.72265625" xlink:href="#BitstreamVeraSerif-Roman-4d"/>
     <use x="2293.11523438" xlink:href="#BitstreamVeraSerif-Roman-79"/>
     <use x="2349.609375" xlink:href="#BitstreamVeraSerif-Roman-49"/>
     <use x="2389.11132812" xlink:href="#BitstreamVeraSerif-Roman-53"/>
     <use x="2457.6171875" xlink:href="#BitstreamVeraSerif-Roman-41"/>
     <use x="2529.83398438" xlink:href="#BitstreamVeraSerif-Roman-4d"/>
     <use x="2632.2265625" xlink:href="#BitstreamVeraSerif-Roman-20"/>
     <use x="2664.01367188" xlink:href="#BitstreamVeraSerif-Roman-66"/>
     <use x="2701.02539062" xlink:href="#BitstreamVeraSerif-Roman-6f"/>
     <use x="2761.23046875" xlink:href="#BitstreamVeraSerif-Roman-72"/>
     <use x="2809.03320312" xlink:href="#BitstreamVeraSerif-Roman-20"/>
     <use x="2840.8203125" xlink:href="#BitstreamVeraSerif-Roman-31"/>
     <use x="2904.44335938" xlink:href="#BitstreamVeraSerif-Roman-30"/>
     <use x="2968.06640625" xlink:href="#BitstreamVeraSerif-Roman-30"/>
     <use x="3031.68945312" xlink:href="#BitstreamVeraSerif-Roman-30"/>
     <use x="3095.3125" xlink:href="#BitstreamVeraSerif-Roman-30"/>
     <use x="3158.93554688" xlink:href="#BitstreamVeraSerif-Roman-30"/>
     <use x="3222.55859375" xlink:href="#BitstreamVeraSerif-Roman-20"/>
     <use x="3254.34570312" xlink:href="#BitstreamVeraSerif-Roman-76"/>
     <use x="3310.83984375" xlink:href="#BitstreamVeraSerif-Roman-61"/>
     <use x="3370.45898438" xlink:href="#BitstreamVeraSerif-Roman-6c"/>
     <use x="3402.44140625" xlink:href="#BitstreamVeraSerif-Roman-75"/>
     <use x="3466.84570312" xlink:href="#BitstreamVeraSerif-Roman-65"/>
     <use x="3526.02539062" xlink:href="#BitstreamVeraSerif-Roman-73"/>
    </g>
   </g>
   <g id="legend_1">
    <g id="patch_7">
     <path d="
M257.119 100.073
L363.022 100.073
L363.022 53.48
L257.119 53.48
L257.119 100.073
z
" style="fill:#4c4c4c;opacity:0.5;stroke:#4c4c4c;"/>
    </g>
    <g id="patch_8">
     <path d="
M255.119 98.073
L361.022 98.073
L361.022 51.48
L255.119 51.48
L255.119 98.073
z
" style="fill:#ffffff;stroke:#000000;"/>
    </g>
    <g id="line2d_29">
     <path d="
M265.199 63.1417
L285.359 63.1417" style="fill:none;stroke:#ff0000;stroke-linecap:square;stroke-width:2;"/>
    </g>
    <g id="line2d_30"/>
    <g id="text_17">
     <!-- InnoDB -->
     <defs>
      <path d="
M54.8906 33.0156
L54.8906 0
L45.9062 0
L45.9062 32.7188
Q45.9062 40.4844 42.875 44.3281
Q39.8438 48.1875 33.7969 48.1875
Q26.5156 48.1875 22.3125 43.5469
Q18.1094 38.9219 18.1094 30.9062
L18.1094 0
L9.07812 0
L9.07812 54.6875
L18.1094 54.6875
L18.1094 46.1875
Q21.3438 51.125 25.7031 53.5625
Q30.0781 56 35.7969 56
Q45.2188 56 50.0469 50.1719
Q54.8906 44.3438 54.8906 33.0156" id="BitstreamVeraSans-Roman-6e"/>
      <path d="
M19.6719 64.7969
L19.6719 8.10938
L31.5938 8.10938
Q46.6875 8.10938 53.6875 14.9375
Q60.6875 21.7812 60.6875 36.5312
Q60.6875 51.1719 53.6875 57.9844
Q46.6875 64.7969 31.5938 64.7969
z

M9.8125 72.9062
L30.0781 72.9062
Q51.2656 72.9062 61.1719 64.0938
Q71.0938 55.2812 71.0938 36.5312
Q71.0938 17.6719 61.125 8.82812
Q51.1719 0 30.0781 0
L9.8125 0
z
" id="BitstreamVeraSans-Roman-44"/>
      <path d="
M30.6094 48.3906
Q23.3906 48.3906 19.1875 42.75
Q14.9844 37.1094 14.9844 27.2969
Q14.9844 17.4844 19.1562 11.8438
Q23.3438 6.20312 30.6094 6.20312
Q37.7969 6.20312 41.9844 11.8594
Q46.1875 17.5312 46.1875 27.2969
Q46.1875 37.0156 41.9844 42.7031
Q37.7969 48.3906 30.6094 48.3906
M30.6094 56
Q42.3281 56 49.0156 48.375
Q55.7188 40.7656 55.7188 27.2969
Q55.7188 13.875 49.0156 6.21875
Q42.3281 -1.42188 30.6094 -1.42188
Q18.8438 -1.42188 12.1719 6.21875
Q5.51562 13.875 5.51562 27.2969
Q5.51562 40.7656 12.1719 48.375
Q18.8438 56 30.6094 56" id="BitstreamVeraSans-Roman-6f"/>
      <path d="
M19.6719 34.8125
L19.6719 8.10938
L35.5 8.10938
Q43.4531 8.10938 47.2812 11.4062
Q51.125 14.7031 51.125 21.4844
Q51.125 28.3281 47.2812 31.5625
Q43.4531 34.8125 35.5 34.8125
z

M19.6719 64.7969
L19.6719 42.8281
L34.2812 42.8281
Q41.5 42.8281 45.0312 45.5312
Q48.5781 48.25 48.5781 53.8125
Q48.5781 59.3281 45.0312 62.0625
Q41.5 64.7969 34.2812 64.7969
z

M9.8125 72.9062
L35.0156 72.9062
Q46.2969 72.9062 52.3906 68.2188
Q58.5 63.5312 58.5 54.8906
Q58.5 48.1875 55.375 44.2344
Q52.25 40.2812 46.1875 39.3125
Q53.4688 37.75 57.5 32.7812
Q61.5312 27.8281 61.5312 20.4062
Q61.5312 10.6406 54.8906 5.3125
Q48.25 0 35.9844 0
L9.8125 0
z
" id="BitstreamVeraSans-Roman-42"/>
      <path d="
M9.8125 72.9062
L19.6719 72.9062
L19.6719 0
L9.8125 0
z
" id="BitstreamVeraSans-Roman-49"/>
     </defs>
     <g transform="translate(301.1985 68.18175)scale(0.144 -0.144)">
      <use xlink:href="#BitstreamVeraSans-Roman-49"/>
      <use x="29.4921875" xlink:href="#BitstreamVeraSans-Roman-6e"/>
      <use x="92.87109375" xlink:href="#BitstreamVeraSans-Roman-6e"/>
      <use x="156.25" xlink:href="#BitstreamVeraSans-Roman-6f"/>
      <use x="217.431640625" xlink:href="#BitstreamVeraSans-Roman-44"/>
      <use x="294.43359375" xlink:href="#BitstreamVeraSans-Roman-42"/>
     </g>
    </g>
    <g id="line2d_31">
     <path d="
M265.199 84.2782
L285.359 84.2782" style="fill:none;stroke:#0000ff;stroke-linecap:square;stroke-width:2;"/>
    </g>
    <g id="line2d_32"/>
    <g id="text_18">
     <!-- MyISAM -->
     <defs>
      <path d="
M9.8125 72.9062
L24.5156 72.9062
L43.1094 23.2969
L61.8125 72.9062
L76.5156 72.9062
L76.5156 0
L66.8906 0
L66.8906 64.0156
L48.0938 14.0156
L38.1875 14.0156
L19.3906 64.0156
L19.3906 0
L9.8125 0
z
" id="BitstreamVeraSans-Roman-4d"/>
      <path d="
M34.1875 63.1875
L20.7969 26.9062
L47.6094 26.9062
z

M28.6094 72.9062
L39.7969 72.9062
L67.5781 0
L57.3281 0
L50.6875 18.7031
L17.8281 18.7031
L11.1875 0
L0.78125 0
z
" id="BitstreamVeraSans-Roman-41"/>
      <path d="
M53.5156 70.5156
L53.5156 60.8906
Q47.9062 63.5781 42.9219 64.8906
Q37.9375 66.2188 33.2969 66.2188
Q25.25 66.2188 20.875 63.0938
Q16.5 59.9688 16.5 54.2031
Q16.5 49.3594 19.4062 46.8906
Q22.3125 44.4375 30.4219 42.9219
L36.375 41.7031
Q47.4062 39.5938 52.6562 34.2969
Q57.9062 29 57.9062 20.125
Q57.9062 9.51562 50.7969 4.04688
Q43.7031 -1.42188 29.9844 -1.42188
Q24.8125 -1.42188 18.9688 -0.25
Q13.1406 0.921875 6.89062 3.21875
L6.89062 13.375
Q12.8906 10.0156 18.6562 8.29688
Q24.4219 6.59375 29.9844 6.59375
Q38.4219 6.59375 43.0156 9.90625
Q47.6094 13.2344 47.6094 19.3906
Q47.6094 24.75 44.3125 27.7812
Q41.0156 30.8125 33.5 32.3281
L27.4844 33.5
Q16.4531 35.6875 11.5156 40.375
Q6.59375 45.0625 6.59375 53.4219
Q6.59375 63.0938 13.4062 68.6562
Q20.2188 74.2188 32.1719 74.2188
Q37.3125 74.2188 42.625 73.2812
Q47.9531 72.3594 53.5156 70.5156" id="BitstreamVeraSans-Roman-53"/>
      <path d="
M32.1719 -5.07812
Q28.375 -14.8438 24.75 -17.8125
Q21.1406 -20.7969 15.0938 -20.7969
L7.90625 -20.7969
L7.90625 -13.2812
L13.1875 -13.2812
Q16.8906 -13.2812 18.9375 -11.5156
Q21 -9.76562 23.4844 -3.21875
L25.0938 0.875
L2.98438 54.6875
L12.5 54.6875
L29.5938 11.9219
L46.6875 54.6875
L56.2031 54.6875
z
" id="BitstreamVeraSans-Roman-79"/>
     </defs>
     <g transform="translate(301.1985 89.31825)scale(0.144 -0.144)">
      <use xlink:href="#BitstreamVeraSans-Roman-4d"/>
      <use x="86.279296875" xlink:href="#BitstreamVeraSans-Roman-79"/>
      <use x="145.458984375" xlink:href="#BitstreamVeraSans-Roman-49"/>
      <use x="174.951171875" xlink:href="#BitstreamVeraSans-Roman-53"/>
      <use x="240.302734375" xlink:href="#BitstreamVeraSans-Roman-41"/>
      <use x="308.7109375" xlink:href="#BitstreamVeraSans-Roman-4d"/>
     </g>
    </g>
   </g>
  </g>
 </g>
 <defs>
  <clipPath id="p646b2a54c1">
   <rect height="354.24" width="440.1" x="88.02" y="44.28"/>
  </clipPath>
 </defs>
</svg>
