<?xml version="1.0" encoding="UTF-8" standalone="no"?>
<!DOCTYPE svg PUBLIC "-//W3C//DTD SVG 1.1//EN"
 "http://www.w3.org/Graphics/SVG/1.1/DTD/svg11.dtd">
<!-- Generated by graphviz version 2.36.0 (20140111.2315)
 -->
<!-- Title: %3 Pages: 1 -->
<svg width="486pt" height="428pt"
 viewBox="0.00 0.00 486.00 428.00" xmlns="http://www.w3.org/2000/svg" xmlns:xlink="http://www.w3.org/1999/xlink">
<g id="graph0" class="graph" transform="scale(1 1) rotate(0) translate(4 424)">
<title>%3</title>
<polygon fill="white" stroke="none" points="-4,4 -4,-424 482,-424 482,4 -4,4"/>
<!-- 1 -->
<g id="node1" class="node"><title>1</title>
<polygon fill="#fa2201" stroke="#fa2201" points="228,-236 148,-236 148,-184 228,-184 228,-236"/>
<text text-anchor="middle" x="188" y="-224" font-family="Arial" font-size="10.00" fill="#ffffff">Queue:107:put</text>
<text text-anchor="middle" x="188" y="-213" font-family="Arial" font-size="10.00" fill="#ffffff">96.66%</text>
<text text-anchor="middle" x="188" y="-202" font-family="Arial" font-size="10.00" fill="#ffffff">(0.04%)</text>
<text text-anchor="middle" x="188" y="-191" font-family="Arial" font-size="10.00" fill="#ffffff">52×</text>
</g>
<!-- 2 -->
<g id="node2" class="node"><title>2</title>
<polygon fill="#fa2301" stroke="#fa2301" points="235.25,-144 140.75,-144 140.75,-92 235.25,-92 235.25,-144"/>
<text text-anchor="middle" x="188" y="-132" font-family="Arial" font-size="10.00" fill="#ffffff">threading:308:wait</text>
<text text-anchor="middle" x="188" y="-121" font-family="Arial" font-size="10.00" fill="#ffffff">96.57%</text>
<text text-anchor="middle" x="188" y="-110" font-family="Arial" font-size="10.00" fill="#ffffff">(0.14%)</text>
<text text-anchor="middle" x="188" y="-99" font-family="Arial" font-size="10.00" fill="#ffffff">30×</text>
</g>
<!-- 1&#45;&gt;2 -->
<g id="edge1" class="edge"><title>1&#45;&gt;2</title>
<path fill="none" stroke="#fa2301" stroke-width="3.86" d="M188,-183.93C188,-174.743 188,-164.166 188,-154.253"/>
<polygon fill="#fa2301" stroke="#fa2301" stroke-width="3.86" points="191.43,-154.048 188,-144.248 184.57,-154.048 191.43,-154.048"/>
<text text-anchor="middle" x="205" y="-167" font-family="Arial" font-size="10.00" fill="#fa2301">96.57%</text>
<text text-anchor="middle" x="205" y="-156" font-family="Arial" font-size="10.00" fill="#fa2301">30×</text>
</g>
<!-- 4 -->
<g id="node3" class="node"><title>4</title>
<polygon fill="#0d1876" stroke="#0d1876" points="214.25,-52 -0.25,-52 -0.25,-0 214.25,-0 214.25,-52"/>
<text text-anchor="middle" x="107" y="-40" font-family="Arial" font-size="10.00" fill="#ffffff">~:0:&lt;method &#39;acquire&#39; of &#39;thread.lock&#39; objects&gt;</text>
<text text-anchor="middle" x="107" y="-29" font-family="Arial" font-size="10.00" fill="#ffffff">2.77%</text>
<text text-anchor="middle" x="107" y="-18" font-family="Arial" font-size="10.00" fill="#ffffff">(2.77%)</text>
<text text-anchor="middle" x="107" y="-7" font-family="Arial" font-size="10.00" fill="#ffffff">601×</text>
</g>
<!-- 2&#45;&gt;4 -->
<g id="edge2" class="edge"><title>2&#45;&gt;4</title>
<path fill="none" stroke="#0d1876" stroke-width="0.5" d="M165.437,-91.93C155.079,-80.4215 142.76,-66.7335 132.109,-54.8993"/>
<polygon fill="#0d1876" stroke="#0d1876" stroke-width="0.5" points="132.975,-54.0298 129.723,-52.2477 131.154,-55.6688 132.975,-54.0298"/>
<text text-anchor="middle" x="172" y="-75" font-family="Arial" font-size="10.00" fill="#0d1876">2.75%</text>
<text text-anchor="middle" x="172" y="-64" font-family="Arial" font-size="10.00" fill="#0d1876">437×</text>
</g>
<!-- 23 -->
<g id="node4" class="node"><title>23</title>
<polygon fill="#f54002" stroke="#f54002" points="314.25,-52 223.75,-52 223.75,-0 314.25,-0 314.25,-52"/>
<text text-anchor="middle" x="269" y="-40" font-family="Arial" font-size="10.00" fill="#ffffff">~:0:&lt;time.sleep&gt;</text>
<text text-anchor="middle" x="269" y="-29" font-family="Arial" font-size="10.00" fill="#ffffff">93.58%</text>
<text text-anchor="middle" x="269" y="-18" font-family="Arial" font-size="10.00" fill="#ffffff">(93.58%)</text>
<text text-anchor="middle" x="269" y="-7" font-family="Arial" font-size="10.00" fill="#ffffff">377×</text>
</g>
<!-- 2&#45;&gt;23 -->
<g id="edge3" class="edge"><title>2&#45;&gt;23</title>
<path fill="none" stroke="#f54002" stroke-width="3.74" d="M210.563,-91.93C219.528,-81.9688 229.963,-70.3749 239.513,-59.7635"/>
<polygon fill="#f54002" stroke="#f54002" stroke-width="3.74" points="242.312,-61.7288 246.277,-52.2477 237.265,-57.1865 242.312,-61.7288"/>
<text text-anchor="middle" x="256" y="-75" font-family="Arial" font-size="10.00" fill="#f54002">93.58%</text>
<text text-anchor="middle" x="256" y="-64" font-family="Arial" font-size="10.00" fill="#f54002">377×</text>
</g>
<!-- 9 -->
<g id="node5" class="node"><title>9</title>
<polygon fill="#0d1876" stroke="#0d1876" points="172,-328 56,-328 56,-276 172,-276 172,-328"/>
<text text-anchor="middle" x="114" y="-316" font-family="Arial" font-size="10.00" fill="#ffffff">AbstractFS:39:setEOF</text>
<text text-anchor="middle" x="114" y="-305" font-family="Arial" font-size="10.00" fill="#ffffff">2.71%</text>
<text text-anchor="middle" x="114" y="-294" font-family="Arial" font-size="10.00" fill="#ffffff">(0.00%)</text>
<text text-anchor="middle" x="114" y="-283" font-family="Arial" font-size="10.00" fill="#ffffff">1×</text>
</g>
<!-- 9&#45;&gt;1 -->
<g id="edge4" class="edge"><title>9&#45;&gt;1</title>
<path fill="none" stroke="#0d1876" stroke-width="0.5" d="M134.613,-275.93C143.996,-264.518 155.141,-250.963 164.815,-239.198"/>
<polygon fill="#0d1876" stroke="#0d1876" stroke-width="0.5" points="165.964,-239.729 167.241,-236.248 164.072,-238.173 165.964,-239.729"/>
<text text-anchor="middle" x="174" y="-259" font-family="Arial" font-size="10.00" fill="#0d1876">2.71%</text>
<text text-anchor="middle" x="174" y="-248" font-family="Arial" font-size="10.00" fill="#0d1876">1×</text>
</g>
<!-- 10 -->
<g id="node6" class="node"><title>10</title>
<polygon fill="#ff0000" stroke="#ff0000" points="288,-420 196,-420 196,-368 288,-368 288,-420"/>
<text text-anchor="middle" x="242" y="-408" font-family="Arial" font-size="10.00" fill="#ffffff">Local_Fs:137:get</text>
<text text-anchor="middle" x="242" y="-397" font-family="Arial" font-size="10.00" fill="#ffffff">100.00%</text>
<text text-anchor="middle" x="242" y="-386" font-family="Arial" font-size="10.00" fill="#ffffff">(0.02%)</text>
<text text-anchor="middle" x="242" y="-375" font-family="Arial" font-size="10.00" fill="#ffffff">1×</text>
</g>
<!-- 10&#45;&gt;9 -->
<g id="edge5" class="edge"><title>10&#45;&gt;9</title>
<path fill="none" stroke="#0d1876" stroke-width="0.5" d="M206.345,-367.93C189.702,-356.228 169.855,-342.273 152.833,-330.304"/>
<polygon fill="#0d1876" stroke="#0d1876" stroke-width="0.5" points="153.476,-329.259 149.908,-328.248 152.066,-331.263 153.476,-329.259"/>
<text text-anchor="middle" x="208" y="-351" font-family="Arial" font-size="10.00" fill="#0d1876">2.71%</text>
<text text-anchor="middle" x="208" y="-340" font-family="Arial" font-size="10.00" fill="#0d1876">1×</text>
</g>
<!-- 16 -->
<g id="node7" class="node"><title>16</title>
<polygon fill="#f63d01" stroke="#f63d01" points="303,-328 181,-328 181,-276 303,-276 303,-328"/>
<text text-anchor="middle" x="242" y="-316" font-family="Arial" font-size="10.00" fill="#ffffff">AbstractFS:33:add_task</text>
<text text-anchor="middle" x="242" y="-305" font-family="Arial" font-size="10.00" fill="#ffffff">93.96%</text>
<text text-anchor="middle" x="242" y="-294" font-family="Arial" font-size="10.00" fill="#ffffff">(0.01%)</text>
<text text-anchor="middle" x="242" y="-283" font-family="Arial" font-size="10.00" fill="#ffffff">51×</text>
</g>
<!-- 10&#45;&gt;16 -->
<g id="edge6" class="edge"><title>10&#45;&gt;16</title>
<path fill="none" stroke="#f63d01" stroke-width="3.76" d="M242,-367.93C242,-358.743 242,-348.166 242,-338.253"/>
<polygon fill="#f63d01" stroke="#f63d01" stroke-width="3.76" points="245.395,-337.948 242,-328.248 238.605,-337.948 245.395,-337.948"/>
<text text-anchor="middle" x="259" y="-351" font-family="Arial" font-size="10.00" fill="#f63d01">93.96%</text>
<text text-anchor="middle" x="259" y="-340" font-family="Arial" font-size="10.00" fill="#f63d01">51×</text>
</g>
<!-- 17 -->
<g id="node8" class="node"><title>17</title>
<polygon fill="#0d1b77" stroke="#0d1b77" points="478,-328 312,-328 312,-276 478,-276 478,-328"/>
<text text-anchor="middle" x="395" y="-316" font-family="Arial" font-size="10.00" fill="#ffffff">~:0:&lt;method &#39;read&#39; of &#39;file&#39; objects&gt;</text>
<text text-anchor="middle" x="395" y="-305" font-family="Arial" font-size="10.00" fill="#ffffff">3.26%</text>
<text text-anchor="middle" x="395" y="-294" font-family="Arial" font-size="10.00" fill="#ffffff">(3.26%)</text>
<text text-anchor="middle" x="395" y="-283" font-family="Arial" font-size="10.00" fill="#ffffff">51×</text>
</g>
<!-- 10&#45;&gt;17 -->
<g id="edge7" class="edge"><title>10&#45;&gt;17</title>
<path fill="none" stroke="#0d1b77" stroke-width="0.5" d="M284.619,-367.93C304.678,-356.13 328.633,-342.04 349.092,-330.005"/>
<polygon fill="#0d1b77" stroke="#0d1b77" stroke-width="0.5" points="349.949,-330.922 352.344,-328.092 348.707,-328.81 349.949,-330.922"/>
<text text-anchor="middle" x="350" y="-351" font-family="Arial" font-size="10.00" fill="#0d1b77">3.26%</text>
<text text-anchor="middle" x="350" y="-340" font-family="Arial" font-size="10.00" fill="#0d1b77">51×</text>
</g>
<!-- 16&#45;&gt;1 -->
<g id="edge8" class="edge"><title>16&#45;&gt;1</title>
<path fill="none" stroke="#f63d01" stroke-width="3.76" d="M226.958,-275.93C221.155,-266.259 214.429,-255.049 208.216,-244.693"/>
<polygon fill="#f63d01" stroke="#f63d01" stroke-width="3.76" points="211.05,-242.819 203.149,-236.248 205.228,-246.312 211.05,-242.819"/>
<text text-anchor="middle" x="239" y="-259" font-family="Arial" font-size="10.00" fill="#f63d01">93.95%</text>
<text text-anchor="middle" x="239" y="-248" font-family="Arial" font-size="10.00" fill="#f63d01">51×</text>
</g>
</g>
</svg>
