<?xml version="1.0" encoding="UTF-8" standalone="no"?>
<!DOCTYPE svg PUBLIC "-//W3C//DTD SVG 1.1//EN"
 "http://www.w3.org/Graphics/SVG/1.1/DTD/svg11.dtd">
<!-- Generated by graphviz version 2.36.0 (20140111.2315)
 -->
<!-- Title: %3 Pages: 1 -->
<svg width="456pt" height="704pt"
 viewBox="0.00 0.00 456.00 704.00" xmlns="http://www.w3.org/2000/svg" xmlns:xlink="http://www.w3.org/1999/xlink">
<g id="graph0" class="graph" transform="scale(1 1) rotate(0) translate(4 700)">
<title>%3</title>
<polygon fill="white" stroke="none" points="-4,4 -4,-700 452,-700 452,4 -4,4"/>
<!-- 0 -->
<g id="node1" class="node"><title>0</title>
<polygon fill="#0d1174" stroke="#0d1174" points="86,-236 0,-236 0,-184 86,-184 86,-236"/>
<text text-anchor="middle" x="43" y="-224" font-family="Arial" font-size="10.00" fill="#ffffff">~:0:&lt;time.time&gt;</text>
<text text-anchor="middle" x="43" y="-213" font-family="Arial" font-size="10.00" fill="#ffffff">0.96%</text>
<text text-anchor="middle" x="43" y="-202" font-family="Arial" font-size="10.00" fill="#ffffff">(0.96%)</text>
<text text-anchor="middle" x="43" y="-191" font-family="Arial" font-size="10.00" fill="#ffffff">17007×</text>
</g>
<!-- 1 -->
<g id="node2" class="node"><title>1</title>
<polygon fill="#0c5987" stroke="#0c5987" points="205,-328 125,-328 125,-276 205,-276 205,-328"/>
<text text-anchor="middle" x="165" y="-316" font-family="Arial" font-size="10.00" fill="#ffffff">Queue:107:put</text>
<text text-anchor="middle" x="165" y="-305" font-family="Arial" font-size="10.00" fill="#ffffff">15.55%</text>
<text text-anchor="middle" x="165" y="-294" font-family="Arial" font-size="10.00" fill="#ffffff">(2.92%)</text>
<text text-anchor="middle" x="165" y="-283" font-family="Arial" font-size="10.00" fill="#ffffff">17008×</text>
</g>
<!-- 1&#45;&gt;0 -->
<g id="edge1" class="edge"><title>1&#45;&gt;0</title>
<path fill="none" stroke="#0d1174" stroke-width="0.5" d="M124.871,-297.029C103.022,-292.868 77.0479,-284.365 60,-267 52.8365,-259.703 48.6779,-249.489 46.2689,-239.779"/>
<polygon fill="#0d1174" stroke="#0d1174" stroke-width="0.5" points="47.432,-239.369 45.4581,-236.23 45.0436,-239.915 47.432,-239.369"/>
<text text-anchor="middle" x="76.5" y="-259" font-family="Arial" font-size="10.00" fill="#0d1174">0.96%</text>
<text text-anchor="middle" x="76.5" y="-248" font-family="Arial" font-size="10.00" fill="#0d1174">17007×</text>
</g>
<!-- 9 -->
<g id="node3" class="node"><title>9</title>
<polygon fill="#0d2f7d" stroke="#0d2f7d" points="230.25,-52 15.75,-52 15.75,-0 230.25,-0 230.25,-52"/>
<text text-anchor="middle" x="123" y="-40" font-family="Arial" font-size="10.00" fill="#ffffff">~:0:&lt;method &#39;acquire&#39; of &#39;thread.lock&#39; objects&gt;</text>
<text text-anchor="middle" x="123" y="-29" font-family="Arial" font-size="10.00" fill="#ffffff">7.68%</text>
<text text-anchor="middle" x="123" y="-18" font-family="Arial" font-size="10.00" fill="#ffffff">(7.68%)</text>
<text text-anchor="middle" x="123" y="-7" font-family="Arial" font-size="10.00" fill="#ffffff">34016×</text>
</g>
<!-- 1&#45;&gt;9 -->
<g id="edge2" class="edge"><title>1&#45;&gt;9</title>
<path fill="none" stroke="#0d287b" stroke-width="0.5" d="M136.695,-275.946C126.232,-264.867 115.573,-250.961 110,-236 87.2274,-174.863 102.77,-96.7378 114.1,-55.4843"/>
<polygon fill="#0d287b" stroke="#0d287b" stroke-width="0.5" points="115.286,-55.7941 115.045,-52.0937 112.926,-55.1365 115.286,-55.7941"/>
<text text-anchor="middle" x="115.5" y="-167" font-family="Arial" font-size="10.00" fill="#0d287b">6.18%</text>
<text text-anchor="middle" x="115.5" y="-156" font-family="Arial" font-size="10.00" fill="#0d287b">17008×</text>
</g>
<!-- 16 -->
<g id="node4" class="node"><title>16</title>
<polygon fill="#0d1d78" stroke="#0d1d78" points="215.25,-236 114.75,-236 114.75,-184 215.25,-184 215.25,-236"/>
<text text-anchor="middle" x="165" y="-224" font-family="Arial" font-size="10.00" fill="#ffffff">threading:372:notify</text>
<text text-anchor="middle" x="165" y="-213" font-family="Arial" font-size="10.00" fill="#ffffff">3.78%</text>
<text text-anchor="middle" x="165" y="-202" font-family="Arial" font-size="10.00" fill="#ffffff">(1.28%)</text>
<text text-anchor="middle" x="165" y="-191" font-family="Arial" font-size="10.00" fill="#ffffff">17008×</text>
</g>
<!-- 1&#45;&gt;16 -->
<g id="edge3" class="edge"><title>1&#45;&gt;16</title>
<path fill="none" stroke="#0d1d78" stroke-width="0.5" d="M165,-275.93C165,-264.712 165,-251.422 165,-239.798"/>
<polygon fill="#0d1d78" stroke="#0d1d78" stroke-width="0.5" points="166.225,-239.748 165,-236.248 163.775,-239.748 166.225,-239.748"/>
<text text-anchor="middle" x="181.5" y="-259" font-family="Arial" font-size="10.00" fill="#0d1d78">3.78%</text>
<text text-anchor="middle" x="181.5" y="-248" font-family="Arial" font-size="10.00" fill="#0d1d78">17008×</text>
</g>
<!-- 19 -->
<g id="node5" class="node"><title>19</title>
<polygon fill="#0d1074" stroke="#0d1074" points="319.25,-236 224.75,-236 224.75,-184 319.25,-184 319.25,-236"/>
<text text-anchor="middle" x="272" y="-224" font-family="Arial" font-size="10.00" fill="#ffffff">Queue:200:_qsize</text>
<text text-anchor="middle" x="272" y="-213" font-family="Arial" font-size="10.00" fill="#ffffff">0.69%</text>
<text text-anchor="middle" x="272" y="-202" font-family="Arial" font-size="10.00" fill="#ffffff">(0.47%)</text>
<text text-anchor="middle" x="272" y="-191" font-family="Arial" font-size="10.00" fill="#ffffff">17008×</text>
</g>
<!-- 1&#45;&gt;19 -->
<g id="edge4" class="edge"><title>1&#45;&gt;19</title>
<path fill="none" stroke="#0d1074" stroke-width="0.5" d="M194.805,-275.93C208.603,-264.325 225.035,-250.503 239.185,-238.601"/>
<polygon fill="#0d1074" stroke="#0d1074" stroke-width="0.5" points="240.093,-239.438 241.983,-236.248 238.516,-237.563 240.093,-239.438"/>
<text text-anchor="middle" x="248.5" y="-259" font-family="Arial" font-size="10.00" fill="#0d1074">0.69%</text>
<text text-anchor="middle" x="248.5" y="-248" font-family="Arial" font-size="10.00" fill="#0d1074">17008×</text>
</g>
<!-- 47 -->
<g id="node6" class="node"><title>47</title>
<polygon fill="#0d1074" stroke="#0d1074" points="415,-236 329,-236 329,-184 415,-184 415,-236"/>
<text text-anchor="middle" x="372" y="-224" font-family="Arial" font-size="10.00" fill="#ffffff">Queue:204:_put</text>
<text text-anchor="middle" x="372" y="-213" font-family="Arial" font-size="10.00" fill="#ffffff">0.75%</text>
<text text-anchor="middle" x="372" y="-202" font-family="Arial" font-size="10.00" fill="#ffffff">(0.54%)</text>
<text text-anchor="middle" x="372" y="-191" font-family="Arial" font-size="10.00" fill="#ffffff">17008×</text>
</g>
<!-- 1&#45;&gt;47 -->
<g id="edge5" class="edge"><title>1&#45;&gt;47</title>
<path fill="none" stroke="#0d1074" stroke-width="0.5" d="M205.302,-289.286C224.298,-283.331 247.106,-275.549 267,-267 286.738,-258.518 307.765,-247.688 325.777,-237.816"/>
<polygon fill="#0d1074" stroke="#0d1074" stroke-width="0.5" points="326.397,-238.873 328.872,-236.113 325.215,-236.727 326.397,-238.873"/>
<text text-anchor="middle" x="328.5" y="-259" font-family="Arial" font-size="10.00" fill="#0d1074">0.75%</text>
<text text-anchor="middle" x="328.5" y="-248" font-family="Arial" font-size="10.00" fill="#0d1074">17008×</text>
</g>
<!-- 10 -->
<g id="node9" class="node"><title>10</title>
<polygon fill="#0d1675" stroke="#0d1675" points="238,-144 114,-144 114,-92 238,-92 238,-144"/>
<text text-anchor="middle" x="176" y="-132" font-family="Arial" font-size="10.00" fill="#ffffff">threading:299:_is_owned</text>
<text text-anchor="middle" x="176" y="-121" font-family="Arial" font-size="10.00" fill="#ffffff">2.13%</text>
<text text-anchor="middle" x="176" y="-110" font-family="Arial" font-size="10.00" fill="#ffffff">(0.63%)</text>
<text text-anchor="middle" x="176" y="-99" font-family="Arial" font-size="10.00" fill="#ffffff">17008×</text>
</g>
<!-- 16&#45;&gt;10 -->
<g id="edge8" class="edge"><title>16&#45;&gt;10</title>
<path fill="none" stroke="#0d1675" stroke-width="0.5" d="M168.064,-183.93C169.435,-172.712 171.059,-159.422 172.48,-147.798"/>
<polygon fill="#0d1675" stroke="#0d1675" stroke-width="0.5" points="173.705,-147.871 172.914,-144.248 171.274,-147.573 173.705,-147.871"/>
<text text-anchor="middle" x="188.5" y="-167" font-family="Arial" font-size="10.00" fill="#0d1675">2.13%</text>
<text text-anchor="middle" x="188.5" y="-156" font-family="Arial" font-size="10.00" fill="#0d1675">17008×</text>
</g>
<!-- 8 -->
<g id="node7" class="node"><title>8</title>
<polygon fill="#ff0000" stroke="#ff0000" points="337,-696 251,-696 251,-644 337,-644 337,-696"/>
<text text-anchor="middle" x="294" y="-684" font-family="Arial" font-size="10.00" fill="#ffffff">FTP_Fs:158:get</text>
<text text-anchor="middle" x="294" y="-673" font-family="Arial" font-size="10.00" fill="#ffffff">100.00%</text>
<text text-anchor="middle" x="294" y="-662" font-family="Arial" font-size="10.00" fill="#ffffff">(0.00%)</text>
<text text-anchor="middle" x="294" y="-651" font-family="Arial" font-size="10.00" fill="#ffffff">1×</text>
</g>
<!-- 21 -->
<g id="node8" class="node"><title>21</title>
<polygon fill="#ff0000" stroke="#ff0000" points="343.25,-604 244.75,-604 244.75,-552 343.25,-552 343.25,-604"/>
<text text-anchor="middle" x="294" y="-592" font-family="Arial" font-size="10.00" fill="#ffffff">ftplib:395:retrbinary</text>
<text text-anchor="middle" x="294" y="-581" font-family="Arial" font-size="10.00" fill="#ffffff">99.96%</text>
<text text-anchor="middle" x="294" y="-570" font-family="Arial" font-size="10.00" fill="#ffffff">(1.19%)</text>
<text text-anchor="middle" x="294" y="-559" font-family="Arial" font-size="10.00" fill="#ffffff">1×</text>
</g>
<!-- 8&#45;&gt;21 -->
<g id="edge6" class="edge"><title>8&#45;&gt;21</title>
<path fill="none" stroke="#ff0000" stroke-width="4" d="M294,-643.93C294,-634.743 294,-624.166 294,-614.253"/>
<polygon fill="#ff0000" stroke="#ff0000" stroke-width="4" points="297.5,-614.248 294,-604.248 290.5,-614.248 297.5,-614.248"/>
<text text-anchor="middle" x="311" y="-627" font-family="Arial" font-size="10.00" fill="#ff0000">99.96%</text>
<text text-anchor="middle" x="311" y="-616" font-family="Arial" font-size="10.00" fill="#ff0000">1×</text>
</g>
<!-- 29 -->
<g id="node10" class="node"><title>29</title>
<polygon fill="#0c6389" stroke="#0c6389" points="219.25,-512 110.75,-512 110.75,-460 219.25,-460 219.25,-512"/>
<text text-anchor="middle" x="165" y="-500" font-family="Arial" font-size="10.00" fill="#ffffff">FTP_Fs:174:callback</text>
<text text-anchor="middle" x="165" y="-489" font-family="Arial" font-size="10.00" fill="#ffffff">17.26%</text>
<text text-anchor="middle" x="165" y="-478" font-family="Arial" font-size="10.00" fill="#ffffff">(0.83%)</text>
<text text-anchor="middle" x="165" y="-467" font-family="Arial" font-size="10.00" fill="#ffffff">17007×</text>
</g>
<!-- 21&#45;&gt;29 -->
<g id="edge9" class="edge"><title>21&#45;&gt;29</title>
<path fill="none" stroke="#0c6389" stroke-width="0.69" d="M258.066,-551.93C241.571,-540.421 221.951,-526.734 204.989,-514.899"/>
<polygon fill="#0c6389" stroke="#0c6389" stroke-width="0.69" points="205.474,-513.445 201.188,-512.248 203.792,-515.857 205.474,-513.445"/>
<text text-anchor="middle" x="262" y="-535" font-family="Arial" font-size="10.00" fill="#0c6389">17.26%</text>
<text text-anchor="middle" x="262" y="-524" font-family="Arial" font-size="10.00" fill="#0c6389">17007×</text>
</g>
<!-- 40 -->
<g id="node11" class="node"><title>40</title>
<polygon fill="#e3a904" stroke="#e3a904" points="447.25,-512 228.75,-512 228.75,-460 447.25,-460 447.25,-512"/>
<text text-anchor="middle" x="338" y="-500" font-family="Arial" font-size="10.00" fill="#ffffff">~:0:&lt;method &#39;recv&#39; of &#39;_socket.socket&#39; objects&gt;</text>
<text text-anchor="middle" x="338" y="-489" font-family="Arial" font-size="10.00" fill="#ffffff">81.47%</text>
<text text-anchor="middle" x="338" y="-478" font-family="Arial" font-size="10.00" fill="#ffffff">(81.47%)</text>
<text text-anchor="middle" x="338" y="-467" font-family="Arial" font-size="10.00" fill="#ffffff">17013×</text>
</g>
<!-- 21&#45;&gt;40 -->
<g id="edge10" class="edge"><title>21&#45;&gt;40</title>
<path fill="none" stroke="#e3ab04" stroke-width="3.25" d="M306.256,-551.93C311.032,-542.162 316.575,-530.825 321.68,-520.383"/>
<polygon fill="#e3ab04" stroke="#e3ab04" stroke-width="3.25" points="324.534,-521.717 325.657,-512.248 318.874,-518.95 324.534,-521.717"/>
<text text-anchor="middle" x="339" y="-535" font-family="Arial" font-size="10.00" fill="#e3ab04">81.23%</text>
<text text-anchor="middle" x="339" y="-524" font-family="Arial" font-size="10.00" fill="#e3ab04">17008×</text>
</g>
<!-- 10&#45;&gt;9 -->
<g id="edge7" class="edge"><title>10&#45;&gt;9</title>
<path fill="none" stroke="#0d1375" stroke-width="0.5" d="M161.237,-91.93C154.573,-80.6149 146.669,-67.193 139.782,-55.4975"/>
<polygon fill="#0d1375" stroke="#0d1375" stroke-width="0.5" points="140.7,-54.642 137.868,-52.2477 138.589,-55.8853 140.7,-54.642"/>
<text text-anchor="middle" x="172.5" y="-75" font-family="Arial" font-size="10.00" fill="#0d1375">1.50%</text>
<text text-anchor="middle" x="172.5" y="-64" font-family="Arial" font-size="10.00" fill="#0d1375">17008×</text>
</g>
<!-- 35 -->
<g id="node12" class="node"><title>35</title>
<polygon fill="#0c5e88" stroke="#0c5e88" points="226,-420 104,-420 104,-368 226,-368 226,-420"/>
<text text-anchor="middle" x="165" y="-408" font-family="Arial" font-size="10.00" fill="#ffffff">AbstractFS:33:add_task</text>
<text text-anchor="middle" x="165" y="-397" font-family="Arial" font-size="10.00" fill="#ffffff">16.43%</text>
<text text-anchor="middle" x="165" y="-386" font-family="Arial" font-size="10.00" fill="#ffffff">(0.88%)</text>
<text text-anchor="middle" x="165" y="-375" font-family="Arial" font-size="10.00" fill="#ffffff">17007×</text>
</g>
<!-- 29&#45;&gt;35 -->
<g id="edge11" class="edge"><title>29&#45;&gt;35</title>
<path fill="none" stroke="#0c5e88" stroke-width="0.66" d="M165,-459.93C165,-448.905 165,-435.88 165,-424.4"/>
<polygon fill="#0c5e88" stroke="#0c5e88" stroke-width="0.66" points="166.435,-424.348 165,-420.248 163.565,-424.348 166.435,-424.348"/>
<text text-anchor="middle" x="182" y="-443" font-family="Arial" font-size="10.00" fill="#0c5e88">16.43%</text>
<text text-anchor="middle" x="182" y="-432" font-family="Arial" font-size="10.00" fill="#0c5e88">17007×</text>
</g>
<!-- 35&#45;&gt;1 -->
<g id="edge12" class="edge"><title>35&#45;&gt;1</title>
<path fill="none" stroke="#0c5987" stroke-width="0.62" d="M165,-367.93C165,-356.905 165,-343.88 165,-332.4"/>
<polygon fill="#0c5987" stroke="#0c5987" stroke-width="0.62" points="166.365,-332.148 165,-328.248 163.635,-332.148 166.365,-332.148"/>
<text text-anchor="middle" x="182" y="-351" font-family="Arial" font-size="10.00" fill="#0c5987">15.55%</text>
<text text-anchor="middle" x="182" y="-340" font-family="Arial" font-size="10.00" fill="#0c5987">17007×</text>
</g>
</g>
</svg>
