<?xml version="1.0" encoding="UTF-8" standalone="no"?>
<!DOCTYPE svg PUBLIC "-//W3C//DTD SVG 1.1//EN"
 "http://www.w3.org/Graphics/SVG/1.1/DTD/svg11.dtd">
<!-- Generated by graphviz version 2.36.0 (20140111.2315)
 -->
<!-- Title: %3 Pages: 1 -->
<svg width="404pt" height="704pt"
 viewBox="0.00 0.00 404.00 704.00" xmlns="http://www.w3.org/2000/svg" xmlns:xlink="http://www.w3.org/1999/xlink">
<g id="graph0" class="graph" transform="scale(1 1) rotate(0) translate(4 700)">
<title>%3</title>
<polygon fill="white" stroke="none" points="-4,4 -4,-700 400,-700 400,4 -4,4"/>
<!-- 3 -->
<g id="node1" class="node"><title>3</title>
<polygon fill="#ff0100" stroke="#ff0100" points="232.25,-604 131.75,-604 131.75,-552 232.25,-552 232.25,-604"/>
<text text-anchor="middle" x="182" y="-592" font-family="Arial" font-size="10.00" fill="#ffffff">ftplib:449:storbinary</text>
<text text-anchor="middle" x="182" y="-581" font-family="Arial" font-size="10.00" fill="#ffffff">99.88%</text>
<text text-anchor="middle" x="182" y="-570" font-family="Arial" font-size="10.00" fill="#ffffff">(0.06%)</text>
<text text-anchor="middle" x="182" y="-559" font-family="Arial" font-size="10.00" fill="#ffffff">1×</text>
</g>
<!-- 5 -->
<g id="node2" class="node"><title>5</title>
<polygon fill="#0d1575" stroke="#0d1575" points="176,-512 82,-512 82,-460 176,-460 176,-512"/>
<text text-anchor="middle" x="129" y="-500" font-family="Arial" font-size="10.00" fill="#ffffff">ftplib:223:voidresp</text>
<text text-anchor="middle" x="129" y="-489" font-family="Arial" font-size="10.00" fill="#ffffff">1.91%</text>
<text text-anchor="middle" x="129" y="-478" font-family="Arial" font-size="10.00" fill="#ffffff">(0.00%)</text>
<text text-anchor="middle" x="129" y="-467" font-family="Arial" font-size="10.00" fill="#ffffff">3×</text>
</g>
<!-- 3&#45;&gt;5 -->
<g id="edge1" class="edge"><title>3&#45;&gt;5</title>
<path fill="none" stroke="#0d1475" stroke-width="0.5" d="M167.237,-551.93C160.573,-540.615 152.669,-527.193 145.782,-515.497"/>
<polygon fill="#0d1475" stroke="#0d1475" stroke-width="0.5" points="146.7,-514.642 143.868,-512.248 144.589,-515.885 146.7,-514.642"/>
<text text-anchor="middle" x="176" y="-535" font-family="Arial" font-size="10.00" fill="#0d1475">1.75%</text>
<text text-anchor="middle" x="176" y="-524" font-family="Arial" font-size="10.00" fill="#0d1475">1×</text>
</g>
<!-- 13 -->
<g id="node3" class="node"><title>13</title>
<polygon fill="#fc1601" stroke="#fc1601" points="316.25,-512 227.75,-512 227.75,-460 316.25,-460 316.25,-512"/>
<text text-anchor="middle" x="272" y="-500" font-family="Arial" font-size="10.00" fill="#ffffff">socket:223:meth</text>
<text text-anchor="middle" x="272" y="-489" font-family="Arial" font-size="10.00" fill="#ffffff">97.86%</text>
<text text-anchor="middle" x="272" y="-478" font-family="Arial" font-size="10.00" fill="#ffffff">(0.00%)</text>
<text text-anchor="middle" x="272" y="-467" font-family="Arial" font-size="10.00" fill="#ffffff">56×</text>
</g>
<!-- 3&#45;&gt;13 -->
<g id="edge2" class="edge"><title>3&#45;&gt;13</title>
<path fill="none" stroke="#fc1601" stroke-width="3.91" d="M207.07,-551.93C217.128,-541.872 228.85,-530.15 239.545,-519.455"/>
<polygon fill="#fc1601" stroke="#fc1601" stroke-width="3.91" points="242.202,-521.698 246.752,-512.248 237.302,-516.798 242.202,-521.698"/>
<text text-anchor="middle" x="254" y="-535" font-family="Arial" font-size="10.00" fill="#fc1601">97.83%</text>
<text text-anchor="middle" x="254" y="-524" font-family="Arial" font-size="10.00" fill="#fc1601">50×</text>
</g>
<!-- 4 -->
<g id="node4" class="node"><title>4</title>
<polygon fill="#0d1575" stroke="#0d1575" points="154.25,-420 63.75,-420 63.75,-368 154.25,-368 154.25,-420"/>
<text text-anchor="middle" x="109" y="-408" font-family="Arial" font-size="10.00" fill="#ffffff">ftplib:210:getresp</text>
<text text-anchor="middle" x="109" y="-397" font-family="Arial" font-size="10.00" fill="#ffffff">2.01%</text>
<text text-anchor="middle" x="109" y="-386" font-family="Arial" font-size="10.00" fill="#ffffff">(0.00%)</text>
<text text-anchor="middle" x="109" y="-375" font-family="Arial" font-size="10.00" fill="#ffffff">5×</text>
</g>
<!-- 5&#45;&gt;4 -->
<g id="edge4" class="edge"><title>5&#45;&gt;4</title>
<path fill="none" stroke="#0d1575" stroke-width="0.5" d="M123.429,-459.93C120.936,-448.712 117.983,-435.422 115.4,-423.798"/>
<polygon fill="#0d1575" stroke="#0d1575" stroke-width="0.5" points="116.566,-423.399 114.611,-420.248 114.174,-423.93 116.566,-423.399"/>
<text text-anchor="middle" x="136" y="-443" font-family="Arial" font-size="10.00" fill="#0d1575">1.91%</text>
<text text-anchor="middle" x="136" y="-432" font-family="Arial" font-size="10.00" fill="#0d1575">3×</text>
</g>
<!-- 12 -->
<g id="node7" class="node"><title>12</title>
<polygon fill="#fc1601" stroke="#fc1601" points="396.25,-420 163.75,-420 163.75,-368 396.25,-368 396.25,-420"/>
<text text-anchor="middle" x="280" y="-408" font-family="Arial" font-size="10.00" fill="#ffffff">~:0:&lt;method &#39;sendall&#39; of &#39;_socket.socket&#39; objects&gt;</text>
<text text-anchor="middle" x="280" y="-397" font-family="Arial" font-size="10.00" fill="#ffffff">97.82%</text>
<text text-anchor="middle" x="280" y="-386" font-family="Arial" font-size="10.00" fill="#ffffff">(97.82%)</text>
<text text-anchor="middle" x="280" y="-375" font-family="Arial" font-size="10.00" fill="#ffffff">54×</text>
</g>
<!-- 13&#45;&gt;12 -->
<g id="edge6" class="edge"><title>13&#45;&gt;12</title>
<path fill="none" stroke="#fc1601" stroke-width="3.91" d="M274.228,-459.93C275.045,-450.743 275.985,-440.166 276.866,-430.253"/>
<polygon fill="#fc1601" stroke="#fc1601" stroke-width="3.91" points="280.331,-430.416 277.756,-420.248 273.428,-429.802 280.331,-430.416"/>
<text text-anchor="middle" x="293" y="-443" font-family="Arial" font-size="10.00" fill="#fc1601">97.82%</text>
<text text-anchor="middle" x="293" y="-432" font-family="Arial" font-size="10.00" fill="#fc1601">54×</text>
</g>
<!-- 11 -->
<g id="node5" class="node"><title>11</title>
<polygon fill="#0d1575" stroke="#0d1575" points="163,-328 55,-328 55,-276 163,-276 163,-328"/>
<text text-anchor="middle" x="109" y="-316" font-family="Arial" font-size="10.00" fill="#ffffff">ftplib:196:getmultiline</text>
<text text-anchor="middle" x="109" y="-305" font-family="Arial" font-size="10.00" fill="#ffffff">2.01%</text>
<text text-anchor="middle" x="109" y="-294" font-family="Arial" font-size="10.00" fill="#ffffff">(0.00%)</text>
<text text-anchor="middle" x="109" y="-283" font-family="Arial" font-size="10.00" fill="#ffffff">5×</text>
</g>
<!-- 4&#45;&gt;11 -->
<g id="edge3" class="edge"><title>4&#45;&gt;11</title>
<path fill="none" stroke="#0d1575" stroke-width="0.5" d="M109,-367.93C109,-356.712 109,-343.422 109,-331.798"/>
<polygon fill="#0d1575" stroke="#0d1575" stroke-width="0.5" points="110.225,-331.748 109,-328.248 107.775,-331.748 110.225,-331.748"/>
<text text-anchor="middle" x="123" y="-351" font-family="Arial" font-size="10.00" fill="#0d1575">2.01%</text>
<text text-anchor="middle" x="123" y="-340" font-family="Arial" font-size="10.00" fill="#0d1575">5×</text>
</g>
<!-- 51 -->
<g id="node6" class="node"><title>51</title>
<polygon fill="#0d1575" stroke="#0d1575" points="152.25,-236 65.75,-236 65.75,-184 152.25,-184 152.25,-236"/>
<text text-anchor="middle" x="109" y="-224" font-family="Arial" font-size="10.00" fill="#ffffff">ftplib:182:getline</text>
<text text-anchor="middle" x="109" y="-213" font-family="Arial" font-size="10.00" fill="#ffffff">2.01%</text>
<text text-anchor="middle" x="109" y="-202" font-family="Arial" font-size="10.00" fill="#ffffff">(0.00%)</text>
<text text-anchor="middle" x="109" y="-191" font-family="Arial" font-size="10.00" fill="#ffffff">5×</text>
</g>
<!-- 11&#45;&gt;51 -->
<g id="edge5" class="edge"><title>11&#45;&gt;51</title>
<path fill="none" stroke="#0d1575" stroke-width="0.5" d="M109,-275.93C109,-264.712 109,-251.422 109,-239.798"/>
<polygon fill="#0d1575" stroke="#0d1575" stroke-width="0.5" points="110.225,-239.748 109,-236.248 107.775,-239.748 110.225,-239.748"/>
<text text-anchor="middle" x="123" y="-259" font-family="Arial" font-size="10.00" fill="#0d1575">2.01%</text>
<text text-anchor="middle" x="123" y="-248" font-family="Arial" font-size="10.00" fill="#0d1575">5×</text>
</g>
<!-- 24 -->
<g id="node9" class="node"><title>24</title>
<polygon fill="#0d1575" stroke="#0d1575" points="159.25,-144 58.75,-144 58.75,-92 159.25,-92 159.25,-144"/>
<text text-anchor="middle" x="109" y="-132" font-family="Arial" font-size="10.00" fill="#ffffff">socket:406:readline</text>
<text text-anchor="middle" x="109" y="-121" font-family="Arial" font-size="10.00" fill="#ffffff">2.01%</text>
<text text-anchor="middle" x="109" y="-110" font-family="Arial" font-size="10.00" fill="#ffffff">(0.00%)</text>
<text text-anchor="middle" x="109" y="-99" font-family="Arial" font-size="10.00" fill="#ffffff">5×</text>
</g>
<!-- 51&#45;&gt;24 -->
<g id="edge9" class="edge"><title>51&#45;&gt;24</title>
<path fill="none" stroke="#0d1575" stroke-width="0.5" d="M109,-183.93C109,-172.712 109,-159.422 109,-147.798"/>
<polygon fill="#0d1575" stroke="#0d1575" stroke-width="0.5" points="110.225,-147.748 109,-144.248 107.775,-147.748 110.225,-147.748"/>
<text text-anchor="middle" x="123" y="-167" font-family="Arial" font-size="10.00" fill="#0d1575">2.01%</text>
<text text-anchor="middle" x="123" y="-156" font-family="Arial" font-size="10.00" fill="#0d1575">5×</text>
</g>
<!-- 14 -->
<g id="node8" class="node"><title>14</title>
<polygon fill="#ff0000" stroke="#ff0000" points="225,-696 139,-696 139,-644 225,-644 225,-696"/>
<text text-anchor="middle" x="182" y="-684" font-family="Arial" font-size="10.00" fill="#ffffff">FTP_Fs:133:put</text>
<text text-anchor="middle" x="182" y="-673" font-family="Arial" font-size="10.00" fill="#ffffff">100.00%</text>
<text text-anchor="middle" x="182" y="-662" font-family="Arial" font-size="10.00" fill="#ffffff">(0.00%)</text>
<text text-anchor="middle" x="182" y="-651" font-family="Arial" font-size="10.00" fill="#ffffff">1×</text>
</g>
<!-- 14&#45;&gt;3 -->
<g id="edge7" class="edge"><title>14&#45;&gt;3</title>
<path fill="none" stroke="#ff0100" stroke-width="4" d="M182,-643.93C182,-634.743 182,-624.166 182,-614.253"/>
<polygon fill="#ff0100" stroke="#ff0100" stroke-width="4" points="185.5,-614.248 182,-604.248 178.5,-614.248 185.5,-614.248"/>
<text text-anchor="middle" x="199" y="-627" font-family="Arial" font-size="10.00" fill="#ff0100">99.88%</text>
<text text-anchor="middle" x="199" y="-616" font-family="Arial" font-size="10.00" fill="#ff0100">1×</text>
</g>
<!-- 73 -->
<g id="node10" class="node"><title>73</title>
<polygon fill="#0d1575" stroke="#0d1575" points="218.25,-52 -0.25,-52 -0.25,-0 218.25,-0 218.25,-52"/>
<text text-anchor="middle" x="109" y="-40" font-family="Arial" font-size="10.00" fill="#ffffff">~:0:&lt;method &#39;recv&#39; of &#39;_socket.socket&#39; objects&gt;</text>
<text text-anchor="middle" x="109" y="-29" font-family="Arial" font-size="10.00" fill="#ffffff">2.00%</text>
<text text-anchor="middle" x="109" y="-18" font-family="Arial" font-size="10.00" fill="#ffffff">(2.00%)</text>
<text text-anchor="middle" x="109" y="-7" font-family="Arial" font-size="10.00" fill="#ffffff">5×</text>
</g>
<!-- 24&#45;&gt;73 -->
<g id="edge8" class="edge"><title>24&#45;&gt;73</title>
<path fill="none" stroke="#0d1575" stroke-width="0.5" d="M109,-91.93C109,-80.7116 109,-67.4223 109,-55.7978"/>
<polygon fill="#0d1575" stroke="#0d1575" stroke-width="0.5" points="110.225,-55.7477 109,-52.2477 107.775,-55.7478 110.225,-55.7477"/>
<text text-anchor="middle" x="123" y="-75" font-family="Arial" font-size="10.00" fill="#0d1575">2.00%</text>
<text text-anchor="middle" x="123" y="-64" font-family="Arial" font-size="10.00" fill="#0d1575">5×</text>
</g>
</g>
</svg>
