<?xml version="1.0" encoding="UTF-8" standalone="no"?>
<!DOCTYPE svg PUBLIC "-//W3C//DTD SVG 1.1//EN"
 "http://www.w3.org/Graphics/SVG/1.1/DTD/svg11.dtd">
<!-- Generated by graphviz version 2.36.0 (20140111.2315)
 -->
<!-- Title: %3 Pages: 1 -->
<svg width="1037pt" height="520pt"
 viewBox="0.00 0.00 1037.48 520.00" xmlns="http://www.w3.org/2000/svg" xmlns:xlink="http://www.w3.org/1999/xlink">
<g id="graph0" class="graph" transform="scale(1 1) rotate(0) translate(4 516)">
<title>%3</title>
<polygon fill="white" stroke="none" points="-4,4 -4,-516 1033.48,-516 1033.48,4 -4,4"/>
<!-- 0 -->
<g id="node1" class="node"><title>0</title>
<polygon fill="#0d1375" stroke="#0d1375" points="411.484,-144 325.484,-144 325.484,-92 411.484,-92 411.484,-144"/>
<text text-anchor="middle" x="368.484" y="-132" font-family="Arial" font-size="10.00" fill="#ffffff">~:0:&lt;time.time&gt;</text>
<text text-anchor="middle" x="368.484" y="-121" font-family="Arial" font-size="10.00" fill="#ffffff">1.58%</text>
<text text-anchor="middle" x="368.484" y="-110" font-family="Arial" font-size="10.00" fill="#ffffff">(1.58%)</text>
<text text-anchor="middle" x="368.484" y="-99" font-family="Arial" font-size="10.00" fill="#ffffff">34673×</text>
</g>
<!-- 1 -->
<g id="node2" class="node"><title>1</title>
<polygon fill="#b2d406" stroke="#b2d406" points="282.734,-236 188.234,-236 188.234,-184 282.734,-184 282.734,-236"/>
<text text-anchor="middle" x="235.484" y="-224" font-family="Arial" font-size="10.00" fill="#ffffff">threading:308:wait</text>
<text text-anchor="middle" x="235.484" y="-213" font-family="Arial" font-size="10.00" fill="#ffffff">70.94%</text>
<text text-anchor="middle" x="235.484" y="-202" font-family="Arial" font-size="10.00" fill="#ffffff">(2.05%)</text>
<text text-anchor="middle" x="235.484" y="-191" font-family="Arial" font-size="10.00" fill="#ffffff">4885×</text>
</g>
<!-- 1&#45;&gt;0 -->
<g id="edge1" class="edge"><title>1&#45;&gt;0</title>
<path fill="none" stroke="#0d0f73" stroke-width="0.5" d="M249.509,-183.807C257.446,-169.947 266.389,-155.124 269.484,-153 288.098,-140.221 298.086,-151.208 319.484,-144 320.196,-143.76 320.911,-143.511 321.628,-143.254"/>
<polygon fill="#0d0f73" stroke="#0d0f73" stroke-width="0.5" points="322.377,-144.281 325.223,-141.904 321.516,-141.988 322.377,-144.281"/>
<text text-anchor="middle" x="285.984" y="-167" font-family="Arial" font-size="10.00" fill="#0d0f73">0.56%</text>
<text text-anchor="middle" x="285.984" y="-156" font-family="Arial" font-size="10.00" fill="#0d0f73">12780×</text>
</g>
<!-- 4 -->
<g id="node3" class="node"><title>4</title>
<polygon fill="#0d3b80" stroke="#0d3b80" points="289.734,-52 75.2335,-52 75.2335,-0 289.734,-0 289.734,-52"/>
<text text-anchor="middle" x="182.484" y="-40" font-family="Arial" font-size="10.00" fill="#ffffff">~:0:&lt;method &#39;acquire&#39; of &#39;thread.lock&#39; objects&gt;</text>
<text text-anchor="middle" x="182.484" y="-29" font-family="Arial" font-size="10.00" fill="#ffffff">10.14%</text>
<text text-anchor="middle" x="182.484" y="-18" font-family="Arial" font-size="10.00" fill="#ffffff">(10.14%)</text>
<text text-anchor="middle" x="182.484" y="-7" font-family="Arial" font-size="10.00" fill="#ffffff">83522×</text>
</g>
<!-- 1&#45;&gt;4 -->
<g id="edge2" class="edge"><title>1&#45;&gt;4</title>
<path fill="none" stroke="#0d1575" stroke-width="0.5" d="M211.467,-183.888C202.205,-172.598 192.621,-158.551 187.484,-144 177.355,-115.312 177.359,-80.1856 179.111,-55.95"/>
<polygon fill="#0d1575" stroke="#0d1575" stroke-width="0.5" points="180.332,-56.0393 179.381,-52.4553 177.89,-55.8504 180.332,-56.0393"/>
<text text-anchor="middle" x="203.984" y="-121" font-family="Arial" font-size="10.00" fill="#0d1575">1.89%</text>
<text text-anchor="middle" x="203.984" y="-110" font-family="Arial" font-size="10.00" fill="#0d1575">17665×</text>
</g>
<!-- 5 -->
<g id="node4" class="node"><title>5</title>
<polygon fill="#0d1776" stroke="#0d1776" points="544.484,-144 420.484,-144 420.484,-92 544.484,-92 544.484,-144"/>
<text text-anchor="middle" x="482.484" y="-132" font-family="Arial" font-size="10.00" fill="#ffffff">threading:299:_is_owned</text>
<text text-anchor="middle" x="482.484" y="-121" font-family="Arial" font-size="10.00" fill="#ffffff">2.34%</text>
<text text-anchor="middle" x="482.484" y="-110" font-family="Arial" font-size="10.00" fill="#ffffff">(0.80%)</text>
<text text-anchor="middle" x="482.484" y="-99" font-family="Arial" font-size="10.00" fill="#ffffff">26957×</text>
</g>
<!-- 1&#45;&gt;5 -->
<g id="edge3" class="edge"><title>1&#45;&gt;5</title>
<path fill="none" stroke="#0d0e73" stroke-width="0.5" d="M282.906,-192.03C319.231,-178.994 370.57,-160.488 415.484,-144 415.993,-143.813 416.505,-143.625 417.019,-143.436"/>
<polygon fill="#0d0e73" stroke="#0d0e73" stroke-width="0.5" points="417.575,-144.537 420.437,-142.178 416.729,-142.237 417.575,-144.537"/>
<text text-anchor="middle" x="400.484" y="-167" font-family="Arial" font-size="10.00" fill="#0d0e73">0.29%</text>
<text text-anchor="middle" x="400.484" y="-156" font-family="Arial" font-size="10.00" fill="#0d0e73">4885×</text>
</g>
<!-- 6 -->
<g id="node5" class="node"><title>6</title>
<polygon fill="#0d1274" stroke="#0d1274" points="164.484,-144 14.4835,-144 14.4835,-92 164.484,-92 164.484,-144"/>
<text text-anchor="middle" x="89.4835" y="-132" font-family="Arial" font-size="10.00" fill="#ffffff">threading:296:_acquire_restore</text>
<text text-anchor="middle" x="89.4835" y="-121" font-family="Arial" font-size="10.00" fill="#ffffff">1.18%</text>
<text text-anchor="middle" x="89.4835" y="-110" font-family="Arial" font-size="10.00" fill="#ffffff">(0.19%)</text>
<text text-anchor="middle" x="89.4835" y="-99" font-family="Arial" font-size="10.00" fill="#ffffff">4885×</text>
</g>
<!-- 1&#45;&gt;6 -->
<g id="edge4" class="edge"><title>1&#45;&gt;6</title>
<path fill="none" stroke="#0d1274" stroke-width="0.5" d="M188.137,-194.659C174.472,-189.49 159.907,-182.933 147.484,-175 135.406,-167.288 123.713,-156.789 114.028,-146.964"/>
<polygon fill="#0d1274" stroke="#0d1274" stroke-width="0.5" points="114.67,-145.868 111.351,-144.214 112.914,-147.577 114.67,-145.868"/>
<text text-anchor="middle" x="161.484" y="-167" font-family="Arial" font-size="10.00" fill="#0d1274">1.18%</text>
<text text-anchor="middle" x="161.484" y="-156" font-family="Arial" font-size="10.00" fill="#0d1274">4885×</text>
</g>
<!-- 24 -->
<g id="node6" class="node"><title>24</title>
<polygon fill="#76ca07" stroke="#76ca07" points="315.734,-144 225.234,-144 225.234,-92 315.734,-92 315.734,-144"/>
<text text-anchor="middle" x="270.484" y="-132" font-family="Arial" font-size="10.00" fill="#ffffff">~:0:&lt;time.sleep&gt;</text>
<text text-anchor="middle" x="270.484" y="-121" font-family="Arial" font-size="10.00" fill="#ffffff">64.23%</text>
<text text-anchor="middle" x="270.484" y="-110" font-family="Arial" font-size="10.00" fill="#ffffff">(64.23%)</text>
<text text-anchor="middle" x="270.484" y="-99" font-family="Arial" font-size="10.00" fill="#ffffff">7895×</text>
</g>
<!-- 1&#45;&gt;24 -->
<g id="edge5" class="edge"><title>1&#45;&gt;24</title>
<path fill="none" stroke="#76ca07" stroke-width="2.57" d="M221.724,-183.827C218.142,-173.843 216.512,-162.501 221.484,-153 221.841,-152.318 222.218,-151.646 222.615,-150.986"/>
<polygon fill="#76ca07" stroke="#76ca07" stroke-width="2.57" points="225.034,-152.423 227.529,-144.323 220.527,-149.099 225.034,-152.423"/>
<text text-anchor="middle" x="238.484" y="-167" font-family="Arial" font-size="10.00" fill="#76ca07">64.23%</text>
<text text-anchor="middle" x="238.484" y="-156" font-family="Arial" font-size="10.00" fill="#76ca07">7895×</text>
</g>
<!-- 5&#45;&gt;4 -->
<g id="edge13" class="edge"><title>5&#45;&gt;4</title>
<path fill="none" stroke="#0d1375" stroke-width="0.5" d="M420.133,-93.5368C418.57,-93.0126 417.018,-92.4994 415.484,-92 372.368,-77.9702 324.177,-64.2131 282.861,-52.9941"/>
<polygon fill="#0d1375" stroke="#0d1375" stroke-width="0.5" points="283.092,-51.7875 279.393,-52.054 282.45,-54.1521 283.092,-51.7875"/>
<text text-anchor="middle" x="400.984" y="-75" font-family="Arial" font-size="10.00" fill="#0d1375">1.53%</text>
<text text-anchor="middle" x="400.984" y="-64" font-family="Arial" font-size="10.00" fill="#0d1375">26957×</text>
</g>
<!-- 6&#45;&gt;4 -->
<g id="edge14" class="edge"><title>6&#45;&gt;4</title>
<path fill="none" stroke="#0d1174" stroke-width="0.5" d="M115.389,-91.93C127.281,-80.4215 141.426,-66.7335 153.654,-54.8993"/>
<polygon fill="#0d1174" stroke="#0d1174" stroke-width="0.5" points="154.731,-55.562 156.394,-52.2477 153.027,-53.8014 154.731,-55.562"/>
<text text-anchor="middle" x="161.484" y="-75" font-family="Arial" font-size="10.00" fill="#0d1174">1.00%</text>
<text text-anchor="middle" x="161.484" y="-64" font-family="Arial" font-size="10.00" fill="#0d1174">4885×</text>
</g>
<!-- 2 -->
<g id="node7" class="node"><title>2</title>
<polygon fill="#e3ac04" stroke="#e3ac04" points="509.484,-328 429.484,-328 429.484,-276 509.484,-276 509.484,-328"/>
<text text-anchor="middle" x="469.484" y="-316" font-family="Arial" font-size="10.00" fill="#ffffff">Queue:150:get</text>
<text text-anchor="middle" x="469.484" y="-305" font-family="Arial" font-size="10.00" fill="#ffffff">81.20%</text>
<text text-anchor="middle" x="469.484" y="-294" font-family="Arial" font-size="10.00" fill="#ffffff">(2.74%)</text>
<text text-anchor="middle" x="469.484" y="-283" font-family="Arial" font-size="10.00" fill="#ffffff">17008×</text>
</g>
<!-- 2&#45;&gt;0 -->
<g id="edge6" class="edge"><title>2&#45;&gt;0</title>
<path fill="none" stroke="#0d1174" stroke-width="0.5" d="M429.471,-293.02C398.702,-284.555 358.22,-267.825 338.484,-236 326.303,-216.359 333.526,-206.573 338.484,-184 338.598,-183.477 347.284,-164.68 355.278,-147.436"/>
<polygon fill="#0d1174" stroke="#0d1174" stroke-width="0.5" points="356.504,-147.704 356.865,-144.014 354.282,-146.673 356.504,-147.704"/>
<text text-anchor="middle" x="354.984" y="-213" font-family="Arial" font-size="10.00" fill="#0d1174">1.03%</text>
<text text-anchor="middle" x="354.984" y="-202" font-family="Arial" font-size="10.00" fill="#0d1174">21893×</text>
</g>
<!-- 2&#45;&gt;1 -->
<g id="edge7" class="edge"><title>2&#45;&gt;1</title>
<path fill="none" stroke="#b2d406" stroke-width="2.84" d="M429.259,-299.713C392.134,-297.068 336.422,-289.318 293.484,-267 281.778,-260.916 270.83,-251.721 261.669,-242.531"/>
<polygon fill="#b2d406" stroke="#b2d406" stroke-width="2.84" points="263.553,-240.248 255.624,-236.207 259.303,-244.311 263.553,-240.248"/>
<text text-anchor="middle" x="310.484" y="-259" font-family="Arial" font-size="10.00" fill="#b2d406">70.94%</text>
<text text-anchor="middle" x="310.484" y="-248" font-family="Arial" font-size="10.00" fill="#b2d406">4885×</text>
</g>
<!-- 2&#45;&gt;4 -->
<g id="edge8" class="edge"><title>2&#45;&gt;4</title>
<path fill="none" stroke="#0d1475" stroke-width="0.5" d="M429.47,-296.872C387.576,-291.978 320.13,-282.472 263.484,-267 142.487,-233.952 74.2088,-251.438 9.48351,-144 -2.44258,-124.204 -3.67445,-111 9.48351,-92 24.3432,-70.5429 47.2277,-56.1591 71.5365,-46.5199"/>
<polygon fill="#0d1475" stroke="#0d1475" stroke-width="0.5" points="71.9966,-47.6554 74.8188,-45.25 71.1125,-45.3705 71.9966,-47.6554"/>
<text text-anchor="middle" x="47.9835" y="-167" font-family="Arial" font-size="10.00" fill="#0d1475">1.78%</text>
<text text-anchor="middle" x="47.9835" y="-156" font-family="Arial" font-size="10.00" fill="#0d1475">17008×</text>
</g>
<!-- 9 -->
<g id="node8" class="node"><title>9</title>
<polygon fill="#0d1074" stroke="#0d1074" points="462.484,-236 376.484,-236 376.484,-184 462.484,-184 462.484,-236"/>
<text text-anchor="middle" x="419.484" y="-224" font-family="Arial" font-size="10.00" fill="#ffffff">Queue:208:_get</text>
<text text-anchor="middle" x="419.484" y="-213" font-family="Arial" font-size="10.00" fill="#ffffff">0.68%</text>
<text text-anchor="middle" x="419.484" y="-202" font-family="Arial" font-size="10.00" fill="#ffffff">(0.48%)</text>
<text text-anchor="middle" x="419.484" y="-191" font-family="Arial" font-size="10.00" fill="#ffffff">17008×</text>
</g>
<!-- 2&#45;&gt;9 -->
<g id="edge9" class="edge"><title>2&#45;&gt;9</title>
<path fill="none" stroke="#0d1074" stroke-width="0.5" d="M455.556,-275.93C449.27,-264.615 441.813,-251.193 435.315,-239.497"/>
<polygon fill="#0d1074" stroke="#0d1074" stroke-width="0.5" points="436.281,-238.712 433.51,-236.248 434.139,-239.902 436.281,-238.712"/>
<text text-anchor="middle" x="465.984" y="-259" font-family="Arial" font-size="10.00" fill="#0d1074">0.68%</text>
<text text-anchor="middle" x="465.984" y="-248" font-family="Arial" font-size="10.00" fill="#0d1074">17008×</text>
</g>
<!-- 10 -->
<g id="node9" class="node"><title>10</title>
<polygon fill="#0d0f73" stroke="#0d0f73" points="790.734,-236 576.234,-236 576.234,-184 790.734,-184 790.734,-236"/>
<text text-anchor="middle" x="683.484" y="-224" font-family="Arial" font-size="10.00" fill="#ffffff">~:0:&lt;method &#39;release&#39; of &#39;thread.lock&#39; objects&gt;</text>
<text text-anchor="middle" x="683.484" y="-213" font-family="Arial" font-size="10.00" fill="#ffffff">0.52%</text>
<text text-anchor="middle" x="683.484" y="-202" font-family="Arial" font-size="10.00" fill="#ffffff">(0.52%)</text>
<text text-anchor="middle" x="683.484" y="-191" font-family="Arial" font-size="10.00" fill="#ffffff">38900×</text>
</g>
<!-- 2&#45;&gt;10 -->
<g id="edge10" class="edge"><title>2&#45;&gt;10</title>
<path fill="none" stroke="#0d0e73" stroke-width="0.5" d="M509.484,-284.177C540.658,-271.067 584.528,-252.617 620.417,-237.523"/>
<polygon fill="#0d0e73" stroke="#0d0e73" stroke-width="0.5" points="621.113,-238.559 623.865,-236.073 620.164,-236.301 621.113,-238.559"/>
<text text-anchor="middle" x="617.984" y="-259" font-family="Arial" font-size="10.00" fill="#0d0e73">0.25%</text>
<text text-anchor="middle" x="617.984" y="-248" font-family="Arial" font-size="10.00" fill="#0d0e73">17008×</text>
</g>
<!-- 18 -->
<g id="node10" class="node"><title>18</title>
<polygon fill="#0d1074" stroke="#0d1074" points="566.734,-236 472.234,-236 472.234,-184 566.734,-184 566.734,-236"/>
<text text-anchor="middle" x="519.484" y="-224" font-family="Arial" font-size="10.00" fill="#ffffff">Queue:200:_qsize</text>
<text text-anchor="middle" x="519.484" y="-213" font-family="Arial" font-size="10.00" fill="#ffffff">0.83%</text>
<text text-anchor="middle" x="519.484" y="-202" font-family="Arial" font-size="10.00" fill="#ffffff">(0.56%)</text>
<text text-anchor="middle" x="519.484" y="-191" font-family="Arial" font-size="10.00" fill="#ffffff">21893×</text>
</g>
<!-- 2&#45;&gt;18 -->
<g id="edge11" class="edge"><title>2&#45;&gt;18</title>
<path fill="none" stroke="#0d1074" stroke-width="0.5" d="M483.411,-275.93C489.697,-264.615 497.154,-251.193 503.652,-239.497"/>
<polygon fill="#0d1074" stroke="#0d1074" stroke-width="0.5" points="504.828,-239.902 505.457,-236.248 502.686,-238.712 504.828,-239.902"/>
<text text-anchor="middle" x="515.984" y="-259" font-family="Arial" font-size="10.00" fill="#0d1074">0.83%</text>
<text text-anchor="middle" x="515.984" y="-248" font-family="Arial" font-size="10.00" fill="#0d1074">21893×</text>
</g>
<!-- 21 -->
<g id="node11" class="node"><title>21</title>
<polygon fill="#0d1c77" stroke="#0d1c77" points="900.734,-236 800.234,-236 800.234,-184 900.734,-184 900.734,-236"/>
<text text-anchor="middle" x="850.484" y="-224" font-family="Arial" font-size="10.00" fill="#ffffff">threading:372:notify</text>
<text text-anchor="middle" x="850.484" y="-213" font-family="Arial" font-size="10.00" fill="#ffffff">3.47%</text>
<text text-anchor="middle" x="850.484" y="-202" font-family="Arial" font-size="10.00" fill="#ffffff">(1.16%)</text>
<text text-anchor="middle" x="850.484" y="-191" font-family="Arial" font-size="10.00" fill="#ffffff">22072×</text>
</g>
<!-- 2&#45;&gt;21 -->
<g id="edge12" class="edge"><title>2&#45;&gt;21</title>
<path fill="none" stroke="#0d1977" stroke-width="0.5" d="M509.624,-296.025C571.905,-287.635 695.099,-268.346 795.484,-236 795.858,-235.879 796.233,-235.757 796.609,-235.633"/>
<polygon fill="#0d1977" stroke="#0d1977" stroke-width="0.5" points="797.094,-236.762 800.009,-234.47 796.301,-234.443 797.094,-236.762"/>
<text text-anchor="middle" x="776.984" y="-259" font-family="Arial" font-size="10.00" fill="#0d1977">2.96%</text>
<text text-anchor="middle" x="776.984" y="-248" font-family="Arial" font-size="10.00" fill="#0d1977">17008×</text>
</g>
<!-- 21&#45;&gt;5 -->
<g id="edge23" class="edge"><title>21&#45;&gt;5</title>
<path fill="none" stroke="#0d1575" stroke-width="0.5" d="M800.004,-185.546C798.488,-185.006 796.979,-184.488 795.484,-184 712.204,-156.8 612.618,-138.429 548.501,-128.342"/>
<polygon fill="#0d1575" stroke="#0d1575" stroke-width="0.5" points="548.359,-127.08 544.712,-127.749 547.981,-129.5 548.359,-127.08"/>
<text text-anchor="middle" x="777.984" y="-167" font-family="Arial" font-size="10.00" fill="#0d1575">2.04%</text>
<text text-anchor="middle" x="777.984" y="-156" font-family="Arial" font-size="10.00" fill="#0d1575">22072×</text>
</g>
<!-- 7 -->
<g id="node12" class="node"><title>7</title>
<polygon fill="#0d277a" stroke="#0d277a" points="853.734,-420 747.234,-420 747.234,-368 853.734,-368 853.734,-420"/>
<text text-anchor="middle" x="800.484" y="-408" font-family="Arial" font-size="10.00" fill="#ffffff">Queue:45:task_done</text>
<text text-anchor="middle" x="800.484" y="-397" font-family="Arial" font-size="10.00" fill="#ffffff">6.01%</text>
<text text-anchor="middle" x="800.484" y="-386" font-family="Arial" font-size="10.00" fill="#ffffff">(1.06%)</text>
<text text-anchor="middle" x="800.484" y="-375" font-family="Arial" font-size="10.00" fill="#ffffff">17007×</text>
</g>
<!-- 7&#45;&gt;4 -->
<g id="edge15" class="edge"><title>7&#45;&gt;4</title>
<path fill="none" stroke="#0d1e78" stroke-width="0.5" d="M847.515,-367.903C880.778,-348.523 919.484,-321.909 919.484,-303 919.484,-303 919.484,-303 919.484,-117 919.484,-54.7288 499.566,-35.1868 293.662,-29.3476"/>
<polygon fill="#0d1e78" stroke="#0d1e78" stroke-width="0.5" points="293.577,-28.1198 290.044,-29.2458 293.508,-30.5688 293.577,-28.1198"/>
<text text-anchor="middle" x="935.984" y="-213" font-family="Arial" font-size="10.00" fill="#0d1e78">3.95%</text>
<text text-anchor="middle" x="935.984" y="-202" font-family="Arial" font-size="10.00" fill="#0d1e78">17007×</text>
</g>
<!-- 7&#45;&gt;10 -->
<g id="edge16" class="edge"><title>7&#45;&gt;10</title>
<path fill="none" stroke="#0d0e73" stroke-width="0.5" d="M776.589,-367.692C766.798,-356.261 756.021,-342.16 748.484,-328 730.32,-293.877 743.625,-277.363 722.484,-245 721.194,-243.026 719.759,-241.099 718.221,-239.231"/>
<polygon fill="#0d0e73" stroke="#0d0e73" stroke-width="0.5" points="718.943,-238.192 715.728,-236.345 717.089,-239.794 718.943,-238.192"/>
<text text-anchor="middle" x="764.984" y="-305" font-family="Arial" font-size="10.00" fill="#0d0e73">0.21%</text>
<text text-anchor="middle" x="764.984" y="-294" font-family="Arial" font-size="10.00" fill="#0d0e73">17007×</text>
</g>
<!-- 17 -->
<g id="node13" class="node"><title>17</title>
<polygon fill="#0d1074" stroke="#0d1074" points="898.734,-328 786.234,-328 786.234,-276 898.734,-276 898.734,-328"/>
<text text-anchor="middle" x="842.484" y="-316" font-family="Arial" font-size="10.00" fill="#ffffff">threading:399:notifyAll</text>
<text text-anchor="middle" x="842.484" y="-305" font-family="Arial" font-size="10.00" fill="#ffffff">0.79%</text>
<text text-anchor="middle" x="842.484" y="-294" font-family="Arial" font-size="10.00" fill="#ffffff">(0.22%)</text>
<text text-anchor="middle" x="842.484" y="-283" font-family="Arial" font-size="10.00" fill="#ffffff">5064×</text>
</g>
<!-- 7&#45;&gt;17 -->
<g id="edge17" class="edge"><title>7&#45;&gt;17</title>
<path fill="none" stroke="#0d1074" stroke-width="0.5" d="M812.183,-367.93C817.463,-356.615 823.727,-343.193 829.185,-331.497"/>
<polygon fill="#0d1074" stroke="#0d1074" stroke-width="0.5" points="830.331,-331.937 830.701,-328.248 828.111,-330.901 830.331,-331.937"/>
<text text-anchor="middle" x="839.484" y="-351" font-family="Arial" font-size="10.00" fill="#0d1074">0.79%</text>
<text text-anchor="middle" x="839.484" y="-340" font-family="Arial" font-size="10.00" fill="#0d1074">5064×</text>
</g>
<!-- 17&#45;&gt;21 -->
<g id="edge22" class="edge"><title>17&#45;&gt;21</title>
<path fill="none" stroke="#0d0f73" stroke-width="0.5" d="M844.712,-275.93C845.709,-264.712 846.89,-251.422 847.924,-239.798"/>
<polygon fill="#0d0f73" stroke="#0d0f73" stroke-width="0.5" points="849.149,-239.842 848.239,-236.248 846.709,-239.625 849.149,-239.842"/>
<text text-anchor="middle" x="860.484" y="-259" font-family="Arial" font-size="10.00" fill="#0d0f73">0.51%</text>
<text text-anchor="middle" x="860.484" y="-248" font-family="Arial" font-size="10.00" fill="#0d0f73">5064×</text>
</g>
<!-- 12 -->
<g id="node14" class="node"><title>12</title>
<polygon fill="#e4a404" stroke="#e4a404" points="729.734,-420 629.234,-420 629.234,-368 729.734,-368 729.734,-420"/>
<text text-anchor="middle" x="679.484" y="-408" font-family="Arial" font-size="10.00" fill="#ffffff">AbstractFS:20:read</text>
<text text-anchor="middle" x="679.484" y="-397" font-family="Arial" font-size="10.00" fill="#ffffff">82.14%</text>
<text text-anchor="middle" x="679.484" y="-386" font-family="Arial" font-size="10.00" fill="#ffffff">(0.95%)</text>
<text text-anchor="middle" x="679.484" y="-375" font-family="Arial" font-size="10.00" fill="#ffffff">17008×</text>
</g>
<!-- 12&#45;&gt;2 -->
<g id="edge18" class="edge"><title>12&#45;&gt;2</title>
<path fill="none" stroke="#e3ac04" stroke-width="3.25" d="M629.183,-371.443C595.544,-357.026 551.513,-338.156 518.206,-323.881"/>
<polygon fill="#e3ac04" stroke="#e3ac04" stroke-width="3.25" points="519.062,-320.821 509.549,-320.171 516.58,-326.611 519.062,-320.821"/>
<text text-anchor="middle" x="615.484" y="-351" font-family="Arial" font-size="10.00" fill="#e3ac04">81.20%</text>
<text text-anchor="middle" x="615.484" y="-340" font-family="Arial" font-size="10.00" fill="#e3ac04">17008×</text>
</g>
<!-- 13 -->
<g id="node15" class="node"><title>13</title>
<polygon fill="#ff0000" stroke="#ff0000" points="846.484,-512 754.484,-512 754.484,-460 846.484,-460 846.484,-512"/>
<text text-anchor="middle" x="800.484" y="-500" font-family="Arial" font-size="10.00" fill="#ffffff">Local_Fs:164:put</text>
<text text-anchor="middle" x="800.484" y="-489" font-family="Arial" font-size="10.00" fill="#ffffff">100.00%</text>
<text text-anchor="middle" x="800.484" y="-478" font-family="Arial" font-size="10.00" fill="#ffffff">(3.68%)</text>
<text text-anchor="middle" x="800.484" y="-467" font-family="Arial" font-size="10.00" fill="#ffffff">1×</text>
</g>
<!-- 13&#45;&gt;7 -->
<g id="edge19" class="edge"><title>13&#45;&gt;7</title>
<path fill="none" stroke="#0d277a" stroke-width="0.5" d="M800.484,-459.93C800.484,-448.712 800.484,-435.422 800.484,-423.798"/>
<polygon fill="#0d277a" stroke="#0d277a" stroke-width="0.5" points="801.709,-423.748 800.484,-420.248 799.259,-423.748 801.709,-423.748"/>
<text text-anchor="middle" x="816.984" y="-443" font-family="Arial" font-size="10.00" fill="#0d277a">6.01%</text>
<text text-anchor="middle" x="816.984" y="-432" font-family="Arial" font-size="10.00" fill="#0d277a">17007×</text>
</g>
<!-- 13&#45;&gt;12 -->
<g id="edge20" class="edge"><title>13&#45;&gt;12</title>
<path fill="none" stroke="#e4a404" stroke-width="3.29" d="M766.778,-459.93C752.606,-449.389 735.975,-437.019 721.053,-425.92"/>
<polygon fill="#e4a404" stroke="#e4a404" stroke-width="3.29" points="722.63,-423.123 713.428,-420.248 718.828,-428.234 722.63,-423.123"/>
<text text-anchor="middle" x="770.484" y="-443" font-family="Arial" font-size="10.00" fill="#e4a404">82.14%</text>
<text text-anchor="middle" x="770.484" y="-432" font-family="Arial" font-size="10.00" fill="#e4a404">17008×</text>
</g>
<!-- 19 -->
<g id="node16" class="node"><title>19</title>
<polygon fill="#0d307d" stroke="#0d307d" points="1029.73,-420 863.234,-420 863.234,-368 1029.73,-368 1029.73,-420"/>
<text text-anchor="middle" x="946.484" y="-408" font-family="Arial" font-size="10.00" fill="#ffffff">~:0:&lt;method &#39;write&#39; of &#39;file&#39; objects&gt;</text>
<text text-anchor="middle" x="946.484" y="-397" font-family="Arial" font-size="10.00" fill="#ffffff">7.89%</text>
<text text-anchor="middle" x="946.484" y="-386" font-family="Arial" font-size="10.00" fill="#ffffff">(7.89%)</text>
<text text-anchor="middle" x="946.484" y="-375" font-family="Arial" font-size="10.00" fill="#ffffff">17007×</text>
</g>
<!-- 13&#45;&gt;19 -->
<g id="edge21" class="edge"><title>13&#45;&gt;19</title>
<path fill="none" stroke="#0d307d" stroke-width="0.5" d="M841.153,-459.93C860.216,-448.179 882.965,-434.156 902.435,-422.153"/>
<polygon fill="#0d307d" stroke="#0d307d" stroke-width="0.5" points="903.443,-422.971 905.78,-420.092 902.157,-420.885 903.443,-422.971"/>
<text text-anchor="middle" x="906.984" y="-443" font-family="Arial" font-size="10.00" fill="#0d307d">7.89%</text>
<text text-anchor="middle" x="906.984" y="-432" font-family="Arial" font-size="10.00" fill="#0d307d">17007×</text>
</g>
</g>
</svg>
