<?xml version="1.0" encoding="UTF-8" standalone="no"?>
<!-- Created with Inkscape (http://www.inkscape.org/) -->

<svg
   xmlns:dc="http://purl.org/dc/elements/1.1/"
   xmlns:cc="http://creativecommons.org/ns#"
   xmlns:rdf="http://www.w3.org/1999/02/22-rdf-syntax-ns#"
   xmlns:svg="http://www.w3.org/2000/svg"
   xmlns="http://www.w3.org/2000/svg"
   xmlns:sodipodi="http://sodipodi.sourceforge.net/DTD/sodipodi-0.dtd"
   xmlns:inkscape="http://www.inkscape.org/namespaces/inkscape"
   width="1052.3622"
   height="744.09448"
   id="svg2"
   version="1.1"
   inkscape:version="0.48.4 r9939"
   sodipodi:docname="Nouveau document 1">
  <defs
     id="defs4" />
  <sodipodi:namedview
     id="base"
     pagecolor="#ffffff"
     bordercolor="#666666"
     borderopacity="1.0"
     inkscape:pageopacity="0.0"
     inkscape:pageshadow="2"
     inkscape:zoom="1.4"
     inkscape:cx="580.01702"
     inkscape:cy="527.69471"
     inkscape:document-units="px"
     inkscape:current-layer="layer1"
     showgrid="false"
     inkscape:window-width="1680"
     inkscape:window-height="1000"
     inkscape:window-x="-8"
     inkscape:window-y="-8"
     inkscape:window-maximized="1" />
  <metadata
     id="metadata7">
    <rdf:RDF>
      <cc:Work
         rdf:about="">
        <dc:format>image/svg+xml</dc:format>
        <dc:type
           rdf:resource="http://purl.org/dc/dcmitype/StillImage" />
        <dc:title></dc:title>
      </cc:Work>
    </rdf:RDF>
  </metadata>
  <g
     inkscape:label="Calque 1"
     inkscape:groupmode="layer"
     id="layer1"
     transform="translate(0,-308.2677)">
    <text
       xml:space="preserve"
       style="font-size:40px;font-style:normal;font-weight:normal;line-height:125%;letter-spacing:0px;word-spacing:0px;fill:#000000;fill-opacity:1;stroke:none;font-family:Sans"
       x="144.45181"
       y="555.36713"
       id="text2985"
       sodipodi:linespacing="125%"
       inkscape:export-filename="D:\DATAS\__docs__\stage\Rapport de stage\images\url.png"
       inkscape:export-xdpi="90"
       inkscape:export-ydpi="90"><tspan
         sodipodi:role="line"
         id="tspan2987"
         x="144.45181"
         y="555.36713"><tspan
   style="fill:#00ff00"
   id="tspan2989">scheme</tspan>://<tspan
   style="fill:#ff0000"
   id="tspan2991">user</tspan>:<tspan
   style="fill:#0000ff"
   id="tspan2993">clear_passwd</tspan>@<tspan
   style="fill:#ff00ff"
   id="tspan2995">host</tspan>:<tspan
   style="fill:#ff6600"
   id="tspan2997">port</tspan>/<tspan
   style="fill:#00ffdf;fill-opacity:1"
   id="tspan2999">path</tspan></tspan></text>
    <path
       style="fill:#00ff00;fill-opacity:1"
       d="m 143.60053,564.35796 c -0.13143,0.17629 -0.11504,0.24777 0.23481,1.02385 0.54543,1.21002 1.9724,3.63121 2.91735,4.94999 3.75822,5.245 8.86233,8.7094 13.9482,9.4673 1.45354,0.21661 7.68119,0.0651 9.47699,-0.2305 0.15555,-0.0257 0.66491,-0.0905 1.13193,-0.14422 0.46702,-0.0537 0.9763,-0.12361 1.13173,-0.15533 0.15543,-0.0317 0.55538,-0.0973 0.8888,-0.14576 0.3334,-0.0484 0.76978,-0.1166 0.9697,-0.15147 0.19994,-0.0349 0.59081,-0.0993 0.86858,-0.14331 0.97305,-0.15398 1.5167,-0.24974 1.71661,-0.30238 0.1109,-0.0292 0.47433,-0.0987 0.8076,-0.15432 0.33329,-0.0557 0.66034,-0.11935 0.72681,-0.1415 0.0664,-0.0221 0.40787,-0.0874 0.7587,-0.14494 0.35083,-0.0576 0.69607,-0.12432 0.76719,-0.14835 0.0711,-0.024 0.41637,-0.0908 0.7672,-0.14835 0.35082,-0.0576 0.69605,-0.12477 0.76717,-0.14935 0.0711,-0.0246 0.43839,-0.0931 0.81618,-0.15218 0.37779,-0.0591 0.74126,-0.12607 0.8077,-0.14877 0.0664,-0.0227 0.39347,-0.0893 0.72669,-0.14793 0.33323,-0.0587 0.66024,-0.12477 0.7267,-0.14692 0.0664,-0.0221 0.40788,-0.0874 0.75871,-0.14494 0.35082,-0.0576 0.69606,-0.12438 0.76718,-0.14848 0.0711,-0.0241 0.38378,-0.089 0.69478,-0.14424 0.311,-0.0552 0.65619,-0.12442 0.76709,-0.15378 0.1109,-0.0294 0.45614,-0.0961 0.76719,-0.14834 0.31106,-0.0522 0.65629,-0.11899 0.76719,-0.14835 0.11091,-0.0294 0.45614,-0.0961 0.76719,-0.14835 0.31107,-0.0522 0.6563,-0.11893 0.7672,-0.14821 0.11091,-0.0293 0.48872,-0.0979 0.8396,-0.15246 0.35088,-0.0546 0.69616,-0.11885 0.76731,-0.14282 0.0711,-0.024 0.4924,-0.0922 0.93617,-0.15155 0.44377,-0.0594 0.86193,-0.12684 0.92923,-0.14988 0.0673,-0.023 0.52265,-0.0898 1.01187,-0.14841 0.48922,-0.0586 1.01669,-0.13029 1.17217,-0.15933 0.15547,-0.029 0.93814,-0.10452 1.73926,-0.16773 3.91192,-0.30865 5.32873,-0.0315 8.05054,1.57492 2.23,1.31614 4.31127,3.49595 4.97034,5.20566 0.17142,0.44467 0.30562,0.42757 0.47416,-0.0604 0.92155,-2.66807 5.1478,-6.08809 8.42325,-6.81638 0.46983,-0.10447 4.54352,-0.12913 4.82107,-0.0292 0.0897,0.0323 0.65619,0.10304 1.25884,0.15719 0.60266,0.0542 1.15146,0.11706 1.21959,0.1398 0.0682,0.0227 0.48858,0.084 0.93432,0.13615 0.44577,0.0522 0.90206,0.11763 1.01397,0.14549 0.11191,0.0279 0.49594,0.0911 0.85337,0.14047 0.35744,0.0494 0.74147,0.11288 0.8534,0.1411 0.11192,0.0282 0.45945,0.0902 0.77229,0.13787 0.31283,0.0476 0.69686,0.11186 0.85339,0.14276 0.15655,0.0309 0.48586,0.0935 0.73181,0.13916 0.24594,0.0457 0.57526,0.10892 0.73181,0.14061 0.15656,0.0317 0.52238,0.0966 0.81293,0.14432 0.29055,0.0477 0.61985,0.10988 0.73178,0.13821 0.11192,0.0283 0.44126,0.0919 0.73182,0.14117 0.29059,0.0493 0.61991,0.11269 0.73183,0.14082 0.11192,0.0281 0.47776,0.0941 0.81296,0.14657 0.3352,0.0525 0.66836,0.11506 0.74034,0.13908 0.072,0.024 0.41955,0.088 0.77238,0.14221 0.35282,0.0542 0.69649,0.11614 0.76373,0.13765 0.0673,0.0215 0.39651,0.082 0.73172,0.13452 0.3352,0.0525 0.70103,0.11827 0.81295,0.14621 0.11192,0.028 0.47775,0.0937 0.81295,0.14621 0.3352,0.0525 0.66449,0.11346 0.73173,0.13552 0.0673,0.022 0.43304,0.0855 0.81286,0.14102 0.37983,0.0555 0.74561,0.11895 0.81286,0.14101 0.0673,0.0221 0.39653,0.083 0.73174,0.13552 0.3352,0.0525 0.70104,0.11866 0.81296,0.14707 0.11194,0.0284 0.53247,0.0945 0.93453,0.14693 0.40205,0.0524 0.78674,0.11328 0.85484,0.13528 0.0682,0.022 0.47034,0.0838 0.89383,0.13743 0.42351,0.0536 0.898,0.11777 1.05444,0.14261 0.15644,0.0248 0.6863,0.0865 1.17744,0.13704 0.49117,0.0505 0.97531,0.11425 1.07587,0.14159 1.36893,0.37219 9.20374,0.33928 10.37743,-0.0436 0.0746,-0.0243 0.31137,-0.0909 0.5261,-0.14787 0.3922,-0.1041 0.56715,-0.15967 0.9395,-0.29842 0.1107,-0.0413 0.34022,-0.11338 0.51006,-0.1603 0.52659,-0.14551 2.14738,-0.89672 2.9879,-1.38487 2.82577,-1.64114 5.57474,-4.29954 7.70808,-7.45412 0.88959,-1.31544 2.22536,-3.74749 2.73421,-4.97822 0.31212,-0.7549 0.32507,-0.824 0.1873,-0.99912 -0.13017,-0.16547 -0.22115,-0.0796 -0.7548,0.71251 -2.04048,3.02868 -4.89657,5.77879 -7.97956,7.68349 -1.04181,0.64364 -3.01232,1.60393 -3.97671,1.93798 -0.35438,0.12275 -0.71679,0.24884 -0.80537,0.28022 -0.0886,0.0313 -0.3426,0.10116 -0.56448,0.15511 -0.44738,0.10874 -0.88175,0.22275 -1.13312,0.2974 -1.30061,0.38627 -8.23823,0.42799 -10.489,0.0631 -0.15645,-0.0253 -0.74103,-0.0883 -1.29906,-0.13988 -0.55803,-0.0516 -1.1426,-0.11382 -1.29903,-0.13834 -0.15642,-0.0245 -0.66805,-0.0867 -1.13695,-0.13819 -0.4689,-0.0515 -0.98055,-0.11548 -1.13703,-0.14223 -0.15646,-0.0267 -0.61336,-0.0877 -1.01534,-0.13536 -0.40198,-0.0477 -0.85895,-0.11267 -1.01552,-0.14435 -0.15655,-0.0317 -0.61354,-0.0967 -1.01551,-0.14451 -0.40197,-0.0478 -0.82243,-0.10955 -0.93435,-0.13724 -0.11191,-0.0277 -0.5324,-0.0908 -0.9344,-0.1402 -0.402,-0.0494 -0.82248,-0.11251 -0.9344,-0.1402 -0.11192,-0.0277 -0.5324,-0.0908 -0.9344,-0.14021 -0.40201,-0.0494 -0.82249,-0.11251 -0.9344,-0.14021 -0.11191,-0.0277 -0.53241,-0.0913 -0.93442,-0.14129 -0.40201,-0.05 -0.84076,-0.11474 -0.97498,-0.14382 -0.13422,-0.0291 -0.53647,-0.0916 -0.89387,-0.13895 -0.3574,-0.0473 -0.74138,-0.10889 -0.8533,-0.13678 -0.11192,-0.0279 -0.5324,-0.0911 -0.93441,-0.14057 -0.402,-0.0494 -0.82247,-0.11251 -0.9344,-0.1402 -0.11191,-0.0277 -0.5324,-0.0913 -0.93442,-0.14129 -0.40202,-0.05 -0.84076,-0.11475 -0.97498,-0.14383 -0.13423,-0.0291 -0.53645,-0.0908 -0.89383,-0.13719 -0.35739,-0.0464 -0.79611,-0.11021 -0.97494,-0.14186 -0.17885,-0.0317 -0.65404,-0.0954 -1.056,-0.14174 -0.40195,-0.0463 -0.82238,-0.10682 -0.9343,-0.13447 -0.11191,-0.0276 -0.62358,-0.0919 -1.13703,-0.14272 -0.51345,-0.0508 -1.06154,-0.11294 -1.21799,-0.13797 -1.70716,-0.27323 -6.95902,-0.36847 -7.86294,-0.1426 -2.6117,0.65263 -5.50808,4.30615 -6.97302,8.79582 -0.13476,0.41304 -0.25635,0.75104 -0.27015,0.7511 -0.0139,7e-5 -0.15223,-0.34106 -0.30758,-0.75808 -0.8074,-2.16727 -2.02227,-4.35487 -3.19642,-5.75574 -1.24525,-1.48568 -2.92789,-2.71984 -4.0382,-2.96186 -0.96271,-0.20983 -6.92089,-0.0493 -7.82549,0.21088 -0.10697,0.0308 -0.64708,0.1021 -1.20023,0.15853 -0.55314,0.0564 -1.06251,0.12192 -1.1319,0.14554 -0.0694,0.0236 -0.50825,0.0886 -0.97524,0.14442 -0.46699,0.0558 -0.95801,0.12716 -1.09115,0.15859 -0.13314,0.0314 -0.56953,0.0991 -0.96974,0.15026 -0.40021,0.0512 -0.8184,0.11664 -0.92931,0.1454 -0.11092,0.0288 -0.52711,0.0978 -0.92487,0.15347 -0.39778,0.0557 -0.77952,0.12013 -0.84833,0.14328 -0.0688,0.0231 -0.48818,0.0907 -0.93196,0.15007 -0.44377,0.0594 -0.86193,0.1265 -0.92924,0.14912 -0.0674,0.0226 -0.48548,0.0897 -0.92926,0.14913 -0.44377,0.0594 -0.86194,0.1265 -0.92924,0.14912 -0.0673,0.0226 -0.48547,0.0897 -0.92925,0.14913 -0.44376,0.0594 -0.86193,0.1265 -0.92925,0.14912 -0.0673,0.0226 -0.48547,0.0897 -0.92924,0.14913 -0.44378,0.0594 -0.86194,0.1265 -0.92925,0.14913 -0.0673,0.0226 -0.48339,0.0894 -0.9246,0.14849 -0.44122,0.059 -0.87757,0.12881 -0.96966,0.15505 -0.0921,0.0262 -0.49487,0.0917 -0.89503,0.14535 -0.40017,0.0537 -0.83653,0.12243 -0.9697,0.15273 -0.13316,0.0303 -0.60528,0.0996 -1.04915,0.15391 -0.44386,0.0544 -0.86209,0.11776 -0.92939,0.14088 -0.0673,0.0231 -0.55914,0.088 -1.09297,0.14428 -0.53383,0.0562 -1.06133,0.12624 -1.17224,0.15555 -0.1109,0.0293 -0.65665,0.0985 -1.21279,0.15384 -0.55613,0.0553 -1.1384,0.12157 -1.29394,0.14725 -2.33064,0.3848 -9.49348,0.42548 -10.59519,0.0602 -0.0779,-0.0258 -0.32481,-0.0894 -0.54857,-0.14118 -0.8213,-0.19013 -0.99304,-0.23926 -1.83263,-0.52416 -4.73422,-1.60645 -9.33094,-5.12273 -12.50165,-9.56319 -0.56079,-0.78535 -0.65469,-0.87016 -0.77893,-0.70348 z"
       id="path3012"
       inkscape:connector-curvature="0"
       inkscape:export-filename="D:\DATAS\__docs__\stage\Rapport de stage\images\url.png"
       inkscape:export-xdpi="90"
       inkscape:export-ydpi="90" />
    <path
       style="fill:#000000"
       d="m 877.15574,329.57509 c -0.15471,0.38962 -0.13733,0.54832 0.24901,2.27339 0.60235,2.68963 2.19346,8.07499 3.25293,11.01009 4.21368,11.67335 10.01128,19.4116 15.84334,21.14663 1.66681,0.49588 8.83028,0.22602 10.90109,-0.41065 0.17936,-0.0552 0.76634,-0.19369 1.30441,-0.30787 0.53807,-0.11418 1.12505,-0.2638 1.30441,-0.3325 0.17935,-0.0687 0.64055,-0.20993 1.02489,-0.31385 0.38433,-0.10391 0.88746,-0.25047 1.11805,-0.32568 0.2306,-0.0752 0.68132,-0.2141 1.0016,-0.30865 1.12193,-0.33119 1.74897,-0.53783 1.9799,-0.65246 0.12811,-0.0636 0.54739,-0.21376 0.93172,-0.33371 0.38434,-0.11995 0.76168,-0.25771 0.83855,-0.30613 0.0769,-0.0484 0.47075,-0.18947 0.8753,-0.31342 0.40455,-0.12395 0.80286,-0.26835 0.88513,-0.32089 0.0823,-0.0525 0.48059,-0.19694 0.88514,-0.3209 0.40455,-0.12395 0.80286,-0.26935 0.88513,-0.32311 0.0823,-0.0538 0.50596,-0.20176 0.94154,-0.32888 0.43558,-0.12712 0.85485,-0.27176 0.93172,-0.3214 0.0769,-0.0497 0.45421,-0.19382 0.83855,-0.32039 0.38433,-0.12657 0.76168,-0.26974 0.83854,-0.31817 0.0769,-0.0484 0.47076,-0.18946 0.87531,-0.31341 0.40455,-0.12395 0.80286,-0.2685 0.88513,-0.3212 0.0823,-0.0527 0.44308,-0.19334 0.80179,-0.31253 0.35871,-0.11918 0.75702,-0.269 0.88513,-0.33294 0.12811,-0.0639 0.52642,-0.20834 0.88513,-0.32089 0.35871,-0.11256 0.75702,-0.25696 0.88513,-0.3209 0.12811,-0.0639 0.52642,-0.20833 0.88513,-0.32089 0.35872,-0.11256 0.75703,-0.25682 0.88514,-0.32058 0.12811,-0.0638 0.56392,-0.21193 0.96847,-0.32926 0.40455,-0.11734 0.80286,-0.25621 0.88514,-0.30861 0.0823,-0.0524 0.56804,-0.19919 1.07949,-0.32621 0.51146,-0.12703 0.99362,-0.27219 1.07148,-0.32258 0.0779,-0.0504 0.60276,-0.1937 1.16645,-0.31844 0.56369,-0.12475 1.17163,-0.27817 1.35099,-0.34093 0.17936,-0.0628 1.08079,-0.22188 2.00319,-0.35357 4.50412,-0.64307 6.12746,-0.0133 9.22401,3.57864 2.53704,2.94288 4.88538,7.79981 5.60815,11.59898 0.18798,0.98809 0.34263,0.95158 0.54642,-0.12901 1.1142,-5.90802 6.04345,-13.4488 9.82439,-15.02938 0.54233,-0.22672 5.22664,-0.23817 5.54372,-0.0136 0.10249,0.0726 0.75236,0.23551 1.44416,0.36202 0.6918,0.12651 1.32152,0.27186 1.39938,0.323 0.0779,0.0511 0.56003,0.1915 1.07147,0.31191 0.51146,0.12041 1.03474,0.27047 1.16285,0.33347 0.12811,0.063 0.56835,0.20728 0.9783,0.32062 0.40997,0.11335 0.85022,0.25825 0.97833,0.32201 0.12811,0.0638 0.52642,0.20507 0.88513,0.31401 0.35871,0.10894 0.79895,0.2555 0.9783,0.32569 0.17936,0.0702 0.5567,0.21259 0.83855,0.31644 0.28184,0.10386 0.65919,0.24769 0.83854,0.31963 0.17936,0.0719 0.59863,0.21987 0.93172,0.32873 0.33309,0.10886 0.71044,0.25031 0.83855,0.31433 0.12811,0.064 0.50546,0.20842 0.83854,0.32089 0.33309,0.11247 0.71044,0.25652 0.83855,0.32011 0.12811,0.0636 0.54738,0.21376 0.93172,0.33371 0.38433,0.11995 0.7661,0.2623 0.84837,0.31635 0.0823,0.054 0.48058,0.19967 0.88514,0.32362 0.40455,0.12395 0.79843,0.26499 0.8753,0.31341 0.0769,0.0484 0.45421,0.18619 0.83854,0.30614 0.38434,0.11994 0.80361,0.26976 0.93172,0.33292 0.12811,0.0632 0.54739,0.21298 0.93172,0.33293 0.38433,0.11995 0.76168,0.25871 0.83855,0.30836 0.0769,0.0496 0.49613,0.19427 0.93171,0.3214 0.43558,0.12712 0.85485,0.27175 0.93172,0.3214 0.0769,0.0496 0.45421,0.18841 0.83855,0.30835 0.38433,0.11995 0.8036,0.27063 0.93171,0.33483 0.12811,0.0642 0.61028,0.21533 1.07148,0.33582 0.4612,0.1205 0.90225,0.2596 0.9801,0.30912 0.0779,0.0495 0.53907,0.19096 1.02489,0.31432 0.48583,0.12336 1.03008,0.27073 1.20944,0.32749 0.17935,0.0568 0.78729,0.19917 1.35099,0.31647 0.5637,0.11729 1.119,0.26375 1.2341,0.32545 1.5663,0.84005 10.5752,0.85025 11.9326,0.0135 0.086,-0.0532 0.3598,-0.19828 0.6079,-0.3224 0.453,-0.22673 0.6553,-0.34812 1.0863,-0.65192 0.1281,-0.0903 0.3935,-0.24787 0.5897,-0.35014 0.6085,-0.31713 2.4874,-1.96614 3.4638,-3.03994 3.2826,-3.61006 6.4977,-9.47722 9.0152,-16.45146 1.0497,-2.90821 2.6354,-8.28834 3.2456,-11.01272 0.3743,-1.67105 0.3906,-1.82417 0.2358,-2.21407 -0.1462,-0.36838 -0.2526,-0.17888 -0.8824,1.57234 -2.4081,6.69598 -5.7483,12.76544 -9.332,16.95736 -1.211,1.41654 -3.4963,3.52554 -4.612,4.25623 -0.41,0.26849 -0.8292,0.54432 -0.9317,0.61297 -0.1025,0.0686 -0.396,0.22076 -0.6522,0.33804 -0.5166,0.23646 -1.0184,0.48472 -1.3089,0.64763 -1.5034,0.84293 -9.4809,0.86181 -12.0613,0.0286 -0.1793,-0.0579 -0.8502,-0.20374 -1.4907,-0.32404 -0.6406,-0.12031 -1.31144,-0.26459 -1.49079,-0.32064 -0.17936,-0.056 -0.76634,-0.1994 -1.30441,-0.31857 -0.53807,-0.11917 -1.12505,-0.26656 -1.30441,-0.32754 -0.17935,-0.061 -0.70344,-0.20094 -1.16464,-0.31102 -0.4612,-0.11008 -0.98529,-0.25901 -1.16465,-0.33094 -0.17935,-0.0719 -0.70345,-0.22101 -1.16465,-0.33129 -0.4612,-0.11027 -0.94336,-0.25172 -1.07147,-0.31433 -0.12811,-0.0626 -0.61028,-0.20701 -1.07148,-0.32089 -0.4612,-0.11388 -0.94336,-0.25828 -1.07147,-0.32089 -0.12811,-0.0626 -0.61028,-0.20702 -1.07148,-0.3209 -0.4612,-0.11388 -0.94336,-0.25828 -1.07147,-0.32089 -0.12811,-0.0626 -0.61028,-0.20811 -1.07148,-0.32331 -0.4612,-0.11521 -0.96433,-0.26342 -1.11806,-0.32935 -0.15373,-0.0659 -0.61493,-0.20889 -1.02489,-0.31768 -0.40996,-0.10879 -0.85019,-0.24939 -0.9783,-0.31245 -0.12812,-0.063 -0.61028,-0.20781 -1.07148,-0.32169 -0.4612,-0.11388 -0.94336,-0.25828 -1.07147,-0.32089 -0.12811,-0.0626 -0.61028,-0.2081 -1.07148,-0.32331 -0.4612,-0.11521 -0.96433,-0.26342 -1.11806,-0.32935 -0.15373,-0.0659 -0.61494,-0.20713 -1.02489,-0.31379 -0.40996,-0.10665 -0.91308,-0.2529 -1.11806,-0.32499 -0.20499,-0.0721 -0.75005,-0.21861 -1.21125,-0.32559 -0.4612,-0.10697 -0.94337,-0.24565 -1.07148,-0.30817 -0.12811,-0.0625 -0.71509,-0.2104 -1.3044,-0.32863 -0.58931,-0.11823 -1.21822,-0.26176 -1.39758,-0.31895 -1.95725,-0.62415 -7.99373,-0.89115 -9.03766,-0.39975 -3.01622,1.41981 -6.42121,9.49259 -8.1975,19.43517 -0.16341,0.9147 -0.31011,1.66309 -0.326,1.66309 -0.0159,0 -0.16803,-0.75811 -0.33811,-1.6847 -0.88394,-4.8156 -2.23596,-9.68061 -3.55728,-12.80021 -1.40132,-3.30848 -3.31071,-6.06372 -4.58236,-6.61229 -1.10259,-0.47564 -7.95642,-0.18278 -9.00182,0.38464 -0.12363,0.0671 -0.74609,0.2196 -1.38324,0.33888 -0.63714,0.11927 -1.22413,0.25914 -1.3044,0.31081 -0.0803,0.0517 -0.58619,0.19116 -1.12426,0.30996 -0.53807,0.1188 -1.10409,0.27188 -1.25782,0.34018 -0.15373,0.0683 -0.65686,0.21364 -1.11806,0.32297 -0.4612,0.10933 -0.94336,0.25002 -1.07147,0.31263 -0.12812,0.0626 -0.60806,0.21138 -1.06654,0.33059 -0.45848,0.11921 -0.89872,0.25817 -0.9783,0.30878 -0.0796,0.0506 -0.56316,0.19596 -1.07462,0.32298 -0.51145,0.12702 -0.99362,0.27142 -1.07147,0.32089 -0.0779,0.0495 -0.56003,0.19388 -1.07148,0.3209 -0.51145,0.12702 -0.99362,0.27142 -1.07148,0.32089 -0.0779,0.0495 -0.56002,0.19388 -1.07147,0.32089 -0.51145,0.12703 -0.99362,0.27143 -1.07148,0.3209 -0.0779,0.0495 -0.56002,0.19387 -1.07147,0.32089 -0.51145,0.12703 -0.99362,0.27143 -1.07148,0.3209 -0.0779,0.0495 -0.55761,0.19326 -1.06612,0.31954 -0.50851,0.12628 -1.01164,0.27641 -1.11806,0.33363 -0.10643,0.0572 -0.57085,0.19802 -1.03205,0.31288 -0.4612,0.11487 -0.96432,0.26267 -1.11806,0.32845 -0.15373,0.0658 -0.69797,0.21439 -1.20943,0.33025 -0.51145,0.11587 -0.99362,0.25203 -1.07147,0.30259 -0.0779,0.0506 -0.64469,0.18935 -1.25962,0.30842 -0.61494,0.11908 -1.22288,0.26874 -1.35099,0.33257 -0.12812,0.0638 -0.75703,0.21159 -1.39758,0.32835 -0.64056,0.11676 -1.31139,0.25755 -1.49075,0.31286 -2.68759,0.82875 -10.92404,0.84295 -12.18327,0.021 -0.0891,-0.0581 -0.37163,-0.20169 -0.62785,-0.31897 -0.9404,-0.43043 -1.13686,-0.54121 -2.09636,-1.18203 -5.41037,-3.61339 -10.62353,-11.46132 -14.17819,-21.34395 -0.62869,-1.74787 -0.73492,-1.93697 -0.88119,-1.5686 z"
       id="path3012-1"
       inkscape:connector-curvature="0" />
    <text
       xml:space="preserve"
       style="font-size:24.06237411px;font-style:normal;font-weight:normal;line-height:125%;letter-spacing:0px;word-spacing:0px;fill:#00ff00;fill-opacity:1;stroke:none;font-family:Sans"
       x="122.26888"
       y="618.64771"
       id="text3032"
       sodipodi:linespacing="125%"
       inkscape:export-filename="D:\DATAS\__docs__\stage\Rapport de stage\images\url.png"
       inkscape:export-xdpi="90"
       inkscape:export-ydpi="90"><tspan
         sodipodi:role="line"
         id="tspan3034"
         x="122.26888"
         y="618.64771">protocole utilisé</tspan></text>
    <text
       xml:space="preserve"
       style="font-size:13.7590313px;font-style:normal;font-weight:normal;line-height:125%;letter-spacing:0px;word-spacing:0px;fill:#000000;fill-opacity:1;stroke:none;font-family:Sans"
       x="309.20221"
       y="638.3681"
       id="text3036"
       sodipodi:linespacing="125%"
       inkscape:export-filename="D:\DATAS\__docs__\stage\Rapport de stage\images\url.png"
       inkscape:export-xdpi="90"
       inkscape:export-ydpi="90"><tspan
         sodipodi:role="line"
         id="tspan3038"
         x="309.20221"
         y="638.3681">séparateur de protocole</tspan></text>
    <path
       style="fill:#ff0000;fill-opacity:1"
       d="m 318.49643,524.44061 c -0.0743,-0.14582 -0.0651,-0.20495 0.13279,-0.84689 0.30846,-1.00088 1.11544,-3.00359 1.64983,-4.09443 2.12537,-4.33845 5.01186,-7.20406 7.88804,-7.83097 0.82202,-0.17917 4.3439,-0.0538 5.35947,0.19067 0.088,0.0212 0.37602,0.0748 0.64013,0.11929 0.26411,0.0444 0.55212,0.10224 0.64002,0.12848 0.0879,0.0262 0.31408,0.0805 0.50264,0.12057 0.18855,0.04 0.43533,0.0964 0.54839,0.12529 0.11307,0.0289 0.33412,0.0821 0.4912,0.11854 0.55029,0.12736 0.85773,0.20657 0.97079,0.25011 0.0627,0.0242 0.26824,0.0816 0.45671,0.12765 0.18849,0.0461 0.37344,0.0987 0.41103,0.11704 0.0376,0.0183 0.23066,0.0723 0.42906,0.11989 0.19841,0.0476 0.39365,0.10284 0.43387,0.12271 0.0402,0.0199 0.23547,0.0751 0.43387,0.12271 0.1984,0.0477 0.39363,0.10321 0.43385,0.12354 0.0402,0.0204 0.24792,0.077 0.46157,0.12587 0.21365,0.0489 0.4192,0.10428 0.45678,0.12306 0.0376,0.0188 0.22251,0.0739 0.41096,0.12236 0.18845,0.0486 0.37338,0.10321 0.41096,0.12153 0.0376,0.0183 0.23067,0.0723 0.42907,0.11989 0.1984,0.0476 0.39364,0.10288 0.43386,0.12281 0.0402,0.0199 0.21704,0.0736 0.39291,0.11931 0.17588,0.0457 0.3711,0.10292 0.43381,0.1272 0.0627,0.0243 0.25796,0.0795 0.43387,0.1227 0.17591,0.0432 0.37114,0.0984 0.43386,0.12271 0.0627,0.0243 0.25796,0.0795 0.43387,0.12271 0.17591,0.0432 0.37115,0.0984 0.43387,0.1226 0.0627,0.0242 0.27638,0.081 0.47481,0.1261 0.19843,0.0452 0.39369,0.0983 0.43393,0.11814 0.0402,0.0199 0.27847,0.0763 0.52943,0.12536 0.25096,0.0491 0.48744,0.10491 0.5255,0.12397 0.0381,0.019 0.29557,0.0743 0.57224,0.12276 0.27666,0.0485 0.57496,0.10777 0.66289,0.13179 0.0879,0.024 0.53054,0.0864 0.98359,0.13874 2.21228,0.2553 3.01352,0.026 4.55277,-1.30271 1.26112,-1.08866 2.43813,-2.89171 2.81085,-4.30591 0.0969,-0.36781 0.17284,-0.35367 0.26815,0.05 0.52116,2.20692 2.9112,5.03582 4.76355,5.63823 0.2657,0.0864 2.56947,0.10681 2.72643,0.0242 0.0507,-0.0267 0.37109,-0.0852 0.7119,-0.13003 0.34082,-0.0448 0.65118,-0.0968 0.68971,-0.11563 0.0386,-0.0188 0.2763,-0.0695 0.52838,-0.11262 0.25209,-0.0432 0.51014,-0.0973 0.57343,-0.12034 0.0633,-0.0231 0.28046,-0.0754 0.4826,-0.11619 0.20214,-0.0409 0.41932,-0.0934 0.48261,-0.11672 0.0633,-0.0233 0.25983,-0.0746 0.43675,-0.11404 0.17692,-0.0394 0.39409,-0.0925 0.48262,-0.11808 0.0885,-0.0256 0.27476,-0.0773 0.41385,-0.11511 0.13909,-0.0378 0.32532,-0.0901 0.41386,-0.11631 0.0885,-0.0262 0.29542,-0.0799 0.45973,-0.11937 0.16431,-0.0395 0.35054,-0.0909 0.41384,-0.11432 0.0633,-0.0234 0.24954,-0.076 0.41386,-0.11677 0.16434,-0.0408 0.35057,-0.0932 0.41387,-0.11649 0.0633,-0.0232 0.27018,-0.0778 0.45975,-0.12123 0.18956,-0.0434 0.37797,-0.0952 0.41868,-0.11504 0.0407,-0.0199 0.23726,-0.0728 0.4368,-0.11763 0.19952,-0.0448 0.39388,-0.0961 0.4319,-0.11386 0.0381,-0.0178 0.22424,-0.0678 0.41381,-0.11127 0.18956,-0.0434 0.39645,-0.0978 0.45974,-0.12094 0.0633,-0.0232 0.27018,-0.0775 0.45974,-0.12094 0.18957,-0.0434 0.37579,-0.0939 0.41381,-0.1121 0.0381,-0.0182 0.24489,-0.0707 0.45969,-0.11664 0.2148,-0.0459 0.42166,-0.0984 0.45969,-0.11664 0.0381,-0.0183 0.22425,-0.0686 0.41382,-0.1121 0.18956,-0.0434 0.39645,-0.0981 0.45975,-0.12165 0.0633,-0.0235 0.30112,-0.0782 0.5285,-0.12153 0.22737,-0.0433 0.44492,-0.0937 0.48343,-0.1119 0.0386,-0.0182 0.26599,-0.0693 0.50548,-0.11368 0.23951,-0.0443 0.50784,-0.0974 0.59631,-0.11796 0.0885,-0.0205 0.38812,-0.0715 0.66587,-0.11335 0.27777,-0.0418 0.55156,-0.0945 0.60843,-0.11712 0.77417,-0.30786 5.20494,-0.28064 5.86869,0.0361 0.0422,0.0201 0.17609,0.0752 0.29752,0.12231 0.2218,0.0861 0.32074,0.13207 0.53131,0.24684 0.0626,0.0342 0.1924,0.0938 0.28845,0.13259 0.2978,0.12036 1.2144,0.74173 1.68973,1.14551 1.59804,1.35748 3.15265,3.5564 4.3591,6.16574 0.50309,1.08808 1.2585,3.09978 1.54627,4.11779 0.17651,0.62442 0.18383,0.68158 0.10592,0.82643 -0.0736,0.13687 -0.12507,0.0658 -0.42686,-0.58936 -1.15394,-2.5052 -2.76913,-4.77998 -4.51263,-6.35547 -0.58917,-0.53239 -1.70354,-1.32671 -2.24893,-1.60302 -0.20041,-0.10153 -0.40536,-0.20583 -0.45545,-0.23179 -0.0501,-0.0259 -0.19375,-0.0837 -0.31923,-0.1283 -0.253,-0.0899 -0.49865,-0.18425 -0.64081,-0.24599 -0.73552,-0.31951 -4.65891,-0.35402 -5.93178,-0.0522 -0.0885,0.0209 -0.41907,0.073 -0.73465,0.1157 -0.31558,0.0427 -0.64616,0.0941 -0.73463,0.11443 -0.0885,0.0203 -0.3778,0.0717 -0.64297,0.11431 -0.26518,0.0426 -0.55453,0.0955 -0.64302,0.11765 -0.0885,0.0221 -0.34687,0.0725 -0.5742,0.11196 -0.22733,0.0395 -0.48576,0.0932 -0.5743,0.1194 -0.0885,0.0262 -0.34697,0.08 -0.57429,0.11953 -0.22733,0.0395 -0.46511,0.0906 -0.5284,0.11352 -0.0633,0.0229 -0.30108,0.0751 -0.52842,0.11597 -0.22734,0.0409 -0.46513,0.0931 -0.52843,0.11597 -0.0633,0.0229 -0.30108,0.0751 -0.52842,0.11597 -0.22735,0.0409 -0.46514,0.0931 -0.52843,0.11598 -0.0633,0.0229 -0.30109,0.0755 -0.52844,0.11687 -0.22734,0.0414 -0.47547,0.0949 -0.55137,0.11896 -0.0759,0.0241 -0.30339,0.0758 -0.5055,0.11494 -0.20212,0.0391 -0.41927,0.0901 -0.48257,0.11313 -0.0633,0.0231 -0.30108,0.0754 -0.52843,0.11628 -0.22734,0.0409 -0.46512,0.0931 -0.52842,0.11597 -0.0633,0.0229 -0.30109,0.0755 -0.52844,0.11686 -0.22735,0.0414 -0.47547,0.0949 -0.55137,0.11898 -0.0759,0.0241 -0.30338,0.0751 -0.50549,0.11347 -0.20211,0.0384 -0.45022,0.0912 -0.55135,0.11734 -0.10114,0.0262 -0.36987,0.0789 -0.59719,0.11725 -0.22731,0.0383 -0.46508,0.0883 -0.52837,0.11122 -0.0633,0.0228 -0.35265,0.076 -0.64302,0.11806 -0.29037,0.042 -0.60033,0.0934 -0.6888,0.11412 -0.96544,0.226 -3.93549,0.30478 -4.44668,0.11795 -1.47698,-0.53983 -3.11495,-3.56187 -3.94341,-7.27554 -0.0762,-0.34165 -0.14497,-0.62123 -0.15278,-0.62128 -0.008,-6e-5 -0.0861,0.28211 -0.17394,0.62705 -0.45661,1.79268 -1.14364,3.60217 -1.80765,4.76092 -0.70422,1.22889 -1.6558,2.24974 -2.2837,2.44993 -0.54444,0.17356 -3.91393,0.0408 -4.42551,-0.17444 -0.0605,-0.0255 -0.36594,-0.0844 -0.67875,-0.13113 -0.31282,-0.0466 -0.60088,-0.10084 -0.64012,-0.12038 -0.0393,-0.0195 -0.28743,-0.0733 -0.55152,-0.11946 -0.2641,-0.0461 -0.54178,-0.10518 -0.61707,-0.13118 -0.0753,-0.026 -0.32209,-0.082 -0.54842,-0.12429 -0.22632,-0.0423 -0.46282,-0.0965 -0.52554,-0.12027 -0.0627,-0.0238 -0.2981,-0.0809 -0.52304,-0.12694 -0.22495,-0.0461 -0.44084,-0.0994 -0.47975,-0.11852 -0.0389,-0.0191 -0.27608,-0.075 -0.52705,-0.12413 -0.25096,-0.0491 -0.48744,-0.10463 -0.5255,-0.12334 -0.0381,-0.0187 -0.27455,-0.0742 -0.52552,-0.12336 -0.25096,-0.0491 -0.48745,-0.10463 -0.52551,-0.12334 -0.0381,-0.0187 -0.27454,-0.0742 -0.52551,-0.12336 -0.25096,-0.0491 -0.48744,-0.10463 -0.52552,-0.12334 -0.0381,-0.0187 -0.27454,-0.0742 -0.5255,-0.12336 -0.25097,-0.0491 -0.48745,-0.10463 -0.52552,-0.12335 -0.0381,-0.0187 -0.27336,-0.074 -0.52288,-0.12283 -0.24952,-0.0488 -0.49629,-0.10654 -0.54837,-0.12825 -0.0521,-0.0217 -0.27986,-0.0759 -0.50616,-0.12023 -0.2263,-0.0444 -0.47307,-0.10126 -0.54839,-0.12633 -0.0753,-0.0251 -0.3423,-0.0824 -0.59331,-0.12731 -0.25102,-0.045 -0.48754,-0.0974 -0.5256,-0.11653 -0.0381,-0.0191 -0.3162,-0.0728 -0.6181,-0.11934 -0.30189,-0.0465 -0.60021,-0.10442 -0.66293,-0.12866 -0.0627,-0.0242 -0.37135,-0.0815 -0.68586,-0.12725 -0.3145,-0.0457 -0.64379,-0.10056 -0.73175,-0.1218 -1.31804,-0.31829 -5.36879,-0.35194 -5.99184,-0.0498 -0.044,0.0213 -0.18369,0.074 -0.31023,0.11678 -0.46446,0.15727 -0.56158,0.19791 -1.03639,0.43356 -2.67732,1.32879 -5.27687,4.23732 -7.06999,7.91029 -0.31714,0.64961 -0.37024,0.71976 -0.4405,0.58189 z"
       id="path3012-4"
       inkscape:connector-curvature="0"
       inkscape:export-filename="D:\DATAS\__docs__\stage\Rapport de stage\images\url.png"
       inkscape:export-xdpi="90"
       inkscape:export-ydpi="90" />
    <text
       xml:space="preserve"
       style="font-size:19.9317646px;font-style:normal;font-weight:normal;line-height:125%;letter-spacing:0px;word-spacing:0px;fill:#ff0000;fill-opacity:1;stroke:none;font-family:Sans"
       x="222.50708"
       y="492.77597"
       id="text3076"
       sodipodi:linespacing="125%"
       inkscape:export-filename="D:\DATAS\__docs__\stage\Rapport de stage\images\url.png"
       inkscape:export-xdpi="90"
       inkscape:export-ydpi="90"><tspan
         sodipodi:role="line"
         id="tspan3078"
         x="222.50708"
         y="492.77597">utilisateur voulant se connecter</tspan></text>
    <path
       style="fill:#0000ff"
       d="m 412.53543,563.81086 c -0.23937,0.0926 -0.21248,0.13035 0.38528,0.54045 0.93197,0.63939 3.39379,1.91964 5.03303,2.61739 6.51953,2.77508 15.48975,4.61467 24.51328,5.02713 2.57893,0.11789 13.66247,0.0537 16.86648,-0.0976 0.27751,-0.0132 1.18571,-0.046 2.01823,-0.0732 0.83252,-0.0272 1.74071,-0.0627 2.01822,-0.079 0.27749,-0.0163 0.99107,-0.0499 1.58574,-0.0746 0.59465,-0.0247 1.3731,-0.0595 1.72988,-0.0774 0.35679,-0.0179 1.05415,-0.0509 1.5497,-0.0734 1.73588,-0.0787 2.70606,-0.12785 3.06337,-0.1551 0.19821,-0.0151 0.84693,-0.0508 1.44157,-0.0793 0.59466,-0.0285 1.1785,-0.0613 1.29743,-0.0728 0.11898,-0.0115 0.72837,-0.0451 1.3543,-0.0745 0.62593,-0.0295 1.2422,-0.0638 1.3695,-0.0763 0.12734,-0.0124 0.74358,-0.0468 1.36951,-0.0763 0.62593,-0.0295 1.24221,-0.064 1.3695,-0.0768 0.12734,-0.0128 0.78284,-0.048 1.45678,-0.0782 0.67394,-0.0302 1.32265,-0.0646 1.44158,-0.0764 0.11899,-0.0118 0.70277,-0.0461 1.29743,-0.0762 0.59465,-0.0301 1.17849,-0.0641 1.29742,-0.0756 0.11898,-0.0115 0.72836,-0.045 1.35431,-0.0745 0.62593,-0.0295 1.2422,-0.0638 1.36949,-0.0763 0.12733,-0.0125 0.68555,-0.046 1.24055,-0.0743 0.55501,-0.0284 1.17129,-0.064 1.3695,-0.0792 0.19822,-0.0152 0.81449,-0.0495 1.3695,-0.0763 0.55501,-0.0267 1.17129,-0.0611 1.3695,-0.0763 0.19822,-0.0152 0.81449,-0.0495 1.3695,-0.0763 0.55502,-0.0267 1.1713,-0.061 1.36952,-0.0762 0.19821,-0.0152 0.87251,-0.0504 1.49844,-0.0783 0.62593,-0.0279 1.2422,-0.0609 1.36951,-0.0734 0.12734,-0.0124 0.8789,-0.0473 1.67023,-0.0775 0.79134,-0.0302 1.53735,-0.0647 1.65782,-0.0767 0.12052,-0.012 0.93261,-0.046 1.80476,-0.0757 0.87216,-0.0296 1.81278,-0.0661 2.09029,-0.081 0.27752,-0.0149 1.67223,-0.0527 3.0994,-0.0841 6.9689,-0.15287 9.48058,-0.003 14.27166,0.85074 3.92538,0.69961 7.55881,1.85423 8.67709,2.7574 0.29085,0.23489 0.53013,0.22621 0.84544,-0.0307 1.72392,-1.4045 9.35061,-3.19714 15.20058,-3.57289 0.83912,-0.0539 8.08682,-0.0566 8.57741,-0.003 0.15858,0.0172 1.16408,0.056 2.23445,0.0861 1.07038,0.0301 2.04469,0.0646 2.16516,0.0768 0.12054,0.0121 0.8665,0.0455 1.65782,0.0741 0.79134,0.0286 1.60098,0.0643 1.79919,0.0793 0.19822,0.015 0.87936,0.0493 1.51365,0.0762 0.63432,0.027 1.31549,0.0614 1.5137,0.0765 0.19822,0.0152 0.81449,0.0487 1.3695,0.0747 0.55501,0.0259 1.23616,0.0607 1.51366,0.0774 0.27751,0.0167 0.86134,0.0505 1.29743,0.0752 0.43606,0.0247 1.01992,0.0589 1.29741,0.076 0.27751,0.0171 0.92622,0.0523 1.44159,0.0781 0.51537,0.0259 1.09921,0.0595 1.29743,0.0747 0.19821,0.0152 0.78206,0.0495 1.29741,0.0763 0.51537,0.0267 1.09921,0.061 1.29743,0.0761 0.19821,0.0151 0.84691,0.0508 1.44158,0.0793 0.59465,0.0285 1.18534,0.0624 1.31262,0.0752 0.12734,0.0128 0.74357,0.0475 1.36952,0.0769 0.62593,0.0295 1.23535,0.063 1.35429,0.0745 0.11898,0.0115 0.70277,0.0443 1.29741,0.0728 0.59466,0.0285 1.24338,0.0641 1.44159,0.0791 0.19822,0.015 0.84693,0.0506 1.44158,0.0791 0.59464,0.0285 1.1785,0.0615 1.29743,0.0733 0.11899,0.0118 0.76763,0.0462 1.44157,0.0764 0.67395,0.0302 1.32265,0.0646 1.44158,0.0764 0.11899,0.0118 0.70277,0.0448 1.29743,0.0733 0.59465,0.0285 1.24336,0.0643 1.44157,0.0796 0.19822,0.0153 0.94424,0.0512 1.65783,0.0798 0.71358,0.0286 1.39599,0.0617 1.51644,0.0735 0.12053,0.0118 0.83407,0.0454 1.58574,0.0747 0.75169,0.0293 1.59377,0.0644 1.87128,0.0779 0.27749,0.0135 1.21812,0.0473 2.09029,0.0752 0.87217,0.0279 1.73135,0.0627 1.90943,0.0774 2.42343,0.1997 16.36227,0.20213 18.46247,0.003 0.13307,-0.0127 0.5567,-0.0471 0.94057,-0.0766 0.70089,-0.0539 1.0139,-0.0828 1.68075,-0.15498 0.1982,-0.0215 0.60884,-0.0589 0.9124,-0.0832 0.9415,-0.0754 3.84858,-0.4674 5.3593,-0.72267 5.07893,-0.85821 10.05341,-2.253 13.94857,-3.91096 1.62412,-0.69136 4.07756,-1.97036 5.02168,-2.61803 0.57913,-0.39725 0.60435,-0.43365 0.36484,-0.52634 -0.22621,-0.0876 -0.39083,-0.0425 -1.36528,0.37379 -3.72588,1.59181 -8.89394,3.03469 -14.43873,4.03122 -1.87369,0.33675 -5.40957,0.83812 -7.13582,1.01182 -0.63437,0.0638 -1.28296,0.1294 -1.44155,0.14573 -0.1586,0.0163 -0.6127,0.0525 -1.00911,0.0803 -0.79929,0.0562 -1.57569,0.11523 -2.02517,0.15397 -2.3261,0.20038 -14.66912,0.20487 -18.66159,0.007 -0.27742,-0.0137 -1.31546,-0.0484 -2.30646,-0.077 -0.99115,-0.0286 -2.0291,-0.0629 -2.30659,-0.0762 -0.27751,-0.0133 -1.18571,-0.0474 -2.01822,-0.0757 -0.83252,-0.0284 -1.74072,-0.0634 -2.01822,-0.0779 -0.2775,-0.0145 -1.08839,-0.0478 -1.80197,-0.0739 -0.71358,-0.0261 -1.52447,-0.0616 -1.80198,-0.0787 -0.27749,-0.0171 -1.0884,-0.0526 -1.80198,-0.0788 -0.71358,-0.0262 -1.45959,-0.0598 -1.65781,-0.0747 -0.19821,-0.0149 -0.94424,-0.0492 -1.65782,-0.0763 -0.71358,-0.0271 -1.4596,-0.0614 -1.65782,-0.0763 -0.19821,-0.0149 -0.94424,-0.0492 -1.65782,-0.0763 -0.71358,-0.0271 -1.45959,-0.0614 -1.65781,-0.0763 -0.19821,-0.0149 -0.94425,-0.0495 -1.65783,-0.0769 -0.71358,-0.0274 -1.49204,-0.0626 -1.72989,-0.0783 -0.23785,-0.0157 -0.95144,-0.0497 -1.58574,-0.0755 -0.6343,-0.0259 -1.31544,-0.0593 -1.51366,-0.0743 -0.19823,-0.015 -0.94424,-0.0494 -1.65782,-0.0765 -0.71358,-0.0271 -1.45959,-0.0614 -1.65781,-0.0763 -0.19821,-0.0149 -0.94425,-0.0495 -1.65783,-0.0769 -0.71358,-0.0274 -1.49203,-0.0626 -1.72989,-0.0783 -0.23786,-0.0157 -0.95146,-0.0492 -1.58574,-0.0746 -0.6343,-0.0253 -1.41275,-0.0601 -1.72989,-0.0773 -0.31717,-0.0171 -1.1605,-0.052 -1.87409,-0.0774 -0.71358,-0.0254 -1.45961,-0.0584 -1.65783,-0.0733 -0.19821,-0.0149 -1.1064,-0.05 -2.0182,-0.0781 -0.9118,-0.0281 -1.88487,-0.0622 -2.16237,-0.0758 -3.02832,-0.14838 -12.36814,-0.21185 -13.98334,-0.095 -4.66679,0.33752 -9.93508,2.25664 -12.68341,4.62026 -0.25283,0.21745 -0.47982,0.39536 -0.5044,0.39536 -0.0246,0 -0.25999,-0.18022 -0.52313,-0.40049 -1.36767,-1.1448 -3.45954,-2.30135 -5.50393,-3.04296 -2.16817,-0.78652 -5.12243,-1.44151 -7.08997,-1.57192 -1.70595,-0.11307 -12.3104,-0.0435 -13.92788,0.0914 -0.19128,0.0159 -1.15437,0.0522 -2.14018,0.0806 -0.98581,0.0284 -1.89401,0.0616 -2.01822,0.0739 -0.12423,0.0123 -0.90696,0.0454 -1.73948,0.0737 -0.83252,0.0282 -1.70828,0.0646 -1.94614,0.0809 -0.23786,0.0162 -1.01631,0.0508 -1.72989,0.0768 -0.71358,0.026 -1.45959,0.0594 -1.65781,0.0743 -0.19823,0.0149 -0.94081,0.0502 -1.65018,0.0786 -0.70938,0.0284 -1.39053,0.0614 -1.51366,0.0734 -0.12316,0.012 -0.87133,0.0466 -1.66269,0.0768 -0.79132,0.0302 -1.53735,0.0645 -1.6578,0.0763 -0.12053,0.0118 -0.8665,0.0461 -1.65782,0.0763 -0.79133,0.0302 -1.53737,0.0645 -1.65784,0.0763 -0.12052,0.0118 -0.86647,0.0461 -1.6578,0.0763 -0.79133,0.0302 -1.53736,0.0645 -1.65783,0.0763 -0.12052,0.0118 -0.86647,0.0461 -1.6578,0.0763 -0.79134,0.0302 -1.53737,0.0645 -1.65784,0.0763 -0.12052,0.0118 -0.86275,0.0459 -1.64953,0.076 -0.78678,0.03 -1.56523,0.0657 -1.72989,0.0793 -0.16468,0.0136 -0.88324,0.0471 -1.59682,0.0744 -0.71359,0.0273 -1.49202,0.0624 -1.7299,0.0781 -0.23785,0.0156 -1.07991,0.051 -1.87126,0.0785 -0.79133,0.0276 -1.53736,0.0599 -1.65781,0.0719 -0.12053,0.012 -0.99749,0.045 -1.94892,0.0733 -0.95145,0.0283 -1.89208,0.0639 -2.09029,0.0791 -0.19823,0.0151 -1.1713,0.0503 -2.16238,0.078 -0.99109,0.0278 -2.02903,0.0612 -2.30653,0.0744 -4.15832,0.19702 -16.902,0.20039 -18.85031,0.005 -0.13786,-0.0138 -0.575,-0.0479 -0.97144,-0.0758 -1.45501,-0.10233 -1.75897,-0.12867 -3.24354,-0.28101 -8.37109,-0.859 -16.43705,-2.72466 -21.93692,-5.07403 -0.97272,-0.41552 -1.13708,-0.46047 -1.3634,-0.3729 z"
       id="path3012-1-0"
       inkscape:connector-curvature="0"
       inkscape:export-filename="D:\DATAS\__docs__\stage\Rapport de stage\images\url.png"
       inkscape:export-xdpi="90"
       inkscape:export-ydpi="90" />
    <text
       xml:space="preserve"
       style="font-size:20.25251961px;font-style:normal;font-weight:normal;line-height:125%;letter-spacing:0px;word-spacing:0px;fill:#0000ff;fill-opacity:1;stroke:none;font-family:Sans"
       x="387.17999"
       y="595.77972"
       id="text3098"
       sodipodi:linespacing="125%"
       inkscape:export-filename="D:\DATAS\__docs__\stage\Rapport de stage\images\url.png"
       inkscape:export-xdpi="90"
       inkscape:export-ydpi="90"><tspan
         sodipodi:role="line"
         id="tspan3100"
         x="387.17999"
         y="595.77972">mot de passe en clair de l'utilisateur</tspan></text>
    <path
       style="fill:#ff00ff;fill-opacity:1"
       d="m 691.24271,522.15266 c -0.0743,-0.0873 -0.0651,-0.12264 0.13279,-0.50676 0.30846,-0.5989 1.11544,-1.79727 1.64983,-2.45 2.12537,-2.59601 5.01186,-4.31072 7.88804,-4.68585 0.82202,-0.10721 4.3439,-0.0322 5.35947,0.11409 0.088,0.0127 0.37602,0.0448 0.64013,0.0714 0.26411,0.0266 0.55212,0.0612 0.64002,0.0769 0.0879,0.0157 0.31408,0.0482 0.50264,0.0722 0.18855,0.0239 0.43533,0.0577 0.54839,0.075 0.11307,0.0173 0.33412,0.0491 0.4912,0.0709 0.55029,0.0762 0.85773,0.12361 0.97079,0.14966 0.0627,0.0145 0.26824,0.0488 0.45671,0.0764 0.18849,0.0276 0.37344,0.0591 0.41103,0.07 0.0376,0.0109 0.23066,0.0433 0.42906,0.0717 0.19841,0.0285 0.39365,0.0615 0.43387,0.0734 0.0402,0.0119 0.23547,0.0449 0.43387,0.0734 0.1984,0.0285 0.39363,0.0618 0.43385,0.0739 0.0402,0.0122 0.24792,0.0461 0.46157,0.0753 0.21365,0.0293 0.4192,0.0624 0.45678,0.0736 0.0376,0.0112 0.22251,0.0442 0.41096,0.0732 0.18845,0.0291 0.37338,0.0618 0.41096,0.0727 0.0376,0.0109 0.23067,0.0433 0.42907,0.0717 0.1984,0.0285 0.39364,0.0616 0.43386,0.0735 0.0402,0.0119 0.21704,0.044 0.39291,0.0714 0.17588,0.0273 0.3711,0.0616 0.43381,0.0761 0.0627,0.0145 0.25796,0.0476 0.43387,0.0734 0.17591,0.0258 0.37114,0.0589 0.43386,0.0734 0.0627,0.0145 0.25796,0.0476 0.43387,0.0734 0.17591,0.0258 0.37115,0.0589 0.43387,0.0734 0.0627,0.0145 0.27638,0.0485 0.47481,0.0755 0.19843,0.0271 0.39369,0.0588 0.43393,0.0707 0.0402,0.0119 0.27847,0.0457 0.52943,0.075 0.25096,0.0294 0.48744,0.0628 0.5255,0.0742 0.0381,0.0114 0.29557,0.0445 0.57224,0.0735 0.27666,0.029 0.57496,0.0645 0.66289,0.0789 0.0879,0.0144 0.53054,0.0517 0.98359,0.083 2.21228,0.15277 3.01352,0.0156 4.55277,-0.77951 1.26112,-0.65142 2.43813,-1.73032 2.81085,-2.57654 0.0969,-0.22009 0.17284,-0.21163 0.26815,0.0299 0.52116,1.32056 2.9112,3.0133 4.76355,3.37377 0.2657,0.0517 2.56947,0.0639 2.72643,0.0145 0.0507,-0.016 0.37109,-0.051 0.7119,-0.0778 0.34082,-0.0268 0.65118,-0.0579 0.68971,-0.0692 0.0386,-0.0113 0.2763,-0.0416 0.52838,-0.0674 0.25209,-0.0258 0.51014,-0.0582 0.57343,-0.072 0.0633,-0.0138 0.28046,-0.0451 0.4826,-0.0695 0.20214,-0.0245 0.41932,-0.0559 0.48261,-0.0698 0.0633,-0.014 0.25983,-0.0446 0.43675,-0.0682 0.17692,-0.0236 0.39409,-0.0553 0.48262,-0.0707 0.0885,-0.0153 0.27476,-0.0462 0.41385,-0.0689 0.13909,-0.0226 0.32532,-0.0539 0.41386,-0.0696 0.0885,-0.0157 0.29542,-0.0478 0.45973,-0.0714 0.16431,-0.0236 0.35054,-0.0544 0.41384,-0.0684 0.0633,-0.014 0.24954,-0.0455 0.41386,-0.0699 0.16434,-0.0244 0.35057,-0.0558 0.41387,-0.0697 0.0633,-0.0139 0.27018,-0.0466 0.45975,-0.0726 0.18956,-0.026 0.37797,-0.057 0.41868,-0.0688 0.0407,-0.0119 0.23726,-0.0436 0.4368,-0.0704 0.19952,-0.0268 0.39388,-0.0575 0.4319,-0.0681 0.0381,-0.0106 0.22424,-0.0406 0.41381,-0.0666 0.18956,-0.026 0.39645,-0.0585 0.45974,-0.0724 0.0633,-0.0139 0.27018,-0.0464 0.45974,-0.0724 0.18957,-0.026 0.37579,-0.0562 0.41381,-0.0671 0.0381,-0.0109 0.24489,-0.0423 0.45969,-0.0698 0.2148,-0.0275 0.42166,-0.0589 0.45969,-0.0698 0.0381,-0.011 0.22425,-0.041 0.41382,-0.0671 0.18956,-0.026 0.39645,-0.0587 0.45975,-0.0728 0.0633,-0.0141 0.30112,-0.0468 0.5285,-0.0727 0.22737,-0.0259 0.44492,-0.0561 0.48343,-0.067 0.0386,-0.0109 0.26599,-0.0415 0.50548,-0.068 0.23951,-0.0265 0.50784,-0.0583 0.59631,-0.0706 0.0885,-0.0123 0.38812,-0.0428 0.66587,-0.0678 0.27777,-0.025 0.55156,-0.0565 0.60843,-0.0701 0.77417,-0.18421 5.20494,-0.16792 5.86869,0.0216 0.0422,0.012 0.17609,0.045 0.29752,0.0732 0.2218,0.0515 0.32074,0.079 0.53131,0.14771 0.0626,0.0205 0.1924,0.0561 0.28845,0.0793 0.2978,0.072 1.2144,0.44384 1.68973,0.68545 1.59804,0.81228 3.15265,2.12806 4.3591,3.68942 0.50309,0.65108 1.2585,1.85483 1.54627,2.46398 0.17651,0.37363 0.18383,0.40784 0.10592,0.49451 -0.0736,0.0819 -0.12507,0.0394 -0.42686,-0.35266 -1.15394,-1.49904 -2.76913,-2.86021 -4.51263,-3.80295 -0.58917,-0.31856 -1.70354,-0.79387 -2.24893,-0.9592 -0.20041,-0.0607 -0.40536,-0.12317 -0.45545,-0.1387 -0.0501,-0.0155 -0.19375,-0.0501 -0.31923,-0.0768 -0.253,-0.0538 -0.49865,-0.11025 -0.64081,-0.14719 -0.73552,-0.19119 -4.65891,-0.21184 -5.93178,-0.0312 -0.0885,0.0125 -0.41907,0.0437 -0.73465,0.0692 -0.31558,0.0255 -0.64616,0.0563 -0.73463,0.0685 -0.0885,0.0122 -0.3778,0.0429 -0.64297,0.0684 -0.26518,0.0255 -0.55453,0.0571 -0.64302,0.0704 -0.0885,0.0132 -0.34687,0.0434 -0.5742,0.067 -0.22733,0.0236 -0.48576,0.0558 -0.5743,0.0714 -0.0885,0.0157 -0.34697,0.0479 -0.57429,0.0715 -0.22733,0.0236 -0.46511,0.0542 -0.5284,0.0679 -0.0633,0.0137 -0.30108,0.0449 -0.52842,0.0694 -0.22734,0.0245 -0.46513,0.0557 -0.52843,0.0694 -0.0633,0.0137 -0.30108,0.0449 -0.52842,0.0694 -0.22735,0.0245 -0.46514,0.0557 -0.52843,0.0694 -0.0633,0.0137 -0.30109,0.0452 -0.52844,0.0699 -0.22734,0.0248 -0.47547,0.0568 -0.55137,0.0712 -0.0759,0.0144 -0.30339,0.0454 -0.5055,0.0688 -0.20212,0.0234 -0.41927,0.0539 -0.48257,0.0677 -0.0633,0.0138 -0.30108,0.0451 -0.52843,0.0696 -0.22734,0.0245 -0.46512,0.0557 -0.52842,0.0694 -0.0633,0.0137 -0.30109,0.0452 -0.52844,0.0699 -0.22735,0.0248 -0.47547,0.0568 -0.55137,0.0712 -0.0759,0.0144 -0.30338,0.0449 -0.50549,0.0679 -0.20211,0.023 -0.45022,0.0546 -0.55135,0.0702 -0.10114,0.0157 -0.36987,0.0472 -0.59719,0.0702 -0.22731,0.0229 -0.46508,0.0528 -0.52837,0.0666 -0.0633,0.0136 -0.35265,0.0455 -0.64302,0.0707 -0.29037,0.0251 -0.60033,0.0559 -0.6888,0.0683 -0.96544,0.13524 -3.93549,0.18238 -4.44668,0.0706 -1.47698,-0.32302 -3.11495,-2.13133 -3.94341,-4.35349 -0.0762,-0.20444 -0.14497,-0.37173 -0.15278,-0.37176 -0.008,-4e-5 -0.0861,0.16881 -0.17394,0.37521 -0.45661,1.07269 -1.14364,2.15545 -1.80765,2.84881 -0.70422,0.73534 -1.6558,1.34619 -2.2837,1.46598 -0.54444,0.10385 -3.91393,0.0244 -4.42551,-0.10438 -0.0605,-0.0153 -0.36594,-0.0505 -0.67875,-0.0785 -0.31282,-0.0279 -0.60088,-0.0603 -0.64012,-0.072 -0.0393,-0.0117 -0.28743,-0.0439 -0.55152,-0.0715 -0.2641,-0.0276 -0.54178,-0.0629 -0.61707,-0.0785 -0.0753,-0.0156 -0.32209,-0.0491 -0.54842,-0.0744 -0.22632,-0.0253 -0.46282,-0.0577 -0.52554,-0.072 -0.0627,-0.0142 -0.2981,-0.0484 -0.52304,-0.076 -0.22495,-0.0276 -0.44084,-0.0595 -0.47975,-0.0709 -0.0389,-0.0114 -0.27608,-0.0449 -0.52705,-0.0743 -0.25096,-0.0294 -0.48744,-0.0626 -0.5255,-0.0738 -0.0381,-0.0112 -0.27455,-0.0444 -0.52552,-0.0738 -0.25096,-0.0294 -0.48745,-0.0626 -0.52551,-0.0738 -0.0381,-0.0112 -0.27454,-0.0444 -0.52551,-0.0738 -0.25096,-0.0294 -0.48744,-0.0626 -0.52552,-0.0738 -0.0381,-0.0112 -0.27454,-0.0444 -0.5255,-0.0738 -0.25097,-0.0294 -0.48745,-0.0626 -0.52552,-0.0738 -0.0381,-0.0112 -0.27336,-0.0443 -0.52288,-0.0735 -0.24952,-0.0292 -0.49629,-0.0638 -0.54837,-0.0767 -0.0521,-0.013 -0.27986,-0.0454 -0.50616,-0.072 -0.2263,-0.0266 -0.47307,-0.0606 -0.54839,-0.0756 -0.0753,-0.015 -0.3423,-0.0493 -0.59331,-0.0762 -0.25102,-0.0269 -0.48754,-0.0583 -0.5256,-0.0697 -0.0381,-0.0114 -0.3162,-0.0436 -0.6181,-0.0714 -0.30189,-0.0278 -0.60021,-0.0625 -0.66293,-0.077 -0.0627,-0.0145 -0.37135,-0.0488 -0.68586,-0.0761 -0.3145,-0.0273 -0.64379,-0.0602 -0.73175,-0.0729 -1.31804,-0.19046 -5.36879,-0.21059 -5.99184,-0.0298 -0.044,0.0127 -0.18369,0.0443 -0.31023,0.0699 -0.46446,0.0941 -0.56158,0.11842 -1.03639,0.25943 -2.67732,0.79511 -5.27687,2.5355 -7.06999,4.73331 -0.31714,0.38871 -0.37024,0.43069 -0.4405,0.34819 z"
       id="path3012-4-9"
       inkscape:connector-curvature="0"
       inkscape:export-filename="D:\DATAS\__docs__\stage\Rapport de stage\images\url.png"
       inkscape:export-xdpi="90"
       inkscape:export-ydpi="90" />
    <path
       style="fill:#ff6600;fill-opacity:1"
       d="m 778.11583,563.38993 c -0.0743,0.11767 -0.0651,0.16545 0.13279,0.6837 0.30846,0.80804 1.11544,2.42486 1.64983,3.30552 2.12537,3.50251 5.01186,5.81597 7.88804,6.32209 0.82202,0.14464 4.3439,0.0434 5.35947,-0.15394 0.088,-0.0172 0.37602,-0.0604 0.64013,-0.0964 0.26411,-0.0358 0.55212,-0.0825 0.64002,-0.10369 0.0879,-0.0212 0.31408,-0.065 0.50264,-0.0973 0.18855,-0.0323 0.43533,-0.0779 0.54839,-0.10116 0.11307,-0.0233 0.33412,-0.0663 0.4912,-0.0957 0.55029,-0.10276 0.85773,-0.16676 0.97079,-0.20191 0.0627,-0.0196 0.26824,-0.0659 0.45671,-0.10303 0.18849,-0.0373 0.37344,-0.0797 0.41103,-0.0945 0.0376,-0.0148 0.23066,-0.0584 0.42906,-0.0968 0.19841,-0.0385 0.39365,-0.0831 0.43387,-0.099 0.0402,-0.0161 0.23547,-0.0606 0.43387,-0.099 0.1984,-0.0385 0.39363,-0.0833 0.43385,-0.0997 0.0402,-0.0165 0.24792,-0.0622 0.46157,-0.10156 0.21365,-0.0395 0.4192,-0.0841 0.45678,-0.0993 0.0376,-0.0152 0.22251,-0.0596 0.41096,-0.0988 0.18845,-0.0393 0.37338,-0.0833 0.41096,-0.0981 0.0376,-0.0148 0.23067,-0.0584 0.42907,-0.0968 0.1984,-0.0385 0.39364,-0.0831 0.43386,-0.0992 0.0402,-0.0161 0.21704,-0.0594 0.39291,-0.0964 0.17588,-0.0369 0.3711,-0.0831 0.43381,-0.10276 0.0627,-0.0196 0.25796,-0.0642 0.43387,-0.099 0.17591,-0.0349 0.37114,-0.0795 0.43386,-0.099 0.0627,-0.0196 0.25796,-0.0642 0.43387,-0.099 0.17591,-0.0349 0.37115,-0.0795 0.43387,-0.0989 0.0627,-0.0196 0.27638,-0.0654 0.47481,-0.10183 0.19843,-0.0365 0.39369,-0.0793 0.43393,-0.0954 0.0402,-0.0161 0.27847,-0.0616 0.52943,-0.10116 0.25096,-0.0397 0.48744,-0.0847 0.5255,-0.1001 0.0381,-0.0153 0.29557,-0.06 0.57224,-0.0992 0.27666,-0.0391 0.57496,-0.0871 0.66289,-0.10635 0.0879,-0.0194 0.53054,-0.0697 0.98359,-0.11208 2.21228,-0.20611 3.01352,-0.021 4.55277,1.0517 1.26112,0.87891 2.43813,2.33454 2.81085,3.47625 0.0969,0.29694 0.17284,0.28552 0.26815,-0.0403 0.52116,-1.78169 2.9112,-4.06551 4.76355,-4.55185 0.2657,-0.0697 2.56947,-0.0862 2.72643,-0.0196 0.0507,0.0216 0.37109,0.0688 0.7119,0.10502 0.34082,0.0362 0.65118,0.0781 0.68971,0.0933 0.0386,0.0152 0.2763,0.056 0.52838,0.0909 0.25209,0.0349 0.51014,0.0785 0.57343,0.0972 0.0633,0.0186 0.28046,0.0608 0.4826,0.0938 0.20214,0.033 0.41932,0.0753 0.48261,0.0942 0.0633,0.0188 0.25983,0.0602 0.43675,0.0921 0.17692,0.0318 0.39409,0.0747 0.48262,0.0953 0.0885,0.0206 0.27476,0.0624 0.41385,0.0929 0.13909,0.0305 0.32532,0.0727 0.41386,0.0938 0.0885,0.0212 0.29542,0.0646 0.45973,0.0964 0.16431,0.0319 0.35054,0.0733 0.41384,0.0922 0.0633,0.0189 0.24954,0.0614 0.41386,0.0942 0.16434,0.0329 0.35057,0.0752 0.41387,0.0941 0.0633,0.0188 0.27018,0.0628 0.45975,0.0978 0.18956,0.035 0.37797,0.0768 0.41868,0.0929 0.0407,0.0161 0.23726,0.0588 0.4368,0.0949 0.19952,0.0362 0.39388,0.0776 0.4319,0.092 0.0381,0.0144 0.22424,0.0547 0.41381,0.0899 0.18956,0.035 0.39645,0.0789 0.45974,0.0977 0.0633,0.0188 0.27018,0.0626 0.45974,0.0977 0.18957,0.035 0.37579,0.0759 0.41381,0.0905 0.0381,0.0146 0.24489,0.0571 0.45969,0.0941 0.2148,0.037 0.42166,0.0795 0.45969,0.0941 0.0381,0.0148 0.22425,0.0554 0.41382,0.0905 0.18956,0.035 0.39645,0.0792 0.45975,0.0982 0.0633,0.019 0.30112,0.0631 0.5285,0.0981 0.22737,0.035 0.44492,0.0756 0.48343,0.0904 0.0386,0.0146 0.26599,0.0559 0.50548,0.0917 0.23951,0.0358 0.50784,0.0787 0.59631,0.0953 0.0885,0.0165 0.38812,0.0578 0.66587,0.0916 0.27777,0.0338 0.55156,0.0763 0.60843,0.0945 0.77417,0.24854 5.20494,0.22657 5.86869,-0.0291 0.0422,-0.0162 0.17609,-0.0607 0.29752,-0.0988 0.2218,-0.0695 0.32074,-0.10662 0.53131,-0.19928 0.0626,-0.0276 0.1924,-0.0757 0.28845,-0.10702 0.2978,-0.0972 1.2144,-0.59881 1.68973,-0.9248 1.59804,-1.09592 3.15265,-2.87115 4.3591,-4.97772 0.50309,-0.87843 1.2585,-2.50251 1.54627,-3.32436 0.17651,-0.50412 0.18383,-0.55027 0.10592,-0.6672 -0.0736,-0.11049 -0.12507,-0.0531 -0.42686,0.4758 -1.15394,2.02249 -2.76913,3.85898 -4.51263,5.1309 -0.58917,0.4298 -1.70354,1.07107 -2.24893,1.29414 -0.20041,0.082 -0.40536,0.16617 -0.45545,0.18713 -0.0501,0.0209 -0.19375,0.0676 -0.31923,0.10356 -0.253,0.0725 -0.49865,0.14875 -0.64081,0.19858 -0.73552,0.25796 -4.65891,0.28582 -5.93178,0.0422 -0.0885,-0.0169 -0.41907,-0.059 -0.73465,-0.0934 -0.31558,-0.0345 -0.64616,-0.076 -0.73463,-0.0924 -0.0885,-0.0164 -0.3778,-0.0579 -0.64297,-0.0922 -0.26518,-0.0343 -0.55453,-0.0771 -0.64302,-0.095 -0.0885,-0.0178 -0.34687,-0.0586 -0.5742,-0.0904 -0.22733,-0.032 -0.48576,-0.0752 -0.5743,-0.0964 -0.0885,-0.0212 -0.34697,-0.0646 -0.57429,-0.0965 -0.22733,-0.0319 -0.46511,-0.0731 -0.5284,-0.0916 -0.0633,-0.0185 -0.30108,-0.0607 -0.52842,-0.0936 -0.22734,-0.033 -0.46513,-0.0752 -0.52843,-0.0936 -0.0633,-0.0185 -0.30108,-0.0606 -0.52842,-0.0936 -0.22735,-0.033 -0.46514,-0.0752 -0.52843,-0.0936 -0.0633,-0.0185 -0.30109,-0.061 -0.52844,-0.0944 -0.22734,-0.0334 -0.47547,-0.0765 -0.55137,-0.096 -0.0759,-0.0194 -0.30339,-0.0612 -0.5055,-0.0928 -0.20212,-0.0315 -0.41927,-0.0727 -0.48257,-0.0913 -0.0633,-0.0186 -0.30108,-0.0608 -0.52843,-0.0938 -0.22734,-0.033 -0.46512,-0.0752 -0.52842,-0.0936 -0.0633,-0.0185 -0.30109,-0.061 -0.52844,-0.0944 -0.22735,-0.0334 -0.47547,-0.0765 -0.55137,-0.0961 -0.0759,-0.0194 -0.30338,-0.0606 -0.50549,-0.0916 -0.20211,-0.031 -0.45022,-0.0736 -0.55135,-0.0948 -0.10114,-0.0212 -0.36987,-0.0638 -0.59719,-0.0946 -0.22731,-0.0309 -0.46508,-0.0712 -0.52837,-0.0899 -0.0633,-0.0184 -0.35265,-0.0614 -0.64302,-0.0953 -0.29037,-0.0339 -0.60033,-0.0753 -0.6888,-0.0921 -0.96544,-0.18245 -3.93549,-0.24605 -4.44668,-0.0952 -1.47698,0.43581 -3.11495,2.87557 -3.94341,5.87368 -0.0762,0.27582 -0.14497,0.50153 -0.15278,0.50157 -0.008,6e-5 -0.0861,-0.22775 -0.17394,-0.50623 -0.45661,-1.44727 -1.14364,-2.9081 -1.80765,-3.84358 -0.70422,-0.99211 -1.6558,-1.81626 -2.2837,-1.97787 -0.54444,-0.14013 -3.91393,-0.033 -4.42551,0.14082 -0.0605,0.0206 -0.36594,0.0682 -0.67875,0.10582 -0.31282,0.0377 -0.60088,0.0815 -0.64012,0.0972 -0.0393,0.0157 -0.28743,0.0591 -0.55152,0.0965 -0.2641,0.0373 -0.54178,0.0849 -0.61707,0.10595 -0.0753,0.021 -0.32209,0.0662 -0.54842,0.10037 -0.22632,0.0342 -0.46282,0.0779 -0.52554,0.097 -0.0627,0.0192 -0.2981,0.0654 -0.52304,0.1025 -0.22495,0.0373 -0.44084,0.0803 -0.47975,0.0957 -0.0389,0.0154 -0.27608,0.0606 -0.52705,0.10023 -0.25096,0.0397 -0.48744,0.0845 -0.5255,0.0996 -0.0381,0.015 -0.27455,0.0599 -0.52552,0.0996 -0.25096,0.0397 -0.48745,0.0845 -0.52551,0.0996 -0.0381,0.015 -0.27454,0.0599 -0.52551,0.0996 -0.25096,0.0397 -0.48744,0.0845 -0.52552,0.0996 -0.0381,0.015 -0.27454,0.0599 -0.5255,0.0996 -0.25097,0.0397 -0.48745,0.0845 -0.52552,0.0996 -0.0381,0.015 -0.27336,0.0598 -0.52288,0.0992 -0.24952,0.0394 -0.49629,0.086 -0.54837,0.10356 -0.0521,0.0176 -0.27986,0.0612 -0.50616,0.097 -0.2263,0.0358 -0.47307,0.0817 -0.54839,0.10196 -0.0753,0.0202 -0.3423,0.0666 -0.59331,0.10276 -0.25102,0.0363 -0.48754,0.0787 -0.5256,0.0941 -0.0381,0.0154 -0.3162,0.0588 -0.6181,0.0964 -0.30189,0.0375 -0.60021,0.0843 -0.66293,0.10383 -0.0627,0.0196 -0.37135,0.0658 -0.68586,0.10276 -0.3145,0.0369 -0.64379,0.0812 -0.73175,0.0984 -1.31804,0.25697 -5.36879,0.28412 -5.99184,0.0402 -0.044,-0.0172 -0.18369,-0.0598 -0.31023,-0.0942 -0.46446,-0.12699 -0.56158,-0.15978 -1.03639,-0.35003 -2.67732,-1.07275 -5.27687,-3.42087 -7.06999,-6.38613 -0.31714,-0.52444 -0.37024,-0.58107 -0.4405,-0.46976 z"
       id="path3012-4-9-4"
       inkscape:connector-curvature="0"
       inkscape:export-filename="D:\DATAS\__docs__\stage\Rapport de stage\images\url.png"
       inkscape:export-xdpi="90"
       inkscape:export-ydpi="90" />
    <path
       style="fill:#00ffdf;fill-opacity:1"
       d="m 863.97881,530.15472 c -0.0743,-0.10678 -0.0651,-0.15007 0.13279,-0.62013 0.30846,-0.7329 1.11544,-2.19938 1.64983,-2.99815 2.12537,-3.17683 5.01186,-5.27517 7.88804,-5.73422 0.82202,-0.1312 4.3439,-0.0394 5.35947,0.13962 0.088,0.0155 0.37602,0.0548 0.64013,0.0874 0.26411,0.0325 0.55212,0.0749 0.64002,0.0941 0.0879,0.0192 0.31408,0.0589 0.50264,0.0883 0.18855,0.0293 0.43533,0.0706 0.54839,0.0917 0.11307,0.0212 0.33412,0.0601 0.4912,0.0868 0.55029,0.0933 0.85773,0.15126 0.97079,0.18314 0.0627,0.0177 0.26824,0.0598 0.45671,0.0935 0.18849,0.0338 0.37344,0.0723 0.41103,0.0857 0.0376,0.0134 0.23066,0.053 0.42906,0.0878 0.19841,0.0349 0.39365,0.0753 0.43387,0.0899 0.0402,0.0146 0.23547,0.055 0.43387,0.0899 0.1984,0.0349 0.39363,0.0756 0.43385,0.0905 0.0402,0.0149 0.24792,0.0564 0.46157,0.0922 0.21365,0.0358 0.4192,0.0764 0.45678,0.0901 0.0376,0.0138 0.22251,0.0541 0.41096,0.0896 0.18845,0.0356 0.37338,0.0756 0.41096,0.089 0.0376,0.0134 0.23067,0.0529 0.42907,0.0878 0.1984,0.0349 0.39364,0.0753 0.43386,0.0899 0.0402,0.0146 0.21704,0.0539 0.39291,0.0874 0.17588,0.0335 0.3711,0.0754 0.43381,0.0931 0.0627,0.0178 0.25796,0.0582 0.43387,0.0899 0.17591,0.0316 0.37114,0.0721 0.43386,0.0899 0.0627,0.0178 0.25796,0.0582 0.43387,0.0899 0.17591,0.0316 0.37115,0.072 0.43387,0.0898 0.0627,0.0177 0.27638,0.0593 0.47481,0.0923 0.19843,0.0331 0.39369,0.072 0.43393,0.0865 0.0402,0.0146 0.27847,0.0559 0.52943,0.0918 0.25096,0.036 0.48744,0.0768 0.5255,0.0908 0.0381,0.0139 0.29557,0.0544 0.57224,0.0899 0.27666,0.0355 0.57496,0.0789 0.66289,0.0965 0.0879,0.0176 0.53054,0.0633 0.98359,0.1016 2.21228,0.18694 3.01352,0.019 4.55277,-0.95391 1.26112,-0.79717 2.43813,-2.11745 2.81085,-3.153 0.0969,-0.26933 0.17284,-0.25898 0.26815,0.0366 0.52116,1.61602 2.9112,3.68748 4.76355,4.12859 0.2657,0.0633 2.56947,0.0782 2.72643,0.0177 0.0507,-0.0195 0.37109,-0.0624 0.7119,-0.0952 0.34082,-0.0328 0.65118,-0.0709 0.68971,-0.0847 0.0386,-0.0138 0.2763,-0.0509 0.52838,-0.0825 0.25209,-0.0316 0.51014,-0.0712 0.57343,-0.0881 0.0633,-0.0169 0.28046,-0.0552 0.4826,-0.0851 0.20214,-0.0299 0.41932,-0.0684 0.48261,-0.0855 0.0633,-0.0171 0.25983,-0.0546 0.43675,-0.0835 0.17692,-0.0288 0.39409,-0.0677 0.48262,-0.0865 0.0885,-0.0187 0.27476,-0.0566 0.41385,-0.0843 0.13909,-0.0277 0.32532,-0.066 0.41386,-0.0852 0.0885,-0.0192 0.29542,-0.0585 0.45973,-0.0874 0.16431,-0.0289 0.35054,-0.0666 0.41384,-0.0837 0.0633,-0.0171 0.24954,-0.0557 0.41386,-0.0855 0.16434,-0.0299 0.35057,-0.0682 0.41387,-0.0853 0.0633,-0.017 0.27018,-0.057 0.45975,-0.0888 0.18956,-0.0318 0.37797,-0.0697 0.41868,-0.0842 0.0407,-0.0146 0.23726,-0.0533 0.4368,-0.0861 0.19952,-0.0328 0.39388,-0.0704 0.4319,-0.0834 0.0381,-0.013 0.22424,-0.0497 0.41381,-0.0815 0.18956,-0.0318 0.39645,-0.0716 0.45974,-0.0886 0.0633,-0.017 0.27018,-0.0568 0.45974,-0.0886 0.18957,-0.0318 0.37579,-0.0688 0.41381,-0.0821 0.0381,-0.0133 0.24489,-0.0518 0.45969,-0.0854 0.2148,-0.0336 0.42166,-0.0721 0.45969,-0.0854 0.0381,-0.0134 0.22425,-0.0502 0.41382,-0.0821 0.18956,-0.0318 0.39645,-0.0718 0.45975,-0.0891 0.0633,-0.0172 0.30112,-0.0573 0.5285,-0.089 0.22737,-0.0317 0.44492,-0.0686 0.48343,-0.0819 0.0386,-0.0133 0.26599,-0.0507 0.50548,-0.0833 0.23951,-0.0324 0.50784,-0.0713 0.59631,-0.0864 0.0885,-0.015 0.38812,-0.0524 0.66587,-0.083 0.27777,-0.0306 0.55156,-0.0692 0.60843,-0.0858 0.77417,-0.22543 5.20494,-0.2055 5.86869,0.0264 0.0422,0.0147 0.17609,0.0551 0.29752,0.0896 0.2218,0.0631 0.32074,0.0967 0.53131,0.18075 0.0626,0.025 0.1924,0.0687 0.28845,0.0971 0.2978,0.0881 1.2144,0.54313 1.68973,0.8388 1.59804,0.99401 3.15265,2.60417 4.3591,4.51486 0.50309,0.79674 1.2585,2.26981 1.54627,3.01525 0.17651,0.45723 0.18383,0.49908 0.10592,0.60515 -0.0736,0.10022 -0.12507,0.0482 -0.42686,-0.43156 -1.15394,-1.83443 -2.76913,-3.50014 -4.51263,-4.65379 -0.58917,-0.38984 -1.70354,-0.97148 -2.24893,-1.17381 -0.20041,-0.0743 -0.40536,-0.15072 -0.45545,-0.16973 -0.0501,-0.019 -0.19375,-0.0613 -0.31923,-0.0939 -0.253,-0.0658 -0.49865,-0.13492 -0.64081,-0.18013 -0.73552,-0.23396 -4.65891,-0.25923 -5.93178,-0.0382 -0.0885,0.0153 -0.41907,0.0534 -0.73465,0.0847 -0.31558,0.0313 -0.64616,0.0689 -0.73463,0.0838 -0.0885,0.0149 -0.3778,0.0525 -0.64297,0.0837 -0.26518,0.0312 -0.55453,0.0699 -0.64302,0.0861 -0.0885,0.0162 -0.34687,0.0531 -0.5742,0.082 -0.22733,0.0289 -0.48576,0.0683 -0.5743,0.0874 -0.0885,0.0192 -0.34697,0.0586 -0.57429,0.0875 -0.22733,0.0289 -0.46511,0.0663 -0.5284,0.0831 -0.0633,0.0168 -0.30108,0.055 -0.52842,0.0849 -0.22734,0.0299 -0.46513,0.0682 -0.52843,0.0849 -0.0633,0.0168 -0.30108,0.055 -0.52842,0.0849 -0.22735,0.0299 -0.46514,0.0682 -0.52843,0.0849 -0.0633,0.0168 -0.30109,0.0553 -0.52844,0.0856 -0.22734,0.0303 -0.47547,0.0695 -0.55137,0.0871 -0.0759,0.0176 -0.30339,0.0555 -0.5055,0.0842 -0.20212,0.0286 -0.41927,0.066 -0.48257,0.0828 -0.0633,0.0169 -0.30108,0.0552 -0.52843,0.0851 -0.22734,0.0299 -0.46512,0.0682 -0.52842,0.0849 -0.0633,0.0168 -0.30109,0.0553 -0.52844,0.0856 -0.22735,0.0303 -0.47547,0.0695 -0.55137,0.0871 -0.0759,0.0177 -0.30338,0.055 -0.50549,0.0831 -0.20211,0.0281 -0.45022,0.0668 -0.55135,0.0859 -0.10114,0.0192 -0.36987,0.0578 -0.59719,0.0859 -0.22731,0.028 -0.46508,0.0646 -0.52837,0.0814 -0.0633,0.0167 -0.35265,0.0557 -0.64302,0.0865 -0.29037,0.0308 -0.60033,0.0684 -0.6888,0.0836 -0.96544,0.16549 -3.93549,0.22317 -4.44668,0.0864 -1.47698,-0.39529 -3.11495,-2.60818 -3.94341,-5.32751 -0.0762,-0.25017 -0.14497,-0.4549 -0.15278,-0.45493 -0.008,-5e-5 -0.0861,0.20657 -0.17394,0.45915 -0.45661,1.31269 -1.14364,2.63769 -1.80765,3.48618 -0.70422,0.89986 -1.6558,1.64738 -2.2837,1.79396 -0.54444,0.12709 -3.91393,0.0299 -4.42551,-0.12773 -0.0605,-0.0187 -0.36594,-0.0618 -0.67875,-0.096 -0.31282,-0.0341 -0.60088,-0.0738 -0.64012,-0.0882 -0.0393,-0.0143 -0.28743,-0.0537 -0.55152,-0.0875 -0.2641,-0.0338 -0.54178,-0.077 -0.61707,-0.0961 -0.0753,-0.019 -0.32209,-0.06 -0.54842,-0.091 -0.22632,-0.031 -0.46282,-0.0707 -0.52554,-0.0881 -0.0627,-0.0174 -0.2981,-0.0592 -0.52304,-0.0929 -0.22495,-0.0338 -0.44084,-0.0728 -0.47975,-0.0868 -0.0389,-0.014 -0.27608,-0.0549 -0.52705,-0.0909 -0.25096,-0.0359 -0.48744,-0.0766 -0.5255,-0.0903 -0.0381,-0.0137 -0.27455,-0.0543 -0.52552,-0.0903 -0.25096,-0.0359 -0.48745,-0.0766 -0.52551,-0.0903 -0.0381,-0.0137 -0.27454,-0.0543 -0.52551,-0.0903 -0.25096,-0.036 -0.48744,-0.0766 -0.52552,-0.0903 -0.0381,-0.0137 -0.27454,-0.0543 -0.5255,-0.0903 -0.25097,-0.036 -0.48745,-0.0766 -0.52552,-0.0903 -0.0381,-0.0137 -0.27336,-0.0542 -0.52288,-0.0899 -0.24952,-0.0357 -0.49629,-0.078 -0.54837,-0.0939 -0.0521,-0.0159 -0.27986,-0.0556 -0.50616,-0.088 -0.2263,-0.0325 -0.47307,-0.0742 -0.54839,-0.0925 -0.0753,-0.0184 -0.3423,-0.0603 -0.59331,-0.0932 -0.25102,-0.033 -0.48754,-0.0713 -0.5256,-0.0853 -0.0381,-0.014 -0.3162,-0.0533 -0.6181,-0.0874 -0.30189,-0.034 -0.60021,-0.0765 -0.66293,-0.0942 -0.0627,-0.0177 -0.37135,-0.0597 -0.68586,-0.0932 -0.3145,-0.0335 -0.64379,-0.0736 -0.73175,-0.0892 -1.31804,-0.23307 -5.36879,-0.25771 -5.99184,-0.0365 -0.044,0.0156 -0.18369,0.0542 -0.31023,0.0855 -0.46446,0.11516 -0.56158,0.14492 -1.03639,0.31748 -2.67732,0.973 -5.27687,3.10277 -7.06999,5.7923 -0.31714,0.47568 -0.37024,0.52705 -0.4405,0.42609 z"
       id="path3012-4-9-8"
       inkscape:connector-curvature="0"
       inkscape:export-filename="D:\DATAS\__docs__\stage\Rapport de stage\images\url.png"
       inkscape:export-xdpi="90"
       inkscape:export-ydpi="90" />
    <text
       xml:space="preserve"
       style="font-size:17.53650093px;font-style:normal;font-weight:normal;line-height:125%;letter-spacing:0px;word-spacing:0px;fill:#ff00ff;fill-opacity:1;stroke:none;font-family:Sans"
       x="648.19873"
       y="498.8812"
       id="text3145"
       sodipodi:linespacing="125%"
       inkscape:export-filename="D:\DATAS\__docs__\stage\Rapport de stage\images\url.png"
       inkscape:export-xdpi="90"
       inkscape:export-ydpi="90"><tspan
         sodipodi:role="line"
         id="tspan3147"
         x="648.19873"
         y="498.8812">serveur de connexion</tspan></text>
    <text
       xml:space="preserve"
       style="font-size:17.7671032px;font-style:normal;font-weight:normal;line-height:125%;letter-spacing:0px;word-spacing:0px;fill:#ff6600;fill-opacity:1;stroke:none;font-family:Sans"
       x="752.00897"
       y="591.98022"
       id="text3149"
       sodipodi:linespacing="125%"
       inkscape:export-filename="D:\DATAS\__docs__\stage\Rapport de stage\images\url.png"
       inkscape:export-xdpi="90"
       inkscape:export-ydpi="90"><tspan
         sodipodi:role="line"
         id="tspan3151"
         x="752.00897"
         y="591.98022">port de connexion</tspan></text>
    <text
       xml:space="preserve"
       style="font-size:19.04644394px;font-style:normal;font-weight:normal;line-height:125%;letter-spacing:0px;word-spacing:0px;fill:#00ffdf;fill-opacity:1;stroke:none;font-family:Sans"
       x="836.76593"
       y="509.11365"
       id="text3149-8"
       sodipodi:linespacing="125%"
       inkscape:export-filename="D:\DATAS\__docs__\stage\Rapport de stage\images\url.png"
       inkscape:export-xdpi="90"
       inkscape:export-ydpi="90"><tspan
         sodipodi:role="line"
         id="tspan3151-2"
         x="836.76593"
         y="509.11365">chemin de la ressource</tspan></text>
    <path
       sodipodi:type="arc"
       style="fill:none;stroke:#000000;stroke-width:2.59800005;stroke-miterlimit:4;stroke-opacity:0.57142861;stroke-dasharray:none"
       id="path5392"
       sodipodi:cx="352.54324"
       sodipodi:cy="296.84946"
       sodipodi:rx="21.465742"
       sodipodi:ry="21.465742"
       d="m 374.00899,296.84946 a 21.465742,21.465742 0 1 1 -42.93149,0 21.465742,21.465742 0 1 1 42.93149,0 z"
       transform="matrix(0.99243545,0,0,1.2752782,-46.618884,163.87295)"
       inkscape:export-filename="D:\DATAS\__docs__\stage\Rapport de stage\images\url.png"
       inkscape:export-xdpi="90"
       inkscape:export-ydpi="90" />
    <path
       sodipodi:type="arc"
       style="fill:none;stroke:#000000;stroke-width:2.59800005;stroke-miterlimit:4;stroke-opacity:0.57142861;stroke-dasharray:none"
       id="path5392-4"
       sodipodi:cx="352.54324"
       sodipodi:cy="296.84946"
       sodipodi:rx="21.465742"
       sodipodi:ry="21.465742"
       d="m 374.00899,296.84946 a 21.465742,21.465742 0 1 1 -42.93149,0 21.465742,21.465742 0 1 1 42.93149,0 z"
       transform="matrix(1.2828679,0,0,1.2662301,219.87648,167.19677)"
       inkscape:export-filename="D:\DATAS\__docs__\stage\Rapport de stage\images\url.png"
       inkscape:export-xdpi="90"
       inkscape:export-ydpi="90" />
    <path
       sodipodi:type="arc"
       style="fill:none;stroke:#000000;stroke-width:2.59800005;stroke-miterlimit:4;stroke-opacity:0.57142861;stroke-dasharray:none"
       id="path5392-5"
       sodipodi:cx="352.54324"
       sodipodi:cy="296.84946"
       sodipodi:rx="21.465742"
       sodipodi:ry="21.465742"
       d="m 374.00899,296.84946 a 21.465742,21.465742 0 1 1 -42.93149,0 21.465742,21.465742 0 1 1 42.93149,0 z"
       transform="matrix(0.59137159,0,0,1.3067973,646.1588,152.65439)"
       inkscape:export-filename="D:\DATAS\__docs__\stage\Rapport de stage\images\url.png"
       inkscape:export-xdpi="90"
       inkscape:export-ydpi="90" />
    <text
       xml:space="preserve"
       style="font-size:40px;font-style:normal;font-weight:normal;line-height:125%;letter-spacing:0px;word-spacing:0px;fill:#000000;fill-opacity:1;stroke:none;font-family:Sans"
       x="304.28571"
       y="294.09448"
       id="text5419"
       sodipodi:linespacing="125%"
       transform="translate(0,308.2677)"><tspan
         sodipodi:role="line"
         id="tspan5421"
         x="304.28571"
         y="294.09448" /></text>
    <path
       style="fill:none;stroke:#000000;stroke-width:1px;stroke-linecap:butt;stroke-linejoin:miter;stroke-opacity:1"
       d="m 312.14286,256.23734 c 43.57143,62.14286 44.28571,62.14286 44.28571,62.14286"
       id="path5423"
       inkscape:connector-curvature="0"
       transform="translate(0,308.2677)"
       inkscape:export-filename="D:\DATAS\__docs__\stage\Rapport de stage\images\url.png"
       inkscape:export-xdpi="90"
       inkscape:export-ydpi="90" />
    <path
       style="fill:none;stroke:#000000;stroke-width:1px;stroke-linecap:butt;stroke-linejoin:miter;stroke-opacity:1"
       d="m 695,251.23734 c 35.71429,27.85714 38.36222,79.27084 38.36222,79.27084"
       id="path5425"
       inkscape:connector-curvature="0"
       transform="translate(0,308.2677)"
       sodipodi:nodetypes="cc"
       inkscape:export-filename="D:\DATAS\__docs__\stage\Rapport de stage\images\url.png"
       inkscape:export-xdpi="90"
       inkscape:export-ydpi="90" />
    <path
       style="fill:none;stroke:#000000;stroke-width:1px;stroke-linecap:butt;stroke-linejoin:miter;stroke-opacity:1"
       d="m 862.32143,254.6302 c 21.85408,8.41898 34.0812,14.6563 38.66385,37.51643 l 2.22901,17.84071"
       id="path5429"
       inkscape:connector-curvature="0"
       transform="translate(0,308.2677)"
       sodipodi:nodetypes="ccc"
       inkscape:export-filename="D:\DATAS\__docs__\stage\Rapport de stage\images\url.png"
       inkscape:export-xdpi="90"
       inkscape:export-ydpi="90" />
    <text
       xml:space="preserve"
       style="font-size:13.42991161px;font-style:normal;font-weight:normal;line-height:125%;letter-spacing:0px;word-spacing:0px;fill:#000000;fill-opacity:1;stroke:none;font-family:Sans"
       x="851.323"
       y="632.15222"
       id="text5431"
       sodipodi:linespacing="125%"
       inkscape:export-filename="D:\DATAS\__docs__\stage\Rapport de stage\images\url.png"
       inkscape:export-xdpi="90"
       inkscape:export-ydpi="90"><tspan
         sodipodi:role="line"
         id="tspan5433"
         x="851.323"
         y="632.15222">séparateur de chemin</tspan></text>
    <path
       sodipodi:type="arc"
       style="fill:none;stroke:#000000;stroke-width:2.59800005;stroke-miterlimit:4;stroke-opacity:0.57142861;stroke-dasharray:none"
       id="path5392-51"
       sodipodi:cx="352.54324"
       sodipodi:cy="296.84946"
       sodipodi:rx="21.465742"
       sodipodi:ry="21.465742"
       d="m 374.00899,296.84946 a 21.465742,21.465742 0 1 1 -42.93149,0 21.465742,21.465742 0 1 1 42.93149,0 z"
       transform="matrix(0.4882675,0,0,0.88757489,603.57888,282.10034)"
       inkscape:export-filename="D:\DATAS\__docs__\stage\Rapport de stage\images\url.png"
       inkscape:export-xdpi="90"
       inkscape:export-ydpi="90" />
    <path
       style="fill:none;stroke:#000000;stroke-width:1px;stroke-linecap:butt;stroke-linejoin:miter;stroke-opacity:1"
       d="m 782.14286,222.66591 c 49.28571,-25 50.71428,-73.57143 50.71428,-73.57143"
       id="path5453"
       inkscape:connector-curvature="0"
       transform="translate(0,308.2677)"
       inkscape:export-filename="D:\DATAS\__docs__\stage\Rapport de stage\images\url.png"
       inkscape:export-xdpi="90"
       inkscape:export-ydpi="90" />
    <text
       xml:space="preserve"
       style="font-size:13.7731905px;font-style:normal;font-weight:normal;line-height:125%;letter-spacing:0px;word-spacing:0px;fill:#000000;fill-opacity:1;stroke:none;font-family:Sans"
       x="787.02673"
       y="452.22073"
       id="text5455"
       sodipodi:linespacing="125%"
       inkscape:export-filename="D:\DATAS\__docs__\stage\Rapport de stage\images\url.png"
       inkscape:export-xdpi="90"
       inkscape:export-ydpi="90"><tspan
         sodipodi:role="line"
         id="tspan5457"
         x="787.02673"
         y="452.22073">séparateur de port</tspan></text>
    <text
       xml:space="preserve"
       style="font-size:13.7731905px;font-style:normal;font-weight:normal;line-height:125%;letter-spacing:0px;word-spacing:0px;fill:#000000;fill-opacity:1;stroke:none;font-family:Sans"
       x="690.66132"
       y="653.80725"
       id="text5455-7"
       sodipodi:linespacing="125%"
       inkscape:export-filename="D:\DATAS\__docs__\stage\Rapport de stage\images\url.png"
       inkscape:export-xdpi="90"
       inkscape:export-ydpi="90"><tspan
         sodipodi:role="line"
         id="tspan5457-1"
         x="690.66132"
         y="653.80725">séparateur de serveur</tspan></text>
  </g>
</svg>
