<?xml version="1.0" encoding="UTF-8" standalone="no"?>
<!-- Created with Inkscape (http://www.inkscape.org/) -->

<svg
   xmlns:dc="http://purl.org/dc/elements/1.1/"
   xmlns:cc="http://creativecommons.org/ns#"
   xmlns:rdf="http://www.w3.org/1999/02/22-rdf-syntax-ns#"
   xmlns:svg="http://www.w3.org/2000/svg"
   xmlns="http://www.w3.org/2000/svg"
   xmlns:sodipodi="http://sodipodi.sourceforge.net/DTD/sodipodi-0.dtd"
   xmlns:inkscape="http://www.inkscape.org/namespaces/inkscape"
   width="1052.3622"
   height="744.09448"
   id="svg2"
   version="1.1"
   inkscape:version="0.48.4 r9939"
   sodipodi:docname="uncomplete_packet.svg">
  <sodipodi:namedview
     id="base"
     pagecolor="#ffffff"
     bordercolor="#666666"
     borderopacity="1.0"
     inkscape:pageopacity="0.0"
     inkscape:pageshadow="2"
     inkscape:zoom="0.98994949"
     inkscape:cx="523.93151"
     inkscape:cy="284.42874"
     inkscape:document-units="px"
     inkscape:current-layer="layer1"
     showgrid="false"
     inkscape:window-width="1680"
     inkscape:window-height="1000"
     inkscape:window-x="-8"
     inkscape:window-y="-8"
     inkscape:window-maximized="1" />
  <defs
     id="defs4" />
  <metadata
     id="metadata7">
    <rdf:RDF>
      <cc:Work
         rdf:about="">
        <dc:format>image/svg+xml</dc:format>
        <dc:type
           rdf:resource="http://purl.org/dc/dcmitype/StillImage" />
        <dc:title></dc:title>
      </cc:Work>
    </rdf:RDF>
  </metadata>
  <g
     transform="translate(0,-308.2677)"
     id="layer1"
     inkscape:groupmode="layer"
     inkscape:label="Calque 1">
    <rect
       y="425.65573"
       x="43.398579"
       height="23.313515"
       width="476.15338"
       id="rect2985"
       style="fill:#808080;fill-rule:evenodd;stroke:#000000;stroke-width:0.32867768px;stroke-linecap:butt;stroke-linejoin:miter;stroke-opacity:0.35483871" />
    <rect
       y="425.66235"
       x="43.359486"
       height="23.300308"
       width="26.640337"
       id="rect3755"
       style="fill:#008080;fill-rule:evenodd;stroke:#000000;stroke-width:0.22306903px;stroke-linecap:butt;stroke-linejoin:miter;stroke-opacity:1" />
    <rect
       y="425.83246"
       x="69.899925"
       height="22.615101"
       width="137.85265"
       id="rect3757"
       style="fill:#0000ff;fill-rule:evenodd;stroke:#000000;stroke-width:0.35296285px;stroke-linecap:butt;stroke-linejoin:miter;stroke-opacity:1" />
    <rect
       y="463.90274"
       x="43.494343"
       height="23.313515"
       width="476.15338"
       id="rect2985-1"
       style="fill:#808080;fill-rule:evenodd;stroke:#000000;stroke-width:0.32867768px;stroke-linecap:butt;stroke-linejoin:miter;stroke-opacity:0.35483871" />
    <rect
       y="463.90939"
       x="43.45525"
       height="23.300308"
       width="26.640337"
       id="rect3755-7"
       style="fill:#008080;fill-rule:evenodd;stroke:#000000;stroke-width:0.22306903px;stroke-linecap:butt;stroke-linejoin:miter;stroke-opacity:1" />
    <rect
       y="464.08228"
       x="69.997032"
       height="23.115181"
       width="137.84998"
       id="rect3757-4"
       style="fill:#0000ff;fill-rule:evenodd;stroke:#000000;stroke-width:0.35684055px;stroke-linecap:butt;stroke-linejoin:miter;stroke-opacity:1" />
    <rect
       y="464.2103"
       x="234.53667"
       height="22.453024"
       width="265.50677"
       id="rect3757-9"
       style="fill:#0000ff;fill-rule:evenodd;stroke:#000000;stroke-width:0.48808718px;stroke-linecap:butt;stroke-linejoin:miter;stroke-opacity:1" />
    <rect
       y="464.04395"
       x="207.83736"
       height="22.798107"
       width="26.642006"
       id="rect3755-7-4"
       style="fill:#008080;fill-rule:evenodd;stroke:#000000;stroke-width:0.22065888px;stroke-linecap:butt;stroke-linejoin:miter;stroke-opacity:1" />
    <rect
       inkscape:export-ydpi="90"
       inkscape:export-xdpi="90"
       inkscape:export-filename="D:\DATAS\__docs__\stage\Rapport de stage\images\uncomplete_packet.png"
       y="635.00842"
       x="47.295498"
       height="23.313515"
       width="476.15338"
       id="rect2985-8"
       style="fill:#808080;fill-rule:evenodd;stroke:#000000;stroke-width:0.32867768px;stroke-linecap:butt;stroke-linejoin:miter;stroke-opacity:0.35483871" />
    <rect
       inkscape:export-ydpi="90"
       inkscape:export-xdpi="90"
       inkscape:export-filename="D:\DATAS\__docs__\stage\Rapport de stage\images\uncomplete_packet.png"
       y="635.01501"
       x="47.256435"
       height="23.300308"
       width="26.640337"
       id="rect3755-8"
       style="fill:#008080;fill-rule:evenodd;stroke:#000000;stroke-width:0.22306903px;stroke-linecap:butt;stroke-linejoin:miter;stroke-opacity:1" />
    <rect
       inkscape:export-ydpi="90"
       inkscape:export-xdpi="90"
       inkscape:export-filename="D:\DATAS\__docs__\stage\Rapport de stage\images\uncomplete_packet.png"
       y="635.18652"
       x="73.798218"
       height="22.969492"
       width="137.8499"
       id="rect3757-2"
       style="fill:#0000ff;fill-rule:evenodd;stroke:#000000;stroke-width:0.35571411px;stroke-linecap:butt;stroke-linejoin:miter;stroke-opacity:1" />
    <rect
       inkscape:export-ydpi="90"
       inkscape:export-xdpi="90"
       inkscape:export-filename="D:\DATAS\__docs__\stage\Rapport de stage\images\uncomplete_packet.png"
       y="635.01495"
       x="211.63138"
       height="23.300308"
       width="26.640337"
       id="rect3755-8-4"
       style="fill:#008080;fill-rule:evenodd;stroke:#000000;stroke-width:0.22306903px;stroke-linecap:butt;stroke-linejoin:miter;stroke-opacity:1" />
    <rect
       inkscape:export-ydpi="90"
       inkscape:export-xdpi="90"
       inkscape:export-filename="D:\DATAS\__docs__\stage\Rapport de stage\images\uncomplete_packet.png"
       y="635.11957"
       x="238.14041"
       height="22.746181"
       width="75.652"
       id="rect3757-2-5"
       style="fill:#0000ff;fill-rule:evenodd;stroke:#000000;stroke-width:0.2622326px;stroke-linecap:butt;stroke-linejoin:miter;stroke-opacity:1" />
    <rect
       inkscape:export-ydpi="90"
       inkscape:export-xdpi="90"
       inkscape:export-filename="D:\DATAS\__docs__\stage\Rapport de stage\images\uncomplete_packet.png"
       y="635.10004"
       x="313.99066"
       height="23.300308"
       width="26.640337"
       id="rect3755-8-4-5"
       style="fill:#008080;fill-rule:evenodd;stroke:#000000;stroke-width:0.22306903px;stroke-linecap:butt;stroke-linejoin:miter;stroke-opacity:1" />
    <rect
       inkscape:export-ydpi="90"
       inkscape:export-xdpi="90"
       inkscape:export-filename="D:\DATAS\__docs__\stage\Rapport de stage\images\uncomplete_packet.png"
       y="635.23193"
       x="340.51276"
       height="22.691584"
       width="99.266754"
       id="rect3757-2-5-1"
       style="fill:#0000ff;fill-rule:evenodd;stroke:#000000;stroke-width:0.30002436px;stroke-linecap:butt;stroke-linejoin:miter;stroke-opacity:1" />
    <rect
       inkscape:export-ydpi="90"
       inkscape:export-xdpi="90"
       inkscape:export-filename="D:\DATAS\__docs__\stage\Rapport de stage\images\uncomplete_packet.png"
       y="634.93292"
       x="439.97162"
       height="23.300308"
       width="26.640337"
       id="rect3755-8-4-5-7"
       style="fill:#008080;fill-rule:evenodd;stroke:#000000;stroke-width:0.22306903px;stroke-linecap:butt;stroke-linejoin:miter;stroke-opacity:1" />
    <rect
       inkscape:export-ydpi="90"
       inkscape:export-xdpi="90"
       inkscape:export-filename="D:\DATAS\__docs__\stage\Rapport de stage\images\uncomplete_packet.png"
       y="635.02979"
       x="466.45865"
       height="23.208082"
       width="57.016335"
       id="rect3757-2-5-1-1"
       style="fill:#0000ff;fill-rule:evenodd;stroke:#000000;stroke-width:0.22995427px;stroke-linecap:butt;stroke-linejoin:miter;stroke-opacity:1" />
    <rect
       inkscape:export-ydpi="90"
       inkscape:export-xdpi="90"
       inkscape:export-filename="D:\DATAS\__docs__\stage\Rapport de stage\images\uncomplete_packet.png"
       y="634.94647"
       x="527.95007"
       height="23.313515"
       width="476.15338"
       id="rect2985-15"
       style="fill:#808080;fill-rule:evenodd;stroke:#000000;stroke-width:0.32867768px;stroke-linecap:butt;stroke-linejoin:miter;stroke-opacity:0.35483871" />
    <rect
       inkscape:export-ydpi="90"
       inkscape:export-xdpi="90"
       inkscape:export-filename="D:\DATAS\__docs__\stage\Rapport de stage\images\uncomplete_packet.png"
       y="635.25562"
       x="527.90417"
       height="23.045322"
       width="167.46529"
       id="rect3757-2-5-1-1-6"
       style="fill:#0000ff;fill-rule:evenodd;stroke:#000000;stroke-width:0.39271364px;stroke-linecap:butt;stroke-linejoin:miter;stroke-opacity:1" />
    <rect
       inkscape:export-ydpi="90"
       inkscape:export-xdpi="90"
       inkscape:export-filename="D:\DATAS\__docs__\stage\Rapport de stage\images\uncomplete_packet.png"
       y="635.06543"
       x="695.23157"
       height="23.300308"
       width="26.640337"
       id="rect3755-8-4-5-7-1"
       style="fill:#008080;fill-rule:evenodd;stroke:#000000;stroke-width:0.22306903px;stroke-linecap:butt;stroke-linejoin:miter;stroke-opacity:1" />
    <rect
       inkscape:export-ydpi="90"
       inkscape:export-xdpi="90"
       inkscape:export-filename="D:\DATAS\__docs__\stage\Rapport de stage\images\uncomplete_packet.png"
       y="635.26135"
       x="721.81769"
       height="23.00993"
       width="199.31819"
       id="rect3757-2-5-1-1-4"
       style="fill:#0000ff;fill-rule:evenodd;stroke:#000000;stroke-width:0.42810798px;stroke-linecap:butt;stroke-linejoin:miter;stroke-opacity:1" />
    <path
       style="fill:#000000"
       d="m 48.61002,664.2106 c -0.47174,0.0712 -0.418739,0.1002 0.759266,0.41544 1.836688,0.4915 6.688225,1.47561 9.918724,2.01197 12.848209,2.13317 30.52605,3.54725 48.30894,3.86431 5.08238,0.0906 26.92497,0.0413 33.23924,-0.0751 0.54688,-0.0101 2.33669,-0.0354 3.97734,-0.0562 1.64066,-0.0209 3.43046,-0.0482 3.97735,-0.0608 0.54688,-0.0125 1.95316,-0.0384 3.12506,-0.0573 1.17189,-0.019 2.70601,-0.0458 3.40915,-0.0595 0.70314,-0.0137 2.07745,-0.0391 3.05403,-0.0564 3.42095,-0.0605 5.33287,-0.0983 6.03704,-0.11923 0.39064,-0.0116 1.66907,-0.0391 2.84096,-0.061 1.1719,-0.0219 2.32249,-0.0471 2.55687,-0.0559 0.23438,-0.009 1.43541,-0.0346 2.66895,-0.0573 1.23354,-0.0226 2.44805,-0.049 2.69891,-0.0586 0.25086,-0.01 1.46537,-0.036 2.69891,-0.0586 1.23355,-0.0226 2.44806,-0.0492 2.69892,-0.0591 0.25086,-0.01 1.54277,-0.0369 2.87092,-0.0601 1.32815,-0.0232 2.60658,-0.0497 2.84096,-0.0587 0.23438,-0.009 1.38497,-0.0354 2.55687,-0.0585 1.17189,-0.0231 2.32248,-0.0493 2.55686,-0.0581 0.23438,-0.009 1.43541,-0.0346 2.66895,-0.0573 1.23354,-0.0226 2.44805,-0.0491 2.69891,-0.0587 0.25086,-0.01 1.35101,-0.0353 2.44478,-0.0571 1.09377,-0.0218 2.30828,-0.0491 2.69891,-0.0608 0.39064,-0.0117 1.60515,-0.0381 2.69892,-0.0586 1.09377,-0.0206 2.30828,-0.047 2.69891,-0.0586 0.39063,-0.0117 1.60514,-0.0381 2.69891,-0.0586 1.09377,-0.0206 2.30828,-0.0469 2.69892,-0.0586 0.39063,-0.0117 1.7195,-0.0387 2.95304,-0.0602 1.23354,-0.0214 2.44805,-0.0468 2.69891,-0.0564 0.25086,-0.01 1.73207,-0.0364 3.29158,-0.0596 1.55951,-0.0232 3.0297,-0.0497 3.26711,-0.0589 0.23739,-0.009 1.83791,-0.0354 3.55669,-0.0582 1.71878,-0.0228 3.57251,-0.0508 4.11939,-0.0623 0.54689,-0.0115 3.29552,-0.0405 6.10807,-0.0646 13.7338,-0.11751 18.68363,-0.002 28.12551,0.65396 7.73585,0.53778 14.89633,1.42533 17.10018,2.11958 0.57319,0.18057 1.04473,0.1739 1.66612,-0.0236 3.39737,-1.07962 18.42746,-2.45762 29.95617,-2.74645 1.65366,-0.0414 15.93688,-0.0435 16.90372,-0.002 0.31251,0.0133 2.29408,0.043 4.40349,0.0662 2.10941,0.0231 4.02953,0.0497 4.26692,0.059 0.23742,0.009 1.70762,0.035 3.26711,0.057 1.55952,0.022 3.15508,0.0494 3.54572,0.0609 0.39063,0.0115 1.73298,0.0379 2.983,0.0586 1.25003,0.0207 2.59238,0.0472 2.98301,0.0588 0.39064,0.0117 1.60515,0.0375 2.69892,0.0574 1.09377,0.0199 2.43612,0.0467 2.983,0.0595 0.54689,0.0128 1.69748,0.0389 2.55687,0.0578 0.85939,0.019 2.00998,0.0453 2.55686,0.0584 0.54689,0.0131 1.82532,0.0402 2.84097,0.0601 1.01564,0.0199 2.16623,0.0457 2.55686,0.0574 0.39063,0.0117 1.54122,0.0381 2.55686,0.0586 1.01565,0.0206 2.16624,0.0469 2.55687,0.0585 0.39063,0.0116 1.66906,0.0391 2.84096,0.061 1.1719,0.0219 2.33598,0.0479 2.58684,0.0578 0.25085,0.01 1.46536,0.0365 2.69891,0.0591 1.23354,0.0226 2.43456,0.0484 2.66894,0.0573 0.23438,0.009 1.38497,0.034 2.55686,0.0559 1.1719,0.0219 2.45033,0.0493 2.84097,0.0608 0.39063,0.0116 1.66906,0.0389 2.84096,0.0608 1.17189,0.0219 2.32248,0.0473 2.55686,0.0564 0.23438,0.009 1.51281,0.0355 2.84096,0.0587 1.32815,0.0232 2.60658,0.0497 2.84096,0.0587 0.23438,0.009 1.38497,0.0344 2.55687,0.0563 1.17189,0.0219 2.45033,0.0495 2.84096,0.0612 0.39063,0.0117 1.86083,0.0393 3.2671,0.0614 1.40628,0.022 2.7511,0.0474 2.98849,0.0565 0.23742,0.009 1.6437,0.0349 3.12506,0.0574 1.48139,0.0226 3.14088,0.0495 3.68777,0.0599 0.54688,0.0104 2.40061,0.0364 4.11939,0.0578 1.71878,0.0214 3.41211,0.0482 3.76297,0.0595 4.77596,0.15351 32.24558,0.15538 36.38432,0.002 0.26316,-0.01 1.09727,-0.0362 1.85361,-0.0589 1.38151,-0.0414 1.99831,-0.0636 3.31242,-0.11913 0.39064,-0.0165 1.1998,-0.0453 1.79813,-0.064 1.85526,-0.058 7.5844,-0.35929 10.56161,-0.55551 10.00914,-0.6597 19.81258,-1.73186 27.48874,-3.00632 3.20088,-0.53145 8.03575,-1.5146 9.89655,-2.01246 1.14138,-0.30536 1.1911,-0.33334 0.71902,-0.40459 -0.44601,-0.0673 -0.7703,-0.0327 -2.69068,0.28733 -7.34272,1.22361 -17.52742,2.33274 -28.45483,3.09876 -3.69263,0.25886 -10.66085,0.64426 -14.06276,0.77778 -1.25002,0.0491 -2.52845,0.0995 -2.84096,0.11202 -0.31251,0.0125 -1.20741,0.0403 -1.98867,0.0618 -1.57523,0.0432 -3.10517,0.0886 -3.99107,0.11835 -4.58389,0.15403 -28.90865,0.15748 -36.77672,0.005 -0.54688,-0.0106 -2.59238,-0.0372 -4.54554,-0.0592 -1.95316,-0.022 -3.99865,-0.0484 -4.54553,-0.0586 -0.54689,-0.0103 -2.33669,-0.0364 -3.97735,-0.0582 -1.64065,-0.0218 -3.43046,-0.0487 -3.97734,-0.0598 -0.54689,-0.0112 -2.14493,-0.0367 -3.5512,-0.0568 -1.40628,-0.0201 -3.00432,-0.0473 -3.55121,-0.0605 -0.54688,-0.0131 -2.14492,-0.0404 -3.5512,-0.0605 -1.40627,-0.0201 -2.87647,-0.046 -3.2671,-0.0574 -0.39063,-0.0115 -1.86083,-0.0378 -3.26711,-0.0586 -1.40627,-0.0208 -2.87647,-0.0472 -3.2671,-0.0586 -0.39063,-0.0114 -1.86083,-0.0378 -3.26711,-0.0586 -1.40627,-0.0208 -2.87647,-0.0472 -3.2671,-0.0586 -0.39063,-0.0115 -1.86083,-0.038 -3.26711,-0.0591 -1.40627,-0.021 -2.94039,-0.0481 -3.40915,-0.0602 -0.46876,-0.0121 -1.87503,-0.0382 -3.12505,-0.058 -1.25003,-0.0199 -2.59238,-0.0456 -2.98301,-0.0571 -0.39064,-0.0115 -1.86083,-0.038 -3.26711,-0.0588 -1.40627,-0.0208 -2.87647,-0.0472 -3.2671,-0.0586 -0.39064,-0.0114 -1.86083,-0.038 -3.26711,-0.0591 -1.40627,-0.0211 -2.94039,-0.0481 -3.40915,-0.0602 -0.46876,-0.012 -1.87503,-0.0378 -3.12506,-0.0573 -1.25002,-0.0195 -2.78414,-0.0462 -3.40915,-0.0594 -0.62501,-0.0132 -2.28697,-0.0399 -3.69325,-0.0595 -1.40628,-0.0195 -2.87647,-0.0449 -3.2671,-0.0563 -0.39064,-0.0114 -2.18044,-0.0385 -3.97735,-0.0601 -1.79691,-0.0216 -3.71456,-0.0478 -4.26144,-0.0583 -5.968,-0.11406 -24.37421,-0.16285 -27.55732,-0.073 -9.19695,0.25945 -19.57933,1.73467 -24.99552,3.55156 -0.49828,0.16715 -0.94559,0.30391 -0.99402,0.30391 -0.0484,0 -0.51238,-0.13854 -1.03098,-0.30786 -2.69526,-0.88 -6.8178,-1.76902 -10.8467,-2.33909 -4.27286,-0.60459 -10.09492,-1.10808 -13.97238,-1.20833 -3.36197,-0.0869 -24.26044,-0.0334 -27.44802,0.0703 -0.37698,0.0123 -2.27496,0.0401 -4.21773,0.0619 -1.94276,0.0218 -3.73257,0.0474 -3.97734,0.0568 -0.24478,0.009 -1.7874,0.0349 -3.42805,0.0566 -1.64066,0.0217 -3.36654,0.0497 -3.8353,0.0622 -0.46876,0.0125 -2.00288,0.039 -3.40915,0.059 -1.40628,0.02 -2.87648,0.0457 -3.26711,0.0571 -0.39063,0.0114 -1.85405,0.0386 -3.25203,0.0604 -1.39799,0.0218 -2.74035,0.0472 -2.98301,0.0564 -0.24267,0.009 -1.71718,0.0358 -3.27668,0.059 -1.55951,0.0232 -3.02971,0.0496 -3.26711,0.0586 -0.2374,0.009 -1.7076,0.0354 -3.2671,0.0586 -1.55951,0.0232 -3.02971,0.0496 -3.26711,0.0586 -0.2374,0.009 -1.70759,0.0354 -3.2671,0.0586 -1.55951,0.0232 -3.02971,0.0496 -3.26711,0.0586 -0.2374,0.009 -1.70759,0.0354 -3.2671,0.0586 -1.55951,0.0232 -3.02971,0.0496 -3.26711,0.0586 -0.2374,0.009 -1.70025,0.0353 -3.25078,0.0584 -1.55052,0.0231 -3.08464,0.0505 -3.40915,0.061 -0.3245,0.0105 -1.7406,0.0362 -3.14687,0.0572 -1.40628,0.021 -2.9404,0.048 -3.40916,0.06 -0.46876,0.012 -2.12825,0.0392 -3.68775,0.0603 -1.55951,0.0212 -3.02971,0.0461 -3.26711,0.0553 -0.2374,0.009 -1.96575,0.0346 -3.84079,0.0564 -1.87503,0.0218 -3.72876,0.0491 -4.11939,0.0608 -0.39063,0.0117 -2.30828,0.0387 -4.26144,0.06 -1.95316,0.0213 -3.99865,0.0471 -4.54554,0.0572 -8.19491,0.15144 -33.30921,0.15404 -37.14878,0.004 -0.27167,-0.0106 -1.13316,-0.0368 -1.91443,-0.0583 -2.867415,-0.0786 -3.46648,-0.0989 -6.392152,-0.216 -16.497101,-0.6603 -32.39288,-2.09443 -43.231629,-3.90037 -1.916969,-0.3194 -2.240884,-0.35396 -2.686889,-0.28664 z"
       id="path4222"
       inkscape:connector-curvature="0"
       inkscape:export-filename="D:\DATAS\__docs__\stage\Rapport de stage\images\uncomplete_packet.png"
       inkscape:export-xdpi="90"
       inkscape:export-ydpi="90" />
    <path
       style="fill:#000000"
       d="m 533.54739,664.70699 c -0.47174,0.0712 -0.41874,0.1002 0.75927,0.41544 1.83669,0.4915 6.68822,1.47561 9.91872,2.01197 12.84821,2.13317 30.52605,3.54725 48.30895,3.86431 5.08238,0.0906 26.92497,0.0413 33.23924,-0.0751 0.54688,-0.0101 2.33669,-0.0354 3.97734,-0.0562 1.64066,-0.0209 3.43046,-0.0482 3.97735,-0.0608 0.54688,-0.0125 1.95316,-0.0384 3.12506,-0.0573 1.17189,-0.019 2.70601,-0.0458 3.40915,-0.0595 0.70314,-0.0137 2.07745,-0.0391 3.05403,-0.0564 3.42095,-0.0605 5.33287,-0.0983 6.03704,-0.11923 0.39064,-0.0116 1.66907,-0.0391 2.84096,-0.061 1.1719,-0.0219 2.32249,-0.0471 2.55687,-0.0559 0.23438,-0.009 1.43541,-0.0346 2.66895,-0.0573 1.23354,-0.0226 2.44805,-0.049 2.69891,-0.0586 0.25086,-0.01 1.46537,-0.036 2.69891,-0.0586 1.23355,-0.0226 2.44806,-0.0492 2.69892,-0.0591 0.25086,-0.01 1.54277,-0.0369 2.87092,-0.0601 1.32815,-0.0232 2.60658,-0.0497 2.84096,-0.0587 0.23438,-0.009 1.38497,-0.0354 2.55687,-0.0585 1.17189,-0.0231 2.32248,-0.0493 2.55686,-0.0581 0.23438,-0.009 1.43541,-0.0346 2.66895,-0.0573 1.23354,-0.0226 2.44805,-0.0491 2.69891,-0.0587 0.25086,-0.01 1.35101,-0.0353 2.44478,-0.0571 1.09377,-0.0218 2.30828,-0.0491 2.69891,-0.0608 0.39064,-0.0117 1.60515,-0.0381 2.69892,-0.0586 1.09377,-0.0206 2.30828,-0.047 2.69891,-0.0586 0.39063,-0.0117 1.60514,-0.0381 2.69891,-0.0586 1.09377,-0.0206 2.30828,-0.0469 2.69892,-0.0586 0.39063,-0.0117 1.7195,-0.0387 2.95304,-0.0602 1.23354,-0.0214 2.44805,-0.0468 2.69891,-0.0564 0.25086,-0.01 1.73207,-0.0364 3.29158,-0.0596 1.55951,-0.0232 3.0297,-0.0497 3.26711,-0.0589 0.23739,-0.009 1.83791,-0.0354 3.55669,-0.0582 1.71878,-0.0228 3.57251,-0.0508 4.11939,-0.0623 0.54689,-0.0115 3.29552,-0.0405 6.10807,-0.0646 13.7338,-0.11751 18.68363,-0.002 28.12551,0.65396 7.73585,0.53778 14.89633,1.42533 17.10018,2.11958 0.57319,0.18057 1.04473,0.1739 1.66612,-0.0236 3.39737,-1.07962 18.42746,-2.45762 29.95617,-2.74645 1.65366,-0.0414 15.93688,-0.0435 16.90372,-0.002 0.31251,0.0133 2.29408,0.043 4.40349,0.0662 2.10941,0.0231 4.02953,0.0497 4.26692,0.059 0.23742,0.009 1.70762,0.035 3.26711,0.057 1.55952,0.022 3.15508,0.0494 3.54572,0.0609 0.39063,0.0115 1.73298,0.0379 2.983,0.0586 1.25003,0.0207 2.59238,0.0472 2.98301,0.0588 0.39064,0.0117 1.60515,0.0375 2.69892,0.0574 1.09377,0.0199 2.43612,0.0467 2.983,0.0595 0.54689,0.0128 1.69748,0.0389 2.55687,0.0578 0.85939,0.019 2.00998,0.0453 2.55686,0.0584 0.54689,0.0131 1.82532,0.0402 2.84097,0.0601 1.01564,0.0199 2.16623,0.0457 2.55686,0.0574 0.39063,0.0117 1.54122,0.0381 2.55686,0.0586 1.01565,0.0206 2.16624,0.0469 2.55687,0.0585 0.39063,0.0116 1.66906,0.0391 2.84096,0.061 1.1719,0.0219 2.33598,0.0479 2.58684,0.0578 0.25085,0.01 1.46536,0.0365 2.69891,0.0591 1.23354,0.0226 2.43456,0.0484 2.66894,0.0573 0.23438,0.009 1.38497,0.034 2.55686,0.0559 1.1719,0.0219 2.45033,0.0493 2.84097,0.0608 0.39063,0.0116 1.66906,0.0389 2.84096,0.0608 1.17189,0.0219 2.32248,0.0473 2.55686,0.0564 0.23438,0.009 1.51281,0.0355 2.84096,0.0587 1.32815,0.0232 2.60658,0.0497 2.84096,0.0587 0.23438,0.009 1.38497,0.0344 2.55687,0.0563 1.17189,0.0219 2.45033,0.0495 2.84096,0.0612 0.39063,0.0117 1.86083,0.0393 3.2671,0.0614 1.40628,0.022 2.7511,0.0474 2.98849,0.0565 0.23742,0.009 1.6437,0.0349 3.12506,0.0574 1.48139,0.0226 3.14088,0.0495 3.68777,0.0599 0.54688,0.0104 2.40061,0.0364 4.11939,0.0578 1.71878,0.0214 3.41211,0.0482 3.76297,0.0595 4.77596,0.15351 32.24558,0.15538 36.38432,0.002 0.26316,-0.01 1.09727,-0.0362 1.85361,-0.0589 1.38151,-0.0414 1.99831,-0.0636 3.31242,-0.11913 0.39064,-0.0165 1.1998,-0.0453 1.79813,-0.064 1.85526,-0.058 7.5844,-0.35929 10.56161,-0.55551 10.00914,-0.6597 19.81258,-1.73186 27.48874,-3.00632 3.20088,-0.53145 8.03581,-1.5146 9.89661,-2.01246 1.1413,-0.30536 1.1911,-0.33334 0.719,-0.40459 -0.446,-0.0673 -0.7703,-0.0327 -2.6907,0.28733 -7.34274,1.22361 -17.52744,2.33274 -28.45485,3.09876 -3.69263,0.25886 -10.66085,0.64426 -14.06276,0.77778 -1.25002,0.0491 -2.52845,0.0995 -2.84096,0.11202 -0.31251,0.0125 -1.20741,0.0403 -1.98867,0.0618 -1.57523,0.0432 -3.10517,0.0886 -3.99107,0.11835 -4.58389,0.15403 -28.90865,0.15748 -36.77672,0.005 -0.54688,-0.0106 -2.59238,-0.0372 -4.54554,-0.0592 -1.95316,-0.022 -3.99865,-0.0483 -4.54553,-0.0586 -0.54689,-0.0103 -2.33669,-0.0364 -3.97735,-0.0582 -1.64065,-0.0218 -3.43046,-0.0487 -3.97734,-0.0598 -0.54689,-0.0112 -2.14493,-0.0367 -3.5512,-0.0568 -1.40628,-0.0201 -3.00432,-0.0473 -3.55121,-0.0605 -0.54688,-0.0131 -2.14492,-0.0404 -3.5512,-0.0605 -1.40627,-0.0201 -2.87647,-0.046 -3.2671,-0.0574 -0.39063,-0.0115 -1.86083,-0.0378 -3.26711,-0.0586 -1.40627,-0.0208 -2.87647,-0.0472 -3.2671,-0.0586 -0.39063,-0.0114 -1.86083,-0.0378 -3.26711,-0.0586 -1.40627,-0.0208 -2.87647,-0.0472 -3.2671,-0.0586 -0.39063,-0.0115 -1.86083,-0.038 -3.26711,-0.0591 -1.40627,-0.021 -2.94039,-0.0481 -3.40915,-0.0602 -0.46876,-0.0121 -1.87503,-0.0382 -3.12505,-0.058 -1.25003,-0.0199 -2.59238,-0.0456 -2.98301,-0.0571 -0.39064,-0.0115 -1.86083,-0.038 -3.26711,-0.0588 -1.40627,-0.0208 -2.87647,-0.0472 -3.2671,-0.0586 -0.39064,-0.0114 -1.86083,-0.038 -3.26711,-0.0591 -1.40627,-0.0211 -2.94039,-0.0481 -3.40915,-0.0602 -0.46876,-0.012 -1.87503,-0.0378 -3.12506,-0.0573 -1.25002,-0.0195 -2.78414,-0.0462 -3.40915,-0.0594 -0.62501,-0.0132 -2.28697,-0.0399 -3.69325,-0.0595 -1.40628,-0.0195 -2.87647,-0.0449 -3.2671,-0.0563 -0.39064,-0.0114 -2.18044,-0.0385 -3.97735,-0.0601 -1.79691,-0.0216 -3.71456,-0.0478 -4.26144,-0.0583 -5.968,-0.11406 -24.37421,-0.16285 -27.55732,-0.073 -9.19695,0.25945 -19.57933,1.73467 -24.99552,3.55156 -0.49828,0.16715 -0.94559,0.30391 -0.99402,0.30391 -0.0484,0 -0.51238,-0.13854 -1.03098,-0.30786 -2.69526,-0.88 -6.8178,-1.76902 -10.8467,-2.33909 -4.27286,-0.60459 -10.09492,-1.10808 -13.97238,-1.20833 -3.36197,-0.0869 -24.26044,-0.0334 -27.44802,0.0703 -0.37698,0.0123 -2.27496,0.0401 -4.21773,0.0619 -1.94276,0.0218 -3.73257,0.0474 -3.97734,0.0568 -0.24478,0.009 -1.7874,0.0349 -3.42805,0.0566 -1.64066,0.0217 -3.36654,0.0497 -3.8353,0.0622 -0.46876,0.0125 -2.00288,0.039 -3.40915,0.059 -1.40628,0.02 -2.87648,0.0457 -3.26711,0.0571 -0.39063,0.0114 -1.85405,0.0386 -3.25203,0.0604 -1.39799,0.0218 -2.74035,0.0472 -2.98301,0.0564 -0.24267,0.009 -1.71718,0.0358 -3.27668,0.059 -1.55951,0.0232 -3.02971,0.0496 -3.26711,0.0586 -0.2374,0.009 -1.7076,0.0354 -3.2671,0.0586 -1.55951,0.0232 -3.02971,0.0496 -3.26711,0.0586 -0.2374,0.009 -1.70759,0.0354 -3.2671,0.0586 -1.55951,0.0232 -3.02971,0.0496 -3.26711,0.0586 -0.2374,0.009 -1.70759,0.0354 -3.2671,0.0586 -1.55951,0.0232 -3.02971,0.0496 -3.26711,0.0586 -0.2374,0.009 -1.70025,0.0353 -3.25078,0.0584 -1.55052,0.0231 -3.08464,0.0505 -3.40915,0.061 -0.3245,0.0105 -1.7406,0.0362 -3.14687,0.0572 -1.40628,0.021 -2.9404,0.048 -3.40916,0.06 -0.46876,0.012 -2.12825,0.0392 -3.68775,0.0603 -1.55951,0.0212 -3.02971,0.0461 -3.26711,0.0553 -0.2374,0.009 -1.96575,0.0346 -3.84079,0.0564 -1.87503,0.0218 -3.72876,0.0491 -4.11939,0.0608 -0.39063,0.0117 -2.30828,0.0387 -4.26144,0.06 -1.95316,0.0213 -3.99865,0.0471 -4.54554,0.0572 -8.19491,0.15144 -33.30921,0.15404 -37.14878,0.004 -0.27167,-0.0106 -1.13316,-0.0368 -1.91443,-0.0583 -2.86742,-0.0786 -3.46649,-0.0989 -6.39216,-0.216 -16.4971,-0.6603 -32.39288,-2.09443 -43.23163,-3.90037 -1.91697,-0.3194 -2.24088,-0.35396 -2.68689,-0.28664 z"
       id="path4224"
       inkscape:connector-curvature="0"
       inkscape:export-filename="D:\DATAS\__docs__\stage\Rapport de stage\images\uncomplete_packet.png"
       inkscape:export-xdpi="90"
       inkscape:export-ydpi="90" />
    <text
       inkscape:export-ydpi="90"
       inkscape:export-xdpi="90"
       inkscape:export-filename="D:\DATAS\__docs__\stage\Rapport de stage\images\uncomplete_packet.png"
       transform="scale(1.0005341,0.99946618)"
       sodipodi:linespacing="125%"
       id="text4003"
       y="700.78949"
       x="229.41585"
       style="font-size:32.38336563px;font-style:normal;font-weight:normal;line-height:125%;letter-spacing:0px;word-spacing:0px;fill:#000000;fill-opacity:1;stroke:none;font-family:Sans"
       xml:space="preserve"><tspan
         y="700.78949"
         x="229.41585"
         id="tspan4005"
         sodipodi:role="line">string lue</tspan></text>
    <text
       inkscape:export-ydpi="90"
       inkscape:export-xdpi="90"
       inkscape:export-filename="D:\DATAS\__docs__\stage\Rapport de stage\images\uncomplete_packet.png"
       transform="scale(1.0172858,0.9830079)"
       sodipodi:linespacing="125%"
       id="text4007"
       y="709.33527"
       x="688.47229"
       style="font-size:28.53915787px;font-style:normal;font-weight:normal;line-height:125%;letter-spacing:0px;word-spacing:0px;fill:#000000;fill-opacity:1;stroke:none;font-family:Sans"
       xml:space="preserve"><tspan
         y="709.33527"
         x="688.47229"
         id="tspan4009"
         sodipodi:role="line">string à venir</tspan></text>
    <rect
       inkscape:export-ydpi="90"
       inkscape:export-xdpi="90"
       inkscape:export-filename="D:\DATAS\__docs__\stage\Rapport de stage\images\uncomplete_packet.png"
       y="727.52686"
       x="730.11426"
       height="16.304945"
       width="16.614517"
       id="rect3755-8-3"
       style="fill:#008080;fill-rule:evenodd;stroke:#000000;stroke-width:0.14736424px;stroke-linecap:butt;stroke-linejoin:miter;stroke-opacity:1" />
    <rect
       inkscape:export-ydpi="90"
       inkscape:export-xdpi="90"
       inkscape:export-filename="D:\DATAS\__docs__\stage\Rapport de stage\images\uncomplete_packet.png"
       y="756.31622"
       x="730.11426"
       height="16.304945"
       width="16.614517"
       id="rect3755-8-3-2"
       style="fill:#0000ff;fill-rule:evenodd;stroke:#000000;stroke-width:0.14736424000000001px;stroke-linecap:butt;stroke-linejoin:miter;stroke-opacity:1;fill-opacity:1" />
    <text
       inkscape:export-ydpi="90"
       inkscape:export-xdpi="90"
       inkscape:export-filename="D:\DATAS\__docs__\stage\Rapport de stage\images\uncomplete_packet.png"
       sodipodi:linespacing="125%"
       id="text4047"
       y="743.40192"
       x="756.41785"
       style="font-size:27.50393867px;font-style:normal;font-weight:normal;line-height:125%;letter-spacing:0px;word-spacing:0px;fill:#000000;fill-opacity:1;stroke:none;font-family:Sans"
       xml:space="preserve"><tspan
         y="743.40192"
         x="756.41785"
         id="tspan4049"
         sodipodi:role="line">header</tspan></text>
    <text
       inkscape:export-ydpi="90"
       inkscape:export-xdpi="90"
       inkscape:export-filename="D:\DATAS\__docs__\stage\Rapport de stage\images\uncomplete_packet.png"
       sodipodi:linespacing="125%"
       id="text4051"
       y="772.68005"
       x="757.99408"
       style="font-size:28.8923893px;font-style:normal;font-weight:normal;line-height:125%;letter-spacing:0px;word-spacing:0px;fill:#000000;fill-opacity:1;stroke:none;font-family:Sans"
       xml:space="preserve"><tspan
         y="772.68005"
         x="757.99408"
         id="tspan4053"
         sodipodi:role="line">datas</tspan></text>
    <path
       style="fill:#ff0000;fill-opacity:1;stroke:#000000;stroke-width:0.16863088;stroke-opacity:0.35483871"
       d="m 466.93932,628.73206 c 0,-0.12302 2.16067,-1.2525 3.89684,-2.03705 5.11945,-2.31342 13.00188,-4.16533 20.75662,-4.87662 4.47005,-0.41 27.0475,-0.20003 32.76526,0.30472 0.87542,0.0773 2.7016,0.18311 6.28265,0.36407 1.04976,0.0531 2.37389,0.13328 2.94251,0.1783 0.56862,0.045 2.17905,0.12614 3.57873,0.18027 1.39968,0.0542 3.69007,0.17258 5.08974,0.26319 1.39969,0.0906 3.65428,0.21153 5.01022,0.26869 1.35595,0.0572 3.03795,0.15694 3.73779,0.22174 0.69984,0.0648 4.88695,0.12242 9.30469,0.12806 7.02771,0.009 8.26102,-0.0305 9.86139,-0.31575 1.00602,-0.17929 2.33015,-0.40177 2.94251,-0.4944 0.61236,-0.0926 1.39968,-0.24335 1.7496,-0.33492 2.91288,-0.76226 4.27993,-1.19693 5.15151,-1.638 1.19798,-0.60624 1.19932,-0.60639 1.74281,-0.1933 0.53635,0.40766 2.03036,0.95685 4.15997,1.52918 1.55358,0.41752 2.58741,0.61882 6.28266,1.22327 1.0313,0.16869 3.56587,0.23139 9.06611,0.22426 6.93694,-0.009 9.49703,-0.0958 18.21175,-0.6177 1.5309,-0.0917 3.82129,-0.2112 5.08975,-0.2656 1.26847,-0.0544 2.87889,-0.13935 3.57873,-0.18875 2.5186,-0.17779 11.54781,-0.60937 20.59757,-0.98454 5.82142,-0.24134 18.79168,-0.14227 21.94953,0.16764 1.18099,0.11591 2.89878,0.32911 3.81732,0.47378 4.18383,0.65895 3.81795,0.58967 6.60076,1.24978 3.47592,0.82451 7.66608,2.25418 9.76417,3.33149 1.572,0.80718 2.61419,1.42162 2.875,1.695 0.20231,0.21207 0.19013,0.24413 -0.0928,0.24413 -0.17912,0 -0.36918,-0.0489 -0.42234,-0.10864 -0.0911,-0.10243 -1.76641,-0.75025 -3.53509,-1.367 -1.2798,-0.44627 -5.28632,-1.52 -6.83935,-1.83291 -0.78732,-0.15864 -1.75357,-0.36126 -2.14724,-0.45028 -0.64198,-0.14518 -2.01974,-0.35949 -5.72596,-0.8907 -0.65611,-0.094 -1.87287,-0.21847 -2.70393,-0.27651 -0.83106,-0.0581 -1.72574,-0.15227 -1.98819,-0.20938 -0.76704,-0.16692 -19.27449,-0.20983 -22.58575,-0.0524 -1.66212,0.079 -4.66825,0.19311 -6.68029,0.25349 -3.40849,0.10228 -5.39519,0.18914 -14.71255,0.64315 -1.9683,0.0959 -5.01022,0.21861 -6.75982,0.27266 -1.7496,0.0541 -3.57475,0.1326 -4.05589,0.17456 -0.48114,0.042 -2.44944,0.12321 -4.374,0.18055 -1.92456,0.0574 -3.96444,0.14186 -4.53306,0.18782 -2.15327,0.17406 -12.38774,0.22316 -13.75822,0.066 -0.78732,-0.0903 -2.21881,-0.33322 -3.18109,-0.53986 -1.75524,-0.37691 -4.95796,-1.4657 -5.24085,-1.78168 -0.0831,-0.0928 -0.24591,-0.16877 -0.36177,-0.16877 -0.22034,0 -2.1963,-1.34105 -2.56029,-1.73763 -0.29087,-0.31691 -0.49822,-0.28801 -1.14179,0.15911 -3.32022,2.30671 -7.00888,3.56462 -11.95384,4.07651 -2.20151,0.22789 -18.86655,-0.0988 -22.2429,-0.43602 -0.48113,-0.048 -2.62837,-0.13339 -4.77163,-0.18962 -2.14327,-0.0563 -4.21893,-0.13745 -4.61259,-0.18045 -0.39365,-0.043 -2.79141,-0.15979 -5.32832,-0.25953 -2.53693,-0.0997 -4.93467,-0.21844 -5.32834,-0.26379 -0.39365,-0.0454 -2.64825,-0.13494 -5.01022,-0.1991 -2.36195,-0.0642 -5.51124,-0.17444 -6.9984,-0.24506 -1.48716,-0.0706 -6.60474,-0.14232 -11.3724,-0.15937 -9.92505,-0.0354 -13.04718,0.16301 -20.27946,1.2893 -4.50949,0.70227 -8.99062,1.83514 -13.14855,3.32405 -2.0092,0.71949 -2.35928,0.81156 -2.35928,0.62052 z"
       id="path4156"
       inkscape:connector-curvature="0"
       inkscape:export-filename="D:\DATAS\__docs__\stage\Rapport de stage\images\uncomplete_packet.png"
       inkscape:export-xdpi="90"
       inkscape:export-ydpi="90" />
    <text
       xml:space="preserve"
       style="font-size:40px;font-style:normal;font-weight:normal;line-height:125%;letter-spacing:0px;word-spacing:0px;fill:#ff0000;fill-opacity:1;stroke:none;font-family:Sans"
       x="536.42859"
       y="296.59448"
       id="text4158"
       sodipodi:linespacing="125%"
       transform="translate(0,308.2677)"><tspan
         sodipodi:role="line"
         id="tspan4160"
         x="536.42859"
         y="296.59448" /></text>
    <text
       xml:space="preserve"
       style="font-size:14.38534164px;font-style:normal;font-weight:normal;line-height:125%;letter-spacing:0px;word-spacing:0px;fill:#ff0000;fill-opacity:1;stroke:none;font-family:Sans"
       x="493.82004"
       y="607.17163"
       id="text4162"
       sodipodi:linespacing="125%"
       inkscape:export-filename="D:\DATAS\__docs__\stage\Rapport de stage\images\uncomplete_packet.png"
       inkscape:export-xdpi="90"
       inkscape:export-ydpi="90"><tspan
         sodipodi:role="line"
         id="tspan4164"
         x="493.82004"
         y="607.17163">position réel de l'information</tspan></text>
    <rect
       inkscape:export-ydpi="90"
       inkscape:export-xdpi="90"
       inkscape:export-filename="D:\DATAS\__docs__\stage\Rapport de stage\images\uncomplete_header.png"
       y="868.45752"
       x="52.936279"
       height="23.313515"
       width="476.15338"
       id="rect2985-8-1"
       style="fill:#808080;fill-rule:evenodd;stroke:#000000;stroke-width:0.32867768px;stroke-linecap:butt;stroke-linejoin:miter;stroke-opacity:0.35483871" />
    <rect
       inkscape:export-ydpi="90"
       inkscape:export-xdpi="90"
       inkscape:export-filename="D:\DATAS\__docs__\stage\Rapport de stage\images\uncomplete_header.png"
       y="868.46411"
       x="52.897217"
       height="23.300308"
       width="26.640337"
       id="rect3755-8-7"
       style="fill:#008080;fill-rule:evenodd;stroke:#000000;stroke-width:0.22306903px;stroke-linecap:butt;stroke-linejoin:miter;stroke-opacity:1" />
    <rect
       inkscape:export-ydpi="90"
       inkscape:export-xdpi="90"
       inkscape:export-filename="D:\DATAS\__docs__\stage\Rapport de stage\images\uncomplete_header.png"
       y="868.63562"
       x="79.43898"
       height="22.969492"
       width="137.8499"
       id="rect3757-2-4"
       style="fill:#0000ff;fill-rule:evenodd;stroke:#000000;stroke-width:0.35571411px;stroke-linecap:butt;stroke-linejoin:miter;stroke-opacity:1" />
    <rect
       inkscape:export-ydpi="90"
       inkscape:export-xdpi="90"
       inkscape:export-filename="D:\DATAS\__docs__\stage\Rapport de stage\images\uncomplete_header.png"
       y="868.46405"
       x="217.27214"
       height="23.300308"
       width="26.640337"
       id="rect3755-8-4-0"
       style="fill:#008080;fill-rule:evenodd;stroke:#000000;stroke-width:0.22306903px;stroke-linecap:butt;stroke-linejoin:miter;stroke-opacity:1" />
    <rect
       inkscape:export-ydpi="90"
       inkscape:export-xdpi="90"
       inkscape:export-filename="D:\DATAS\__docs__\stage\Rapport de stage\images\uncomplete_header.png"
       y="868.56866"
       x="243.78117"
       height="22.746181"
       width="75.652"
       id="rect3757-2-5-9"
       style="fill:#0000ff;fill-rule:evenodd;stroke:#000000;stroke-width:0.2622326px;stroke-linecap:butt;stroke-linejoin:miter;stroke-opacity:1" />
    <rect
       inkscape:export-ydpi="90"
       inkscape:export-xdpi="90"
       inkscape:export-filename="D:\DATAS\__docs__\stage\Rapport de stage\images\uncomplete_header.png"
       y="868.54913"
       x="319.63141"
       height="23.300308"
       width="26.640337"
       id="rect3755-8-4-5-4"
       style="fill:#008080;fill-rule:evenodd;stroke:#000000;stroke-width:0.22306903px;stroke-linecap:butt;stroke-linejoin:miter;stroke-opacity:1" />
    <rect
       inkscape:export-ydpi="90"
       inkscape:export-xdpi="90"
       inkscape:export-filename="D:\DATAS\__docs__\stage\Rapport de stage\images\uncomplete_header.png"
       y="868.73029"
       x="346.20279"
       height="22.59305"
       width="175.93982"
       id="rect3757-2-5-1-8"
       style="fill:#0000ff;fill-rule:evenodd;stroke:#000000;stroke-width:0.39855814px;stroke-linecap:butt;stroke-linejoin:miter;stroke-opacity:1" />
    <rect
       inkscape:export-ydpi="90"
       inkscape:export-xdpi="90"
       inkscape:export-filename="D:\DATAS\__docs__\stage\Rapport de stage\images\uncomplete_header.png"
       y="868.34247"
       x="518.8089"
       height="23.379391"
       width="11.062055"
       id="rect3755-8-4-5-7-8"
       style="fill:#008080;fill-rule:evenodd;stroke:#000000;stroke-width:0.14398693px;stroke-linecap:butt;stroke-linejoin:miter;stroke-opacity:1" />
    <rect
       inkscape:export-ydpi="90"
       inkscape:export-xdpi="90"
       inkscape:export-filename="D:\DATAS\__docs__\stage\Rapport de stage\images\uncomplete_header.png"
       y="868.39557"
       x="533.59082"
       height="23.313515"
       width="476.15338"
       id="rect2985-15-4"
       style="fill:#808080;fill-rule:evenodd;stroke:#000000;stroke-width:0.32867768px;stroke-linecap:butt;stroke-linejoin:miter;stroke-opacity:0.35483871" />
    <rect
       inkscape:export-ydpi="90"
       inkscape:export-xdpi="90"
       inkscape:export-filename="D:\DATAS\__docs__\stage\Rapport de stage\images\uncomplete_header.png"
       y="868.6416"
       x="548.57092"
       height="23.045322"
       width="167.46529"
       id="rect3757-2-5-1-1-6-5"
       style="fill:#0000ff;fill-rule:evenodd;stroke:#000000;stroke-width:0.39271364px;stroke-linecap:butt;stroke-linejoin:miter;stroke-opacity:1" />
    <rect
       inkscape:export-ydpi="90"
       inkscape:export-xdpi="90"
       inkscape:export-filename="D:\DATAS\__docs__\stage\Rapport de stage\images\uncomplete_header.png"
       y="868.51453"
       x="700.87231"
       height="23.300308"
       width="26.640337"
       id="rect3755-8-4-5-7-1-5"
       style="fill:#008080;fill-rule:evenodd;stroke:#000000;stroke-width:0.22306903px;stroke-linecap:butt;stroke-linejoin:miter;stroke-opacity:1" />
    <rect
       inkscape:export-ydpi="90"
       inkscape:export-xdpi="90"
       inkscape:export-filename="D:\DATAS\__docs__\stage\Rapport de stage\images\uncomplete_header.png"
       y="868.71045"
       x="727.45844"
       height="23.00993"
       width="199.31819"
       id="rect3757-2-5-1-1-4-1"
       style="fill:#0000ff;fill-rule:evenodd;stroke:#000000;stroke-width:0.42810798px;stroke-linecap:butt;stroke-linejoin:miter;stroke-opacity:1" />
    <path
       style="fill:#000000"
       d="m 53.832366,897.86892 c -0.47174,0.0712 -0.418739,0.1002 0.759266,0.41544 1.836688,0.4915 6.688225,1.47561 9.918724,2.01197 12.848209,2.13317 30.526055,3.54725 48.308954,3.86431 5.08238,0.0906 26.92497,0.0413 33.23924,-0.0751 0.54688,-0.0101 2.33669,-0.0354 3.97734,-0.0562 1.64066,-0.0209 3.43046,-0.0482 3.97735,-0.0608 0.54688,-0.0126 1.95316,-0.0384 3.12505,-0.0574 1.1719,-0.019 2.70602,-0.0458 3.40916,-0.0595 0.70313,-0.0138 2.07745,-0.0391 3.05403,-0.0564 3.42095,-0.0605 5.33287,-0.0983 6.03704,-0.11923 0.39063,-0.0116 1.66906,-0.0391 2.84096,-0.061 1.1719,-0.0219 2.32249,-0.0471 2.55686,-0.0559 0.23438,-0.009 1.43541,-0.0346 2.66895,-0.0573 1.23355,-0.0226 2.44806,-0.049 2.69892,-0.0586 0.25086,-0.01 1.46537,-0.036 2.69891,-0.0586 1.23354,-0.0226 2.44805,-0.0492 2.69891,-0.059 0.25086,-0.01 1.54278,-0.0369 2.87093,-0.0601 1.32815,-0.0232 2.60658,-0.0497 2.84096,-0.0587 0.23438,-0.009 1.38497,-0.0354 2.55686,-0.0585 1.1719,-0.0231 2.32249,-0.0493 2.55687,-0.0581 0.23438,-0.009 1.4354,-0.0346 2.66895,-0.0573 1.23354,-0.0226 2.44805,-0.0491 2.69891,-0.0587 0.25086,-0.01 1.35101,-0.0353 2.44478,-0.0571 1.09377,-0.0218 2.30828,-0.0492 2.69891,-0.0608 0.39063,-0.0117 1.60514,-0.0381 2.69891,-0.0586 1.09377,-0.0206 2.30828,-0.0469 2.69892,-0.0586 0.39063,-0.0117 1.60514,-0.0381 2.69891,-0.0586 1.09377,-0.0206 2.30828,-0.0469 2.69891,-0.0586 0.39063,-0.0117 1.7195,-0.0387 2.95305,-0.0602 1.23354,-0.0214 2.44805,-0.0468 2.69891,-0.0564 0.25086,-0.01 1.73207,-0.0364 3.29158,-0.0596 1.5595,-0.0232 3.0297,-0.0497 3.2671,-0.0589 0.2374,-0.009 1.83791,-0.0354 3.55669,-0.0582 1.71878,-0.0228 3.57251,-0.0508 4.1194,-0.0623 0.54688,-0.0115 3.29551,-0.0405 6.10806,-0.0646 13.73381,-0.11751 18.68363,-0.002 28.12551,0.65396 7.73585,0.53778 14.89634,1.42533 17.10019,2.11958 0.57318,0.18057 1.04473,0.1739 1.66611,-0.0236 3.39738,-1.07962 18.42746,-2.45762 29.95618,-2.74645 1.65365,-0.0414 15.93687,-0.0435 16.90372,-0.002 0.3125,0.0133 2.29407,0.043 4.40349,0.0662 2.10941,0.0231 4.02953,0.0497 4.26692,0.059 0.23742,0.009 1.70762,0.035 3.2671,0.057 1.55952,0.022 3.15509,0.0494 3.54572,0.0609 0.39063,0.0115 1.73299,0.0379 2.98301,0.0586 1.25002,0.0207 2.59238,0.0472 2.98301,0.0588 0.39063,0.0117 1.60514,0.0375 2.69891,0.0574 1.09377,0.0199 2.43613,0.0467 2.98301,0.0595 0.54689,0.0128 1.69748,0.0388 2.55687,0.0578 0.85939,0.019 2.00998,0.0453 2.55686,0.0584 0.54689,0.0131 1.82532,0.0402 2.84096,0.0601 1.01564,0.0199 2.16623,0.0457 2.55687,0.0574 0.39063,0.0117 1.54122,0.0381 2.55686,0.0586 1.01564,0.0206 2.16623,0.0469 2.55686,0.0585 0.39064,0.0116 1.66907,0.0391 2.84097,0.061 1.17189,0.0219 2.33598,0.0479 2.58683,0.0578 0.25086,0.01 1.46537,0.0365 2.69892,0.0591 1.23354,0.0226 2.43456,0.0484 2.66894,0.0573 0.23437,0.009 1.38496,0.034 2.55686,0.056 1.1719,0.0219 2.45033,0.0493 2.84096,0.0608 0.39063,0.0115 1.66907,0.0389 2.84096,0.0608 1.1719,0.0219 2.32249,0.0473 2.55687,0.0563 0.23438,0.009 1.51281,0.0355 2.84096,0.0587 1.32815,0.0232 2.60658,0.0497 2.84096,0.0587 0.23438,0.009 1.38497,0.0344 2.55686,0.0563 1.1719,0.0219 2.45033,0.0495 2.84096,0.0612 0.39064,0.0117 1.86083,0.0394 3.26711,0.0614 1.40627,0.022 2.7511,0.0474 2.98849,0.0565 0.23742,0.009 1.64369,0.0349 3.12506,0.0574 1.48139,0.0226 3.14088,0.0495 3.68776,0.0598 0.54689,0.0104 2.40061,0.0364 4.1194,0.0578 1.71878,0.0214 3.4121,0.0482 3.76296,0.0595 4.77597,0.15351 32.24559,0.15538 36.38433,0.002 0.26316,-0.01 1.09726,-0.0362 1.85361,-0.0589 1.3815,-0.0414 1.9983,-0.0636 3.31242,-0.11913 0.39063,-0.0165 1.19979,-0.0453 1.79813,-0.064 1.85526,-0.058 7.5844,-0.35929 10.56161,-0.55551 10.00913,-0.6597 19.81258,-1.73186 27.48874,-3.00632 3.20088,-0.53145 8.03574,-1.5146 9.89654,-2.01246 1.14139,-0.30536 1.1911,-0.33334 0.71902,-0.40459 -0.446,-0.0673 -0.7703,-0.0327 -2.69067,0.28733 -7.34272,1.22361 -17.52742,2.33274 -28.45484,3.09876 -3.69262,0.25886 -10.66085,0.64426 -14.06275,0.77778 -1.25003,0.0491 -2.52846,0.0995 -2.84096,0.11202 -0.31251,0.0125 -1.20741,0.0403 -1.98868,0.0618 -1.57522,0.0432 -3.10517,0.0886 -3.99106,0.11835 -4.58389,0.15403 -28.90865,0.15748 -36.77672,0.005 -0.54689,-0.0106 -2.59238,-0.0372 -4.54554,-0.0592 -1.95316,-0.022 -3.99865,-0.0484 -4.54554,-0.0586 -0.54688,-0.0103 -2.33669,-0.0364 -3.97734,-0.0582 -1.64066,-0.0218 -3.43046,-0.0487 -3.97735,-0.0598 -0.54688,-0.0112 -2.14492,-0.0367 -3.5512,-0.0568 -1.40627,-0.0201 -3.00431,-0.0473 -3.5512,-0.0605 -0.54688,-0.0131 -2.14492,-0.0404 -3.5512,-0.0605 -1.40628,-0.0202 -2.87647,-0.046 -3.2671,-0.0574 -0.39064,-0.0114 -1.86083,-0.0378 -3.26711,-0.0586 -1.40628,-0.0208 -2.87647,-0.0472 -3.2671,-0.0586 -0.39064,-0.0115 -1.86083,-0.0378 -3.26711,-0.0586 -1.40628,-0.0208 -2.87647,-0.0472 -3.2671,-0.0586 -0.39064,-0.0114 -1.86083,-0.038 -3.26711,-0.0591 -1.40627,-0.0211 -2.94039,-0.0481 -3.40915,-0.0602 -0.46876,-0.012 -1.87504,-0.0382 -3.12506,-0.058 -1.25002,-0.0199 -2.59238,-0.0456 -2.98301,-0.0571 -0.39063,-0.0115 -1.86083,-0.038 -3.2671,-0.0588 -1.40628,-0.0208 -2.87648,-0.0472 -3.26711,-0.0586 -0.39063,-0.0115 -1.86083,-0.038 -3.2671,-0.0591 -1.40628,-0.0211 -2.9404,-0.0481 -3.40915,-0.0602 -0.46876,-0.0121 -1.87504,-0.0379 -3.12506,-0.0573 -1.25002,-0.0195 -2.78414,-0.0462 -3.40915,-0.0594 -0.62502,-0.0132 -2.28698,-0.0399 -3.69325,-0.0595 -1.40628,-0.0195 -2.87648,-0.0449 -3.26711,-0.0563 -0.39063,-0.0114 -2.18044,-0.0385 -3.97734,-0.0601 -1.79691,-0.0216 -3.71456,-0.0478 -4.26144,-0.0583 -5.968,-0.11406 -24.37422,-0.16285 -27.55732,-0.073 -9.19695,0.25945 -19.57934,1.73467 -24.99552,3.55156 -0.49828,0.16715 -0.94559,0.30391 -0.99403,0.30391 -0.0484,0 -0.51237,-0.13854 -1.03097,-0.30786 -2.69526,-0.88 -6.8178,-1.76902 -10.84671,-2.33909 -4.27285,-0.60459 -10.09491,-1.10808 -13.97237,-1.20833 -3.36197,-0.0869 -24.26044,-0.0334 -27.44802,0.0703 -0.37699,0.0123 -2.27497,0.0401 -4.21773,0.0619 -1.94277,0.0218 -3.73257,0.0473 -3.97735,0.0568 -0.24477,0.009 -1.78739,0.0349 -3.42805,0.0566 -1.64065,0.0217 -3.36653,0.0497 -3.83529,0.0622 -0.46876,0.0125 -2.00288,0.039 -3.40916,0.059 -1.40627,0.02 -2.87647,0.0457 -3.2671,0.0571 -0.39063,0.0114 -1.85405,0.0386 -3.25204,0.0604 -1.39799,0.0218 -2.74034,0.0472 -2.98301,0.0564 -0.24266,0.009 -1.71717,0.0358 -3.27668,0.059 -1.5595,0.0232 -3.0297,0.0496 -3.2671,0.0586 -0.2374,0.009 -1.7076,0.0354 -3.26711,0.0586 -1.5595,0.0232 -3.0297,0.0496 -3.2671,0.0586 -0.2374,0.009 -1.7076,0.0354 -3.26711,0.0586 -1.5595,0.0232 -3.0297,0.0496 -3.2671,0.0586 -0.2374,0.009 -1.7076,0.0354 -3.26711,0.0586 -1.5595,0.0232 -3.0297,0.0496 -3.2671,0.0586 -0.2374,0.009 -1.70025,0.0353 -3.25078,0.0584 -1.55052,0.0231 -3.08464,0.0505 -3.40915,0.061 -0.32451,0.0104 -1.7406,0.0362 -3.14688,0.0572 -1.40627,0.021 -2.94039,0.048 -3.40915,0.06 -0.46876,0.012 -2.12825,0.0392 -3.68776,0.0603 -1.5595,0.0212 -3.0297,0.0461 -3.2671,0.0553 -0.2374,0.009 -1.96576,0.0346 -3.84079,0.0564 -1.87504,0.0218 -3.72876,0.0491 -4.11939,0.0608 -0.39064,0.0117 -2.30829,0.0387 -4.26145,0.06 -1.95316,0.0213 -3.99865,0.0471 -4.54553,0.0572 -8.19491,0.15144 -33.30922,0.15404 -37.14879,0.004 -0.27167,-0.0106 -1.13316,-0.0369 -1.91442,-0.0583 -2.86743,-0.0787 -3.46649,-0.0989 -6.392159,-0.216 -16.497108,-0.6603 -32.392887,-2.09443 -43.231636,-3.90037 -1.916969,-0.3194 -2.240884,-0.35396 -2.686889,-0.28664 z"
       id="path4228"
       inkscape:connector-curvature="0"
       inkscape:export-filename="D:\DATAS\__docs__\stage\Rapport de stage\images\uncomplete_header.png"
       inkscape:export-xdpi="90"
       inkscape:export-ydpi="90" />
    <path
       style="fill:#000000"
       d="m 535.6885,897.35514 c -0.47174,0.0712 -0.41874,0.1002 0.75927,0.41544 1.83669,0.4915 6.68822,1.47561 9.91872,2.01197 12.84821,2.13317 30.52605,3.54725 48.30895,3.86431 5.08238,0.0906 26.92497,0.0413 33.23924,-0.0751 0.54688,-0.0101 2.33669,-0.0354 3.97734,-0.0562 1.64066,-0.0209 3.43046,-0.0482 3.97735,-0.0608 0.54688,-0.0126 1.95316,-0.0384 3.12506,-0.0574 1.17189,-0.019 2.70601,-0.0458 3.40915,-0.0595 0.70314,-0.0138 2.07745,-0.0391 3.05403,-0.0564 3.42095,-0.0605 5.33287,-0.0983 6.03704,-0.11923 0.39064,-0.0116 1.66907,-0.0391 2.84096,-0.061 1.1719,-0.0219 2.32249,-0.0471 2.55687,-0.0559 0.23438,-0.009 1.43541,-0.0346 2.66895,-0.0573 1.23354,-0.0226 2.44805,-0.049 2.69891,-0.0586 0.25086,-0.01 1.46537,-0.036 2.69891,-0.0586 1.23355,-0.0226 2.44806,-0.0492 2.69892,-0.059 0.25086,-0.01 1.54277,-0.0369 2.87092,-0.0601 1.32815,-0.0232 2.60658,-0.0497 2.84096,-0.0587 0.23438,-0.009 1.38497,-0.0354 2.55687,-0.0585 1.17189,-0.0231 2.32248,-0.0493 2.55686,-0.0581 0.23438,-0.009 1.43541,-0.0346 2.66895,-0.0573 1.23354,-0.0226 2.44805,-0.0491 2.69891,-0.0587 0.25086,-0.01 1.35101,-0.0353 2.44478,-0.0571 1.09377,-0.0218 2.30828,-0.0492 2.69891,-0.0608 0.39064,-0.0117 1.60515,-0.0381 2.69892,-0.0586 1.09377,-0.0206 2.30828,-0.0469 2.69891,-0.0586 0.39063,-0.0117 1.60514,-0.0381 2.69891,-0.0586 1.09377,-0.0206 2.30828,-0.0469 2.69892,-0.0586 0.39063,-0.0117 1.7195,-0.0387 2.95304,-0.0602 1.23354,-0.0214 2.44805,-0.0468 2.69891,-0.0564 0.25086,-0.01 1.73207,-0.0364 3.29158,-0.0596 1.55951,-0.0232 3.0297,-0.0497 3.26711,-0.0589 0.23739,-0.009 1.83791,-0.0354 3.55669,-0.0582 1.71878,-0.0228 3.57251,-0.0508 4.11939,-0.0623 0.54689,-0.0115 3.29552,-0.0405 6.10807,-0.0646 13.7338,-0.11751 18.68363,-0.002 28.12551,0.65396 7.73585,0.53778 14.89633,1.42533 17.10018,2.11958 0.57319,0.18057 1.04473,0.1739 1.66612,-0.0236 3.39737,-1.07962 18.42746,-2.45762 29.95617,-2.74645 1.65366,-0.0414 15.93688,-0.0435 16.90372,-0.002 0.31251,0.0133 2.29408,0.043 4.40349,0.0662 2.10941,0.0231 4.02953,0.0497 4.26692,0.059 0.23742,0.009 1.70762,0.035 3.26711,0.057 1.55952,0.022 3.15508,0.0494 3.54572,0.0609 0.39063,0.0115 1.73298,0.0379 2.983,0.0586 1.25003,0.0207 2.59238,0.0472 2.98301,0.0588 0.39064,0.0116 1.60515,0.0375 2.69892,0.0574 1.09377,0.0199 2.43612,0.0467 2.983,0.0595 0.54689,0.0128 1.69748,0.0388 2.55687,0.0578 0.85939,0.019 2.00998,0.0453 2.55686,0.0584 0.54689,0.0131 1.82532,0.0402 2.84097,0.0601 1.01564,0.0199 2.16623,0.0457 2.55686,0.0574 0.39063,0.0117 1.54122,0.0381 2.55686,0.0586 1.01565,0.0206 2.16624,0.0469 2.55687,0.0585 0.39063,0.0116 1.66906,0.0391 2.84096,0.061 1.1719,0.0219 2.33598,0.0479 2.58684,0.0578 0.25085,0.01 1.46536,0.0365 2.69891,0.0591 1.23354,0.0226 2.43456,0.0484 2.66894,0.0573 0.23438,0.009 1.38497,0.034 2.55686,0.056 1.1719,0.0219 2.45033,0.0493 2.84097,0.0608 0.39063,0.0115 1.66906,0.0389 2.84096,0.0608 1.17189,0.0219 2.32248,0.0473 2.55686,0.0563 0.23438,0.009 1.51281,0.0355 2.84096,0.0587 1.32815,0.0232 2.60658,0.0497 2.84096,0.0587 0.23438,0.009 1.38497,0.0344 2.55687,0.0563 1.17189,0.0219 2.45033,0.0495 2.84096,0.0612 0.39063,0.0117 1.86083,0.0394 3.2671,0.0614 1.40628,0.022 2.7511,0.0474 2.98849,0.0565 0.23742,0.009 1.6437,0.0349 3.12506,0.0574 1.48139,0.0226 3.14088,0.0495 3.68777,0.0598 0.54688,0.0104 2.40061,0.0364 4.11939,0.0578 1.71878,0.0214 3.41211,0.0482 3.76297,0.0595 4.77596,0.15351 32.24558,0.15538 36.38432,0.002 0.26316,-0.01 1.09727,-0.0362 1.85361,-0.0589 1.38151,-0.0414 1.99831,-0.0636 3.31242,-0.11913 0.39064,-0.0165 1.1998,-0.0453 1.79813,-0.064 1.85526,-0.058 7.5844,-0.35929 10.56161,-0.55551 10.00914,-0.6597 19.81258,-1.73186 27.48879,-3.00632 3.20075,-0.53145 8.03565,-1.5146 9.89645,-2.01246 1.1414,-0.30536 1.1911,-0.33334 0.719,-0.40459 -0.446,-0.0673 -0.7703,-0.0327 -2.6906,0.28733 -7.34275,1.22361 -17.52743,2.33274 -28.45484,3.09876 -3.69263,0.25886 -10.66085,0.64426 -14.06276,0.77778 -1.25002,0.0491 -2.52845,0.0995 -2.84096,0.11202 -0.31251,0.0125 -1.20741,0.0403 -1.98867,0.0618 -1.57523,0.0432 -3.10517,0.0886 -3.99107,0.11835 -4.58389,0.15403 -28.90865,0.15748 -36.77672,0.005 -0.54688,-0.0106 -2.59238,-0.0372 -4.54554,-0.0592 -1.95316,-0.022 -3.99865,-0.0484 -4.54553,-0.0586 -0.54689,-0.0103 -2.33669,-0.0364 -3.97735,-0.0582 -1.64065,-0.0218 -3.43046,-0.0487 -3.97734,-0.0598 -0.54689,-0.0112 -2.14493,-0.0367 -3.5512,-0.0568 -1.40628,-0.0201 -3.00432,-0.0473 -3.55121,-0.0605 -0.54688,-0.0131 -2.14492,-0.0404 -3.5512,-0.0605 -1.40627,-0.0202 -2.87647,-0.046 -3.2671,-0.0574 -0.39063,-0.0114 -1.86083,-0.0378 -3.26711,-0.0586 -1.40627,-0.0208 -2.87647,-0.0472 -3.2671,-0.0586 -0.39063,-0.0115 -1.86083,-0.0378 -3.26711,-0.0586 -1.40627,-0.0208 -2.87647,-0.0472 -3.2671,-0.0586 -0.39063,-0.0114 -1.86083,-0.038 -3.26711,-0.0591 -1.40627,-0.0211 -2.94039,-0.0481 -3.40915,-0.0602 -0.46876,-0.012 -1.87503,-0.0382 -3.12505,-0.058 -1.25003,-0.0199 -2.59238,-0.0456 -2.98301,-0.0571 -0.39064,-0.0115 -1.86083,-0.038 -3.26711,-0.0588 -1.40627,-0.0208 -2.87647,-0.0472 -3.2671,-0.0586 -0.39064,-0.0115 -1.86083,-0.038 -3.26711,-0.0591 -1.40627,-0.0211 -2.94039,-0.0481 -3.40915,-0.0602 -0.46876,-0.0121 -1.87503,-0.0379 -3.12506,-0.0573 -1.25002,-0.0195 -2.78414,-0.0462 -3.40915,-0.0594 -0.62501,-0.0132 -2.28697,-0.0399 -3.69325,-0.0595 -1.40628,-0.0195 -2.87647,-0.0449 -3.2671,-0.0563 -0.39064,-0.0114 -2.18044,-0.0385 -3.97735,-0.0601 -1.79691,-0.0216 -3.71456,-0.0478 -4.26144,-0.0583 -5.968,-0.11406 -24.37421,-0.16285 -27.55732,-0.073 -9.19695,0.25945 -19.57933,1.73467 -24.99552,3.55156 -0.49828,0.16715 -0.94559,0.30391 -0.99402,0.30391 -0.0484,0 -0.51238,-0.13854 -1.03098,-0.30786 -2.69526,-0.88 -6.8178,-1.76902 -10.8467,-2.33909 -4.27286,-0.60459 -10.09492,-1.10808 -13.97238,-1.20833 -3.36197,-0.0869 -24.26044,-0.0334 -27.44802,0.0703 -0.37698,0.0123 -2.27496,0.0401 -4.21773,0.0619 -1.94276,0.0218 -3.73257,0.0473 -3.97734,0.0568 -0.24478,0.009 -1.7874,0.0349 -3.42805,0.0566 -1.64066,0.0217 -3.36654,0.0497 -3.8353,0.0622 -0.46876,0.0125 -2.00288,0.039 -3.40915,0.059 -1.40628,0.02 -2.87648,0.0457 -3.26711,0.0571 -0.39063,0.0114 -1.85405,0.0386 -3.25203,0.0604 -1.39799,0.0218 -2.74035,0.0472 -2.98301,0.0564 -0.24267,0.009 -1.71718,0.0358 -3.27668,0.059 -1.55951,0.0232 -3.02971,0.0496 -3.26711,0.0586 -0.2374,0.009 -1.7076,0.0354 -3.2671,0.0586 -1.55951,0.0232 -3.02971,0.0496 -3.26711,0.0586 -0.2374,0.009 -1.70759,0.0354 -3.2671,0.0586 -1.55951,0.0232 -3.02971,0.0496 -3.26711,0.0586 -0.2374,0.009 -1.70759,0.0354 -3.2671,0.0586 -1.55951,0.0232 -3.02971,0.0496 -3.26711,0.0586 -0.2374,0.009 -1.70025,0.0353 -3.25078,0.0584 -1.55052,0.0231 -3.08464,0.0505 -3.40915,0.061 -0.3245,0.0104 -1.7406,0.0362 -3.14687,0.0572 -1.40628,0.021 -2.9404,0.048 -3.40916,0.06 -0.46876,0.012 -2.12825,0.0392 -3.68775,0.0603 -1.55951,0.0212 -3.02971,0.0461 -3.26711,0.0553 -0.2374,0.009 -1.96575,0.0346 -3.84079,0.0564 -1.87503,0.0218 -3.72876,0.0491 -4.11939,0.0608 -0.39063,0.0117 -2.30828,0.0387 -4.26144,0.06 -1.95316,0.0213 -3.99865,0.0471 -4.54554,0.0572 -8.19491,0.15144 -33.30921,0.15404 -37.14878,0.004 -0.27167,-0.0106 -1.13316,-0.0369 -1.91443,-0.0583 -2.86742,-0.0787 -3.46649,-0.0989 -6.39216,-0.216 -16.4971,-0.6603 -32.39288,-2.09443 -43.23163,-3.90037 -1.91697,-0.3194 -2.24088,-0.35396 -2.68689,-0.28664 z"
       id="path4226"
       inkscape:connector-curvature="0"
       inkscape:export-filename="D:\DATAS\__docs__\stage\Rapport de stage\images\uncomplete_header.png"
       inkscape:export-xdpi="90"
       inkscape:export-ydpi="90" />
    <text
       inkscape:export-ydpi="90"
       inkscape:export-xdpi="90"
       inkscape:export-filename="D:\DATAS\__docs__\stage\Rapport de stage\images\uncomplete_header.png"
       transform="scale(1.0005341,0.99946618)"
       sodipodi:linespacing="125%"
       id="text4003-1"
       y="940.08063"
       x="232.9119"
       style="font-size:32.38336563px;font-style:normal;font-weight:normal;line-height:125%;letter-spacing:0px;word-spacing:0px;fill:#000000;fill-opacity:1;stroke:none;font-family:Sans"
       xml:space="preserve"><tspan
         y="940.08063"
         x="232.9119"
         id="tspan4005-5"
         sodipodi:role="line">string lue</tspan></text>
    <text
       inkscape:export-ydpi="90"
       inkscape:export-xdpi="90"
       inkscape:export-filename="D:\DATAS\__docs__\stage\Rapport de stage\images\uncomplete_header.png"
       transform="scale(1.0172858,0.98300792)"
       sodipodi:linespacing="125%"
       id="text4007-2"
       y="946.8197"
       x="694.01721"
       style="font-size:28.53915787px;font-style:normal;font-weight:normal;line-height:125%;letter-spacing:0px;word-spacing:0px;fill:#000000;fill-opacity:1;stroke:none;font-family:Sans"
       xml:space="preserve"><tspan
         y="946.8197"
         x="694.01721"
         id="tspan4009-7"
         sodipodi:role="line">string à venir</tspan></text>
    <rect
       inkscape:export-ydpi="90"
       inkscape:export-xdpi="90"
       inkscape:export-filename="D:\DATAS\__docs__\stage\Rapport de stage\images\uncomplete_header.png"
       y="960.97595"
       x="735.755"
       height="16.304945"
       width="16.614517"
       id="rect3755-8-3-6"
       style="fill:#008080;fill-rule:evenodd;stroke:#000000;stroke-width:0.14736424px;stroke-linecap:butt;stroke-linejoin:miter;stroke-opacity:1" />
    <rect
       inkscape:export-ydpi="90"
       inkscape:export-xdpi="90"
       inkscape:export-filename="D:\DATAS\__docs__\stage\Rapport de stage\images\uncomplete_header.png"
       y="989.76526"
       x="735.755"
       height="16.304945"
       width="16.614517"
       id="rect3755-8-3-2-1"
       style="fill:#0000ff;fill-opacity:1;fill-rule:evenodd;stroke:#000000;stroke-width:0.14736424px;stroke-linecap:butt;stroke-linejoin:miter;stroke-opacity:1" />
    <text
       inkscape:export-ydpi="90"
       inkscape:export-xdpi="90"
       inkscape:export-filename="D:\DATAS\__docs__\stage\Rapport de stage\images\uncomplete_header.png"
       sodipodi:linespacing="125%"
       id="text4047-4"
       y="976.85095"
       x="762.05859"
       style="font-size:27.50393867px;font-style:normal;font-weight:normal;line-height:125%;letter-spacing:0px;word-spacing:0px;fill:#000000;fill-opacity:1;stroke:none;font-family:Sans"
       xml:space="preserve"><tspan
         y="976.85095"
         x="762.05859"
         id="tspan4049-2"
         sodipodi:role="line">header</tspan></text>
    <text
       inkscape:export-ydpi="90"
       inkscape:export-xdpi="90"
       inkscape:export-filename="D:\DATAS\__docs__\stage\Rapport de stage\images\uncomplete_header.png"
       sodipodi:linespacing="125%"
       id="text4051-3"
       y="1006.1292"
       x="763.63483"
       style="font-size:28.8923893px;font-style:normal;font-weight:normal;line-height:125%;letter-spacing:0px;word-spacing:0px;fill:#000000;fill-opacity:1;stroke:none;font-family:Sans"
       xml:space="preserve"><tspan
         y="1006.1292"
         x="763.63483"
         id="tspan4053-2"
         sodipodi:role="line">datas</tspan></text>
    <path
       style="fill:#ff0000;fill-opacity:1;stroke:#000000;stroke-width:0.06840383;stroke-opacity:0.35483871"
       d="m 515.13551,862.49023 c 0,-0.11712 0.37346,-1.19241 0.67353,-1.93931 0.88483,-2.20243 2.42578,-3.29585 3.76612,-3.973 0.77259,-0.39033 4.49626,-0.86008 5.48451,-0.37954 0.32989,0.11834 0.46695,0.17432 1.08589,0.34661 0.18143,0.0505 0.41029,0.12688 0.50859,0.16973 0.0982,0.0429 0.37662,0.12009 0.61853,0.17162 0.24191,0.0516 0.63778,0.1643 0.87971,0.25057 0.2419,0.0863 0.63159,0.20138 0.86595,0.25581 0.23435,0.0545 0.52507,0.1494 0.64603,0.21108 0.12089,0.0617 0.84465,0.11655 1.6082,0.12192 1.21467,0.008 1.42783,-0.0291 1.70443,-0.3006 0.17388,-0.17069 0.40274,-0.3825 0.50858,-0.47069 0.10582,-0.0882 0.24193,-0.23166 0.30241,-0.31884 0.50346,-0.72568 0.78437,-1.40737 0.93502,-1.82726 0.20705,-0.57715 0.3189,-0.35408 0.41283,0.0392 0.0927,0.38809 0.23931,0.68772 0.60738,1.23259 0.26853,0.39749 0.40257,0.857 1.04124,1.43244 0.17827,0.16059 0.61634,0.22028 1.56699,0.2135 1.19897,-0.008 1.64146,-0.0912 3.14768,-0.58807 0.26461,-0.0873 0.66047,-0.20106 0.87971,-0.25286 0.21923,-0.0518 0.49758,-0.13266 0.61854,-0.17968 0.43532,-0.16927 1.9959,-0.58013 3.56006,-0.93731 1.00616,-0.22978 3.24792,-0.13544 3.79371,0.15961 0.20413,0.11034 0.50103,0.3133 0.65977,0.45104 0.72314,0.62732 0.6599,0.56138 1.14089,1.18981 0.60076,0.78496 1.32499,2.14602 1.68762,3.17165 0.2717,0.76844 0.45182,1.35341 0.4969,1.61368 0.0349,0.20189 0.0329,0.2324 -0.0159,0.2324 -0.031,0 -0.0638,-0.0466 -0.0731,-0.10341 -0.0157,-0.0975 -0.30531,-0.71427 -0.611,-1.30142 -0.22121,-0.42487 -0.91367,-1.44707 -1.1821,-1.74498 -0.13609,-0.15102 -0.30309,-0.34392 -0.37113,-0.42866 -0.11091,-0.13821 -0.34909,-0.34225 -0.98967,-0.84797 -0.11335,-0.0895 -0.32369,-0.20799 -0.46735,-0.26324 -0.14363,-0.0553 -0.29826,-0.14496 -0.34363,-0.19933 -0.13256,-0.15892 -3.33136,-0.19977 -3.90368,-0.0499 -0.28728,0.0753 -0.80686,0.18384 -1.15461,0.24133 -0.58912,0.0974 -0.93249,0.18006 -2.54289,0.61229 -0.34021,0.0913 -0.86597,0.20812 -1.16836,0.25957 -0.30239,0.0516 -0.61785,0.12625 -0.70101,0.16619 -0.0832,0.04 -0.42337,0.1173 -0.756,0.17189 -0.33265,0.0547 -0.68522,0.13505 -0.78349,0.17881 -0.37216,0.16571 -2.14107,0.21245 -2.37795,0.0629 -0.13607,-0.0861 -0.3835,-0.31724 -0.5498,-0.51396 -0.30339,-0.35884 -0.85693,-1.39537 -0.90583,-1.69619 -0.0143,-0.0884 -0.0424,-0.16067 -0.0625,-0.16067 -0.0381,0 -0.24569,-0.5401 -0.30859,-0.91766 -0.0503,-0.30169 -0.15307,-0.34116 -0.26432,0.0845 -0.57386,2.19603 -1.27837,2.72395 -2.13305,3.21127 -0.38049,0.21696 -3.26085,-0.0941 -3.84441,-0.41509 -0.0832,-0.0458 -0.45429,-0.12698 -0.82473,-0.18052 -0.37043,-0.0536 -0.72919,-0.13085 -0.79724,-0.17179 -0.068,-0.041 -0.48244,-0.15212 -0.92092,-0.24709 -0.43848,-0.0949 -0.85291,-0.20797 -0.92095,-0.25112 -0.068,-0.0432 -0.45772,-0.12847 -0.86595,-0.18955 -0.40825,-0.0612 -0.95257,-0.16607 -1.20961,-0.2333 -0.25702,-0.0672 -1.14155,-0.13551 -1.96558,-0.15173 -1.71543,-0.0338 -2.25504,0.15519 -3.50507,1.22744 -0.77942,0.66857 -1.55391,1.74708 -2.27256,3.16456 -0.34727,0.68498 -0.40778,0.77262 -0.40778,0.59075 z"
       id="path4156-1"
       inkscape:connector-curvature="0"
       inkscape:export-filename="D:\DATAS\__docs__\stage\Rapport de stage\images\uncomplete_header.png"
       inkscape:export-xdpi="90"
       inkscape:export-ydpi="90"
       sodipodi:nodetypes="csccccccccccccccccccscccccscscccccccccccccccccscccccccccccsscc" />
    <text
       xml:space="preserve"
       style="font-size:14.38534164px;font-style:normal;font-weight:normal;line-height:125%;letter-spacing:0px;word-spacing:0px;fill:#ff0000;fill-opacity:1;stroke:none;font-family:Sans"
       x="437.46768"
       y="846.59503"
       id="text4162-6"
       sodipodi:linespacing="125%"
       inkscape:export-filename="D:\DATAS\__docs__\stage\Rapport de stage\images\uncomplete_header.png"
       inkscape:export-xdpi="90"
       inkscape:export-ydpi="90"><tspan
         sodipodi:role="line"
         id="tspan4164-8"
         x="437.46768"
         y="846.59503">header  à cheval sur 2 lectures</tspan></text>
    <rect
       inkscape:export-ydpi="90"
       inkscape:export-xdpi="90"
       inkscape:export-filename="D:\DATAS\__docs__\stage\Rapport de stage\images\uncomplete_header.png"
       y="867.94843"
       x="533.6499"
       height="23.355356"
       width="15.078631"
       id="rect3755-8-4-5-7-8-5"
       style="fill:#008080;fill-rule:evenodd;stroke:#000000;stroke-width:0.1680207px;stroke-linecap:butt;stroke-linejoin:miter;stroke-opacity:1" />
    <text
       xml:space="preserve"
       style="font-size:17.53957558px;font-style:normal;font-weight:normal;line-height:125%;letter-spacing:0px;word-spacing:0px;fill:#008000;fill-opacity:1;stroke:none;font-family:Sans"
       x="505.08563"
       y="717.4892"
       id="text3141"
       sodipodi:linespacing="125%"
       inkscape:export-filename="D:\DATAS\__docs__\stage\Rapport de stage\images\uncomplete_packet.png"
       inkscape:export-xdpi="90"
       inkscape:export-ydpi="90"><tspan
         sodipodi:role="line"
         id="tspan3143"
         x="505.08563"
         y="717.4892">dernières données lisibles</tspan></text>
    <path
       style="fill:#008000;fill-opacity:1"
       d="m 508.41837,659.85198 c -0.002,0.0157 -0.55288,0.4614 -1.224,0.99028 l -1.2202,0.96164 11.35901,17.27402 11.359,17.27403 -1.95153,1.53797 -1.95151,1.53798 -11.35901,-17.27402 -11.35899,-17.27402 -1.22585,0.96608 -1.22586,0.96608 -0.0343,-0.0697 c -0.066,-0.13451 -4.44251,-16.90508 -4.41708,-16.926 0.0141,-0.0116 2.92714,2.17895 6.47335,4.86798 3.5462,2.68901 6.52258,4.94535 6.61417,5.01409 0.0916,0.0687 0.16482,0.13787 0.16273,0.15364 z"
       id="path4220"
       inkscape:connector-curvature="0"
       inkscape:export-filename="D:\DATAS\__docs__\stage\Rapport de stage\images\uncomplete_packet.png"
       inkscape:export-xdpi="90"
       inkscape:export-ydpi="90" />
  </g>
</svg>
